<svg xmlns="http://www.w3.org/2000/svg">
<defs>
<font id="GTAmerica-ExpandedLight" horiz-adv-x="1644" >
  <font-face 
    font-family="GT America Expanded Light"
    font-weight="300"
    font-stretch="ultra-expanded"
    units-per-em="2048"
    panose-1="0 0 4 7 0 0 0 0 0 0"
    ascent="1638"
    descent="-410"
    x-height="1024"
    cap-height="1454"
    bbox="-1092 -483 3297 1921"
    underline-thickness="102"
    underline-position="-204"
    unicode-range="U+000D-FB02"
  />
<missing-glyph horiz-adv-x="2084" 
d="M2044 1358h-1131v-96h1131v-99h-1131v-96h1131v-98h-1131v-97h1131v-96h-1131v-98h1131v-96h-2003v872h2003v-96zM137 1366l27 18h-33l-10 31l-8 -31h-33l26 -18l-10 -31l25 19l26 -19zM291 1384h-33l27 -18l-11 -31l25 21l27 -21l-11 31l25 18h-31l-10 31zM469 1384h-33
l27 -18l-10 -31l24 21l27 -21l-10 31l24 18h-31l-10 31zM645 1384h-31l27 -18l-10 -31l24 21l27 -21l-10 31l24 18h-30l-11 31zM850 1366l24 18h-30l-10 31l-11 -31h-30l24 -18l-8 -31l25 21l26 -21zM201 1294h-31l25 -18l-9 -29l25 19l25 -19l-9 29l25 18h-31l-10 31z
M760 1276l26 18h-32l-9 31l-10 -31h-30l24 -18l-10 -29l26 19l25 -19zM559 745v191h193v164h-193v192h-164v-192h-190v-164h190v-191h164zM137 1188l27 18h-33l-10 29l-8 -29h-33l26 -18l-10 -31l25 19l26 -19zM291 1206h-33l27 -18l-11 -31l25 19l27 -19l-11 31l25 18h-31
l-10 29zM645 1206h-31l27 -18l-10 -31l24 19l27 -19l-10 31l24 18h-30l-11 29zM850 1188l24 18h-30l-10 29l-11 -29h-30l24 -18l-8 -31l25 19l26 -19zM137 1008l27 20h-33l-10 29l-8 -29h-33l26 -20l-10 -29l25 18l26 -18zM850 1008l24 20h-30l-10 29l-11 -29h-30l24 -20
l-8 -29l25 18l26 -18zM137 829l27 19h-33l-10 31l-8 -31h-33l26 -19l-10 -28l25 18l26 -18zM315 829l25 19h-31l-10 31l-8 -31h-33l27 -19l-11 -28l25 18l27 -18zM672 829l24 19h-30l-11 31l-10 -31h-31l27 -19l-10 -28l24 18l27 -18zM850 829l24 19h-30l-10 31l-11 -31h-30
l24 -19l-8 -28l25 18l26 -18zM236 711l-9 30l25 19h-31l-10 28l-10 -28h-31l25 -19l-9 -30l25 18zM770 711l-10 30l26 19h-32l-9 28l-10 -28h-30l24 -19l-10 -30l26 18zM147 621l-10 30l27 19h-33l-10 30l-8 -30h-33l26 -19l-10 -30l25 18zM326 621l-11 30l25 19h-31l-10 30

<glyph glyph-name="fi" unicode="fi" horiz-adv-x="1656" 
d="M1014 1024v-125h-486v-899h-151v899h-324v125h324v86q0 201 104 298t320 97q116 0 213 -22v-135q-99 22 -211 22q-146 0 -210.5 -59t-64.5 -193v-94h486zM1260 1210v232h184v-232h-184zM1278 0v1024h152v-1024h-152z" />
    <glyph glyph-name="fl" unicode="fl" horiz-adv-x="1677" 
d="M1014 1024v-125h-486v-899h-151v899h-324v125h324v86q0 201 104 298t320 97q116 0 213 -22v-135q-99 22 -211 22q-146 0 -210.5 -59t-64.5 -193v-94h486zM1440 1485v-1485h-152v1485h152z" />
    <glyph glyph-name="g_g.liga" unicode="gg" horiz-adv-x="3176" 
d="M1157 1006q25 87 99.5 132.5t189.5 45.5q32 0 76 -8v-132q-40 7 -80 7q-70 0 -123.5 -23t-77.5 -67q145 -97 145 -259q0 -170 -158 -268t-427 -98q-196 0 -344 55q-68 -13 -104 -45t-36 -74q0 -106 189 -106h581q189 0 285 -69.5t96 -202.5q0 -169 -166 -250.5
t-522 -81.5q-343 0 -506 71t-163 220q0 78 46.5 129t141.5 81q-131 50 -131 170q0 73 53 123.5t154 75.5q-162 98 -162 270q0 168 159.5 266.5t428.5 98.5q209 0 356 -61zM3009 1051q-72 0 -125 -23t-76 -67q145 -94 145 -259q0 -170 -158.5 -268t-429.5 -98q-188 0 -327 51
q-117 -34 -117 -115q0 -106 190 -106h586q189 0 284 -69.5t95 -202.5q0 -168 -169 -250t-521 -82q-343 0 -506.5 71t-163.5 220q0 78 46.5 128.5t142.5 81.5q-133 50 -133 170q0 139 178 193q-170 98 -170 276q0 168 158.5 266.5t426.5 98.5q209 0 359 -61q25 87 99.5 132.5
t189.5 45.5q32 0 73 -8v-132q-40 7 -77 7zM801 451q200 0 315 66.5t115 184.5q0 119 -114 183.5t-316 64.5t-317 -64.5t-115 -183.5q0 -118 115.5 -184.5t316.5 -66.5zM2365 451q201 0 317 66.5t116 184.5q0 119 -115 183.5t-318 64.5q-202 0 -316 -64.5t-114 -183.5
q0 -118 115 -184.5t315 -66.5zM1065 31h-559q-56 0 -103 6q-147 -47 -147 -162q0 -188 522 -188q277 0 409 49t132 151q0 76 -60 110t-194 34zM2673 31h-562q-55 0 -104 6q-147 -47 -147 -162q0 -188 526 -188q276 0 408.5 49t132.5 151q0 77 -59.5 110.5t-194.5 33.5z" />
    <glyph glyph-name=".notdef" horiz-adv-x="2084" 
d="M2044 1358h-1131v-96h1131v-99h-1131v-96h1131v-98h-1131v-97h1131v-96h-1131v-98h1131v-96h-2003v872h2003v-96zM137 1366l27 18h-33l-10 31l-8 -31h-33l26 -18l-10 -31l25 19l26 -19zM291 1384h-33l27 -18l-11 -31l25 21l27 -21l-11 31l25 18h-31l-10 31zM469 1384h-33
l27 -18l-10 -31l24 21l27 -21l-10 31l24 18h-31l-10 31zM645 1384h-31l27 -18l-10 -31l24 21l27 -21l-10 31l24 18h-30l-11 31zM850 1366l24 18h-30l-10 31l-11 -31h-30l24 -18l-8 -31l25 21l26 -21zM201 1294h-31l25 -18l-9 -29l25 19l25 -19l-9 29l25 18h-31l-10 31z
M760 1276l26 18h-32l-9 31l-10 -31h-30l24 -18l-10 -29l26 19l25 -19zM559 745v191h193v164h-193v192h-164v-192h-190v-164h190v-191h164zM137 1188l27 18h-33l-10 29l-8 -29h-33l26 -18l-10 -31l25 19l26 -19zM291 1206h-33l27 -18l-11 -31l25 19l27 -19l-11 31l25 18h-31
l-10 29zM645 1206h-31l27 -18l-10 -31l24 19l27 -19l-10 31l24 18h-30l-11 29zM850 1188l24 18h-30l-10 29l-11 -29h-30l24 -18l-8 -31l25 19l26 -19zM137 1008l27 20h-33l-10 29l-8 -29h-33l26 -20l-10 -29l25 18l26 -18zM850 1008l24 20h-30l-10 29l-11 -29h-30l24 -20
l-8 -29l25 18l26 -18zM137 829l27 19h-33l-10 31l-8 -31h-33l26 -19l-10 -28l25 18l26 -18zM315 829l25 19h-31l-10 31l-8 -31h-33l27 -19l-11 -28l25 18l27 -18zM672 829l24 19h-30l-11 31l-10 -31h-31l27 -19l-10 -28l24 18l27 -18zM850 829l24 19h-30l-10 31l-11 -31h-30
l24 -19l-8 -28l25 18l26 -18zM236 711l-9 30l25 19h-31l-10 28l-10 -28h-31l25 -19l-9 -30l25 18zM770 711l-10 30l26 19h-32l-9 28l-10 -28h-30l24 -19l-10 -30l26 18zM147 621l-10 30l27 19h-33l-10 30l-8 -30h-33l26 -19l-10 -30l25 18zM326 621l-11 30l25 19h-31l-10 30
l-8 -30h-33l27 -19l-11 -30l25 18zM504 621l-10 30l24 19h-31l-10 30l-8 -30h-33l27 -19l-10 -30l24 18zM682 621l-10 30l24 19h-30l-11 30l-10 -30h-31l27 -19l-10 -30l24 18zM860 621l-10 30l24 19h-30l-10 30l-11 -30h-30l24 -19l-8 -30l25 18zM41 387v98h2001v-98h-2001
zM41 195v96h2003v-96h-2003zM41 0v96h2003v-96h-2003z" />
    <glyph glyph-name=".null" horiz-adv-x="0" 
 />
    <glyph glyph-name=".null" horiz-adv-x="0" 
 />
    <glyph glyph-name="nonmarkingreturn" horiz-adv-x="682" 
 />
    <glyph glyph-name="CR" unicode="&#xd;" horiz-adv-x="0" 
 />
    <glyph glyph-name="space" unicode=" " horiz-adv-x="882" 
 />
    <glyph glyph-name="exclam" unicode="!" horiz-adv-x="737" 
d="M309 412l-43 1073h203l-41 -1073h-119zM487 219v-219h-237v219h237z" />
    <glyph glyph-name="quotedbl" unicode="&#x22;" horiz-adv-x="890" 
d="M231 954l-30 500h168l-31 -500h-107zM553 954l-31 500h168l-31 -500h-106z" />
    <glyph glyph-name="numbersign" unicode="#" horiz-adv-x="1703" 
d="M1661 887h-373l-69 -350h372v-111h-395l-84 -426h-139l86 426h-537l-84 -426h-137l84 426h-342v111h365l69 350h-352v110h375l84 424h137l-84 -424h537l83 424h138l-84 -424h350v-110zM1079 537l72 350h-537l-69 -350h534z" />
    <glyph glyph-name="dollar" unicode="$" horiz-adv-x="1792" 
d="M1149 774q269 -26 394.5 -123.5t125.5 -281.5q0 -203 -184.5 -309.5t-534.5 -106.5h-14v-160h-109v164q-323 17 -504.5 132.5t-234.5 334.5l178 25q73 -319 561 -357v567l-178 17q-251 25 -375 123.5t-124 277.5q0 182 175.5 284.5t501.5 106.5v162h109v-164
q315 -9 481 -109t223 -315l-172 -34q-46 166 -168.5 242t-363.5 85v-540zM733 815l94 -10v532q-260 -3 -381.5 -65t-121.5 -189q0 -119 97 -182t312 -86zM950 88q283 0 415 67.5t132 213.5q0 122 -95 185t-310 83l-156 14v-563h14z" />
    <glyph glyph-name="percent" unicode="%" horiz-adv-x="2103" 
d="M348 -43l1229 1518h166l-1231 -1518h-164zM506 727q-198 0 -318 101t-120 270q0 164 120 265t316 101q193 0 314.5 -103t121.5 -269q0 -163 -121 -264t-313 -101zM506 842q136 0 218.5 67.5t82.5 182.5q0 118 -83 188t-220 70q-139 0 -223 -68.5t-84 -183.5
q0 -119 84 -187.5t225 -68.5zM1602 -35q-198 0 -318.5 101.5t-120.5 269.5q0 164 120 265t316 101q193 0 315 -103t122 -269q0 -163 -121 -264t-313 -101zM1602 80q136 0 218.5 67.5t82.5 182.5q0 118 -83.5 188t-220.5 70q-139 0 -223 -68.5t-84 -183.5q0 -119 84.5 -187.5
t225.5 -68.5z" />
    <glyph glyph-name="ampersand" unicode="&#x26;" horiz-adv-x="1792" 
d="M1645 111q69 0 116 16v-139q-68 -25 -149 -25q-181 0 -391 162q-254 -176 -580 -176q-143 0 -257.5 34t-186.5 92.5t-110 133t-38 158.5q0 74 26.5 135.5t79 110t114 84.5t147.5 73l33 14q-123 106 -177.5 190.5t-54.5 192.5q0 150 116 245t304 95q195 0 312.5 -91
t117.5 -238q0 -133 -86 -237.5t-219 -160.5l-60 -24l529 -443q202 202 242 521l151 -21q-17 -169 -90 -321t-193 -269q79 -59 149 -85.5t155 -26.5zM377 1171q0 -84 42 -147.5t177 -177.5l70 28q112 46 176.5 124t64.5 180q0 99 -69.5 153.5t-204.5 54.5
q-123 0 -189.5 -55.5t-66.5 -159.5zM211 377q0 -91 61.5 -158.5t160 -101t218.5 -33.5q261 0 461 131l-557 477l-55 -24q-148 -64 -218.5 -130.5t-70.5 -160.5z" />
    <glyph glyph-name="quotesingle" unicode="'" horiz-adv-x="569" 
d="M231 954l-30 500h168l-31 -500h-107z" />
    <glyph glyph-name="parenleft" unicode="(" horiz-adv-x="749" 
d="M612 -272q-158 116 -269 273.5t-162.5 324t-51.5 336.5q0 260 123.5 507t359.5 418l115 -74q-434 -351 -434 -851q0 -502 434 -861z" />
    <glyph glyph-name="parenright" unicode=")" horiz-adv-x="749" 
d="M137 -272l-114 73q434 359 434 861q0 500 -434 851l114 74q236 -171 360 -418.5t124 -506.5q0 -170 -52 -336.5t-163 -324t-269 -273.5z" />
    <glyph glyph-name="asterisk" unicode="*" horiz-adv-x="786" 
d="M723 1200l-264 -59l188 -205l-108 -80l-146 242l-147 -242l-107 80l187 205l-263 59l43 127l246 -110l-26 264h135l-29 -264l248 110z" />
    <glyph glyph-name="plus" unicode="+" horiz-adv-x="1402" 
d="M1276 739v-129h-500v-424h-151v424h-500v129h500v400h151v-400h500z" />
    <glyph glyph-name="comma" unicode="," horiz-adv-x="641" 
d="M242 -274l-41 86q129 44 129 184v4h-127v244h239v-209q0 -128 -46.5 -201t-153.5 -108z" />
    <glyph glyph-name="hyphen" unicode="-" horiz-adv-x="1294" 
d="M125 639h1044v-135h-1044v135z" />
    <glyph glyph-name="period" unicode="." horiz-adv-x="638" 
d="M438 225v-225h-237v225h237z" />
    <glyph glyph-name="slash" unicode="/" horiz-adv-x="1306" 
d="M260 -240h-166l953 1796h165z" />
    <glyph glyph-name="zero" unicode="0" horiz-adv-x="1773" 
d="M887 -49q-230 0 -404 97.5t-266 269.5t-92 393q0 224 92.5 396.5t266 269t403.5 96.5t403.5 -96.5t266 -269t92.5 -396.5q0 -221 -92 -393t-266 -269.5t-404 -97.5zM887 84q280 0 441 170.5t161 456.5q0 287 -161 457.5t-441 170.5q-279 0 -440.5 -170t-161.5 -458
q0 -285 161.5 -456t440.5 -171z" />
    <glyph glyph-name="one" unicode="1" horiz-adv-x="964" 
d="M522 0v1153q-47 -67 -153 -113.5t-252 -46.5h-62v142h37q167 0 284.5 79t164.5 209h133v-1423h-152z" />
    <glyph glyph-name="two" unicode="2" horiz-adv-x="1636" 
d="M88 0v147q357 131 587 234t378 205q136 95 193 187t57 208q0 56 -17 106.5t-55.5 97t-96 80.5t-143.5 54t-192 20q-232 0 -370 -102t-138 -283q0 -58 10 -92l-166 19q-12 41 -12 96q0 104 48 195t135 157.5t215 105t280 38.5q138 0 251.5 -27.5t190 -74t128.5 -109.5
t75.5 -133.5t23.5 -147.5q0 -291 -342 -496q-357 -220 -751 -340h1143v-145h-1432z" />
    <glyph glyph-name="three" unicode="3" horiz-adv-x="1687" 
d="M844 -49q-320 0 -507 126t-220 337l155 20q37 -165 177.5 -257.5t398.5 -92.5q262 0 402.5 80.5t140.5 222.5q0 80 -36.5 135.5t-105.5 86.5t-154.5 44t-197.5 13h-184v131h176q207 0 328.5 65t121.5 201q0 132 -127 204t-383 72q-128 0 -229 -28.5t-165 -79.5
t-100.5 -116.5t-45.5 -143.5l-150 30q10 99 56.5 183t130 149.5t215 102.5t297.5 37q330 0 495.5 -112t165.5 -296q0 -75 -31 -135.5t-83.5 -98.5t-117 -60t-137.5 -28q90 -7 164 -30.5t133 -65t92 -108t33 -152.5q0 -70 -24 -132.5t-78.5 -118.5t-135.5 -97t-201 -64.5
t-269 -23.5z" />
    <glyph glyph-name="four" unicode="4" horiz-adv-x="1601" 
d="M1577 379h-332v-379h-151v379h-1061v110l1016 934h196v-919h332v-125zM1094 1106q0 138 6 199h-6q-18 -30 -43 -57.5t-90 -86.5l-562 -526q-87 -79 -157 -131h852v602z" />
    <glyph glyph-name="five" unicode="5" horiz-adv-x="1619" 
d="M823 -49q-283 0 -467.5 110.5t-238.5 309.5l164 30q40 -150 181.5 -233.5t360.5 -83.5q252 0 392.5 103.5t140.5 291.5q0 182 -132 278.5t-366 96.5q-203 0 -332 -68.5t-204 -210.5l-158 13l96 835h1176v-139h-1051l-68 -543q69 116 224 181t366 65q289 0 449 -130
t160 -378q0 -245 -187.5 -386.5t-505.5 -141.5z" />
    <glyph glyph-name="six" unicode="6" horiz-adv-x="1693" 
d="M915 963q313 0 484.5 -130t171.5 -366q0 -151 -85 -268.5t-239 -182.5t-350 -65q-367 0 -569.5 199.5t-202.5 564.5q0 360 195.5 559t549.5 199q277 0 459.5 -111.5t220.5 -304.5l-159 -37q-94 319 -521 319q-288 0 -441 -160t-153 -464v-2q0 -37 3 -78q63 154 231.5 241
t404.5 87zM897 84q235 0 374.5 104t139.5 279q0 178 -130 269t-382 91q-237 0 -391.5 -100.5t-192.5 -280.5q59 -179 206 -270.5t376 -91.5z" />
    <glyph glyph-name="seven" unicode="7" horiz-adv-x="1443" 
d="M455 0v33q0 352 195.5 672t543.5 579h-1151v139h1366v-125q-762 -519 -762 -1253v-45h-192z" />
    <glyph glyph-name="eight" unicode="8" horiz-adv-x="1691" 
d="M1161 758q216 -51 316 -141.5t100 -235.5q0 -202 -191 -316t-530 -114q-356 0 -548.5 108t-192.5 308q0 147 106.5 241t308.5 129q-190 46 -278 131t-88 222q0 177 184 280t502 103q309 0 492.5 -104.5t183.5 -281.5q0 -131 -94.5 -215.5t-270.5 -113.5zM324 1092
q0 -107 92.5 -169.5t294.5 -93.5l245 -36q226 56 317 121.5t91 172.5q0 127 -134.5 197t-379.5 70q-251 0 -388.5 -68t-137.5 -194zM856 84q264 0 412.5 78t148.5 217q0 123 -106.5 191t-349.5 100l-216 30q-244 -43 -355 -121t-111 -206q0 -139 149.5 -214t427.5 -75z" />
    <glyph glyph-name="nine" unicode="9" horiz-adv-x="1693" 
d="M815 1473q359 0 557.5 -193t198.5 -545q0 -371 -194 -577.5t-552 -206.5q-273 0 -457 112.5t-223 309.5l160 37q46 -175 175 -250.5t345 -75.5q289 0 440.5 168.5t151.5 480.5v4q0 51 -2 74q-68 -130 -235 -215.5t-408 -85.5q-304 0 -476.5 120.5t-172.5 350.5
q0 224 189 358t503 134zM797 645q236 0 391 92.5t194 247.5q-55 173 -196.5 263.5t-368.5 90.5q-251 0 -392.5 -93.5t-141.5 -264.5q0 -168 133.5 -252t380.5 -84z" />
    <glyph glyph-name="colon" unicode=":" horiz-adv-x="638" 
d="M438 1024v-225h-237v225h237zM438 225v-225h-237v225h237z" />
    <glyph glyph-name="semicolon" unicode=";" horiz-adv-x="655" 
d="M455 1024v-225h-238v225h238zM248 -274l-41 86q129 44 129 184v4h-127v244h240v-209q0 -128 -47 -201t-154 -108z" />
    <glyph glyph-name="less" unicode="&#x3c;" 
d="M1352 174l-1139 430v127l1139 430v-145l-967 -346l967 -348v-148z" />
    <glyph glyph-name="equal" unicode="=" horiz-adv-x="1402" 
d="M125 793v143h1151v-143h-1151zM125 412v143h1151v-143h-1151z" />
    <glyph glyph-name="greater" unicode="&#x3e;" 
d="M293 174v148l967 348l-967 346v145l1139 -430v-127z" />
    <glyph glyph-name="question" unicode="?" horiz-adv-x="1490" 
d="M623 348v84q0 202 223 287l176 72q53 23 87.5 44t67 53t48.5 77.5t16 105.5q0 124 -127.5 211.5t-347.5 87.5q-247 0 -390 -94t-143 -264q0 -64 17 -111l-170 19q-17 47 -17 102q0 220 186.5 351.5t518.5 131.5q157 0 281.5 -34t202 -93t118.5 -135.5t41 -165.5
q0 -70 -17 -127.5t-43.5 -97t-69 -73t-81.5 -54t-94 -43.5l-168 -70q-79 -33 -113 -77t-34 -117v-70h-168zM598 0v219h221v-219h-221z" />
    <glyph glyph-name="at" unicode="@" horiz-adv-x="2162" 
d="M1026 -225q-456 0 -706 206t-250 584q0 237 126 419.5t356 283t529 100.5q225 0 414 -55t320.5 -154t204.5 -241t73 -312q0 -213 -97 -336t-263 -123q-114 0 -185.5 49.5t-93.5 143.5q-74 -104 -210.5 -160.5t-317.5 -56.5q-171 0 -280 71t-109 183q0 126 88 185.5
t295 74.5l520 35v12q0 129 -91 189.5t-282 60.5q-151 0 -241 -50.5t-97 -140.5h-154q3 88 69.5 159t180.5 111t252 40q245 0 370.5 -92.5t125.5 -272.5v-235q0 -97 42 -143t134 -46q101 0 157 89t56 249q0 300 -236 475.5t-641 175.5q-404 0 -643 -186.5t-239 -501.5
q0 -324 218 -497.5t621 -173.5q132 0 287 26t248 64l49 -105q-102 -49 -262 -76.5t-338 -27.5zM971 233q124 0 232 37t172.5 100.5t64.5 137.5v63l-525 -36q-128 -11 -178.5 -43.5t-50.5 -104.5t76.5 -113t208.5 -41z" />
    <glyph glyph-name="A" unicode="A" horiz-adv-x="1900" 
d="M1673 0l-188 340h-1069l-189 -340h-182l821 1454h168l824 -1454h-185zM496 483h909l-270 488q-62 110 -83.5 148.5t-50 97.5t-49.5 114h-4q-28 -80 -64 -149.5t-118 -210.5z" />
    <glyph glyph-name="B" unicode="B" horiz-adv-x="1898" 
d="M1444 752q159 -24 233 -116.5t74 -234.5q0 -89 -28.5 -160.5t-88.5 -126t-160 -84.5t-235 -30h-991v1454h987q103 0 185.5 -21.5t136 -57.5t89.5 -85t51 -101.5t15 -109.5q0 -122 -68.5 -212.5t-199.5 -114.5zM1217 1311h-799v-496h803q81 0 140.5 15.5t94 40t55 60
t27 68.5t6.5 74q0 46 -14.5 85t-48.5 75t-101.5 57t-162.5 21zM1229 143q356 0 356 263q0 266 -352 266h-815v-529h811z" />
    <glyph glyph-name="C" unicode="C" horiz-adv-x="1945" 
d="M993 -51q-423 0 -673 212.5t-250 565.5q0 231 116.5 408t329 273.5t490.5 96.5q340 0 560.5 -142.5t288.5 -404.5l-178 -16q-57 203 -234 312.5t-448 109.5q-347 0 -549 -171.5t-202 -463.5q0 -286 209 -462.5t551 -176.5q263 0 435 99t244 290l170 -26
q-91 -247 -309.5 -375.5t-550.5 -128.5z" />
    <glyph glyph-name="D" unicode="D" horiz-adv-x="2007" 
d="M248 0v1454h813q194 0 354 -44.5t276.5 -130.5t181 -220.5t64.5 -306.5q0 -174 -66 -316.5t-183 -237.5t-276.5 -146.5t-346.5 -51.5h-817zM418 143h655q322 0 506 158t184 451q0 142 -53 250t-149.5 175t-226.5 100.5t-290 33.5h-626v-1168z" />
    <glyph glyph-name="E" unicode="E" horiz-adv-x="1800" 
d="M418 143h1210v-143h-1378v1454h1364v-143h-1196v-494h1161v-143h-1161v-531z" />
    <glyph glyph-name="F" unicode="F" horiz-adv-x="1726" 
d="M1614 1311h-1196v-498h1161v-141h-1161v-672h-168v1454h1364v-143z" />
    <glyph glyph-name="G" unicode="G" horiz-adv-x="2023" 
d="M967 -51q-269 0 -473 97t-314 273.5t-110 407.5q0 233 114.5 409t325.5 272.5t491 96.5q334 0 556.5 -131.5t289.5 -345.5l-174 -31q-51 162 -232.5 264.5t-451.5 102.5q-341 0 -545 -174t-204 -463q0 -285 204 -461t545 -176q165 0 302 40.5t225.5 108.5t137 156
t48.5 185v32h-703v144h854v-756h-133l-12 285q-100 -161 -291.5 -248.5t-449.5 -87.5z" />
    <glyph glyph-name="H" unicode="H" horiz-adv-x="2084" 
d="M1835 1454v-1454h-168v672h-1249v-672h-168v1454h168v-639h1249v639h168z" />
    <glyph glyph-name="I" unicode="I" horiz-adv-x="667" 
d="M418 0h-168v1454h168v-1454z" />
    <glyph glyph-name="J" unicode="J" horiz-adv-x="1040" 
d="M850 522q0 -289 -138 -421t-405 -132q-159 0 -264 23v158q153 -23 266 -23q90 0 156 20t116.5 65.5t75.5 124.5t25 193v924h168v-932z" />
    <glyph glyph-name="K" unicode="K" horiz-adv-x="1900" 
d="M1612 0l-660 815l-534 -424v-391h-168v1454h168v-879l1112 879h242l-682 -532l743 -922h-221z" />
    <glyph glyph-name="L" unicode="L" horiz-adv-x="1628" 
d="M250 0v1454h168v-1307h1138v-147h-1306z" />
    <glyph glyph-name="M" unicode="M" horiz-adv-x="2406" 
d="M250 0v1454h260l641 -1194q32 -66 43 -98h6q6 22 43 98l651 1194h263v-1454h-156v1202q0 98 2 123h-6q-11 -24 -58 -113l-663 -1212h-162l-657 1214q-27 52 -47 111h-11q4 -46 4 -123v-1202h-153z" />
    <glyph glyph-name="N" unicode="N" horiz-adv-x="2074" 
d="M250 0v1454h209l1110 -1147q74 -74 98 -129h4v164v1112h154v-1454h-183l-1136 1174q-67 67 -96 124h-7v-153v-1145h-153z" />
    <glyph glyph-name="O" unicode="O" horiz-adv-x="2023" 
d="M1012 -51q-275 0 -488.5 96t-333.5 273.5t-120 408.5t120 408.5t333.5 273.5t488.5 96q274 0 487.5 -96t334 -273.5t120.5 -408.5t-120.5 -408.5t-334 -273.5t-487.5 -96zM1012 90q223 0 397 79t271.5 224t97.5 334t-97.5 334t-271.5 224t-397 79t-397 -79t-271.5 -224
t-97.5 -334t97.5 -334t271.5 -224t397 -79z" />
    <glyph glyph-name="P" unicode="P" horiz-adv-x="1761" 
d="M1180 1454q239 0 379.5 -119t140.5 -323q0 -209 -153 -333t-408 -124h-721v-555h-170v1454h932zM1155 696q170 0 269.5 85t99.5 231q0 141 -98 220t-271 79h-737v-615h737z" />
    <glyph glyph-name="Q" unicode="Q" horiz-adv-x="2023" 
d="M1409 10q113 -149 322 -149q96 0 167 12v-154q-93 -14 -151 -14q-152 0 -284 66.5t-214 197.5q-109 -20 -237 -20q-275 0 -488.5 96t-333.5 273.5t-120 408.5t120 408.5t333.5 273.5t488.5 96q274 0 487.5 -96t334 -273.5t120.5 -408.5q0 -256 -146 -443.5t-399 -273.5z
M246 727q0 -189 97.5 -334t271.5 -224t397 -79t397 79t271.5 224t97.5 334t-97.5 334t-271.5 224t-397 79t-397 -79t-271.5 -224t-97.5 -334z" />
    <glyph glyph-name="R" unicode="R" horiz-adv-x="1855" 
d="M1540 0l-428 606h-694v-606h-170v1454h942q111 0 199 -24.5t143.5 -65t92.5 -96t52 -113.5t15 -121q0 -68 -21.5 -130.5t-65.5 -119.5t-121.5 -98.5t-180.5 -56.5l446 -629h-209zM418 1311v-561h745q95 0 166 24t111 65.5t59 91t19 105.5q0 55 -18 102t-57 87t-110 63
t-168 23h-747z" />
    <glyph glyph-name="S" unicode="S" horiz-adv-x="1814" 
d="M967 -51q-382 0 -596.5 126.5t-282.5 389.5l184 24q105 -399 697 -399q280 0 413.5 70t133.5 219q0 127 -92.5 189.5t-309.5 82.5l-469 43q-245 23 -362 118t-117 269q0 204 183 314t523 110q343 0 540 -115t265 -346l-180 -36q-55 181 -205 268.5t-424 87.5
q-256 0 -392 -69.5t-136 -202.5q0 -120 84.5 -176t294.5 -76l452 -45q274 -28 396.5 -122t122.5 -280q0 -221 -182.5 -332.5t-540.5 -111.5z" />
    <glyph glyph-name="T" unicode="T" horiz-adv-x="1605" 
d="M1585 1454v-143h-698v-1311h-168v1311h-699v143h1565z" />
    <glyph glyph-name="U" unicode="U" horiz-adv-x="1976" 
d="M190 1454h168v-792q0 -119 43 -222.5t121.5 -181t199 -122t267.5 -44.5q145 0 264.5 44.5t198.5 122t121.5 181.5t42.5 222v792h170v-797q0 -154 -53.5 -283.5t-153 -224t-251 -147.5t-339.5 -53q-190 0 -342 53t-251.5 147.5t-152.5 224t-53 283.5v797z" />
    <glyph glyph-name="V" unicode="V" horiz-adv-x="1740" 
d="M778 0l-776 1454h191l620 -1167q46 -93 55 -129h4q12 40 56 129l622 1167h189l-774 -1454h-187z" />
    <glyph glyph-name="W" unicode="W" horiz-adv-x="2609" 
d="M578 0l-525 1454h178l422 -1212q32 -95 33 -97h2q8 33 35 97l498 1212h165l500 -1212q31 -86 33 -97h4q1 3 33 97l422 1212h178l-524 -1454h-209l-482 1182q-29 68 -32 102h-9q-3 -34 -32 -102l-482 -1182h-208z" />
    <glyph glyph-name="X" unicode="X" horiz-adv-x="1806" 
d="M25 0l768 752l-723 702h229l535 -530q39 -39 67 -74h4q9 13 70 74l528 530h230l-715 -696l764 -758h-236l-577 590q-45 45 -66 74h-4q-18 -29 -63 -76l-590 -588h-221z" />
    <glyph glyph-name="Y" unicode="Y" horiz-adv-x="1720" 
d="M768 0v532l-766 922h213l584 -706q45 -52 55 -84h4q11 37 55 84l590 706h215l-780 -922v-532h-170z" />
    <glyph glyph-name="Z" unicode="Z" horiz-adv-x="1732" 
d="M117 135l1257 1176h-1206v143h1444v-133l-1260 -1178h1309v-143h-1544v135z" />
    <glyph glyph-name="bracketleft" unicode="[" horiz-adv-x="815" 
d="M250 -246v1809h536v-123h-393v-1563h393v-123h-536z" />
    <glyph glyph-name="backslash" unicode="\" horiz-adv-x="1306" 
d="M1047 -240l-953 1796h166l952 -1796h-165z" />
    <glyph glyph-name="bracketright" unicode="]" horiz-adv-x="815" 
d="M565 -246h-536v123h393v1563h-393v123h536v-1809z" />
    <glyph glyph-name="asciicircum" unicode="^" horiz-adv-x="1171" 
d="M528 1452h115l487 -573h-155l-389 456l-389 -456h-156z" />
    <glyph glyph-name="underscore" unicode="_" horiz-adv-x="1316" 
d="M0 -193h1317v-116h-1317v116z" />
    <glyph glyph-name="grave" unicode="`" horiz-adv-x="1228" 
d="M526 1188h-174l-368 307h204z" />
    <glyph glyph-name="a" unicode="a" horiz-adv-x="1658" 
d="M637 -39q-233 0 -370.5 80t-137.5 223q0 139 98 215q58 45 152 72t276 37l660 41v20q0 140 -121 215.5t-348 75.5q-223 0 -354.5 -63.5t-157.5 -188.5h-166q25 171 206.5 273t471.5 102q306 0 463 -108.5t157 -317.5v-260q0 -220 23 -377h-158q-14 95 -14 231
q-90 -136 -256.5 -203t-423.5 -67zM684 80q183 0 326.5 45.5t225 130t81.5 195.5v65l-629 -39q-155 -10 -242 -35t-122 -66.5t-35 -109.5q0 -93 101.5 -139.5t293.5 -46.5z" />
    <glyph glyph-name="b" unicode="b" horiz-adv-x="1771" 
d="M995 -39q-224 0 -376 70t-230 190l-18 -221h-133v1485h151v-699q77 130 242.5 203.5t372.5 73.5q310 0 493.5 -149.5t183.5 -399.5q0 -159 -87.5 -285.5t-244 -197t-354.5 -70.5zM952 94q263 0 416.5 113.5t153.5 306.5q0 194 -146.5 305t-404.5 111q-168 0 -302 -51
t-209 -141.5t-75 -202.5v-43q0 -173 158.5 -285.5t408.5 -112.5z" />
    <glyph glyph-name="c" unicode="c" horiz-adv-x="1568" 
d="M791 -39q-320 0 -512.5 150t-192.5 401q0 253 194.5 402t522.5 149q559 0 672 -383l-168 -23q-88 275 -512 275q-261 0 -405 -109.5t-144 -310.5q0 -196 147.5 -308t405.5 -112q405 0 516 262l158 -22q-54 -177 -233.5 -274t-448.5 -97z" />
    <glyph glyph-name="d" unicode="d" horiz-adv-x="1771" 
d="M772 -39q-197 0 -352.5 70.5t-241.5 195.5t-86 283q0 247 189.5 400t498.5 153q416 0 602 -266v688h152v-1485h-150v231q-88 -132 -243.5 -201t-368.5 -69zM811 94q252 0 413.5 110.5t161.5 280.5v41q0 175 -166 290.5t-425 115.5q-254 0 -398.5 -112.5t-144.5 -309.5
q0 -191 150.5 -303.5t408.5 -112.5z" />
    <glyph glyph-name="e" unicode="e" horiz-adv-x="1609" 
d="M1499 535v-64h-1255q9 -179 155 -279t406 -100q402 0 547 238l131 -64q-187 -305 -678 -305q-331 0 -525 144.5t-194 396.5q0 181 90.5 309t246.5 190t365 62q330 0 520.5 -140.5t190.5 -387.5zM244 590h1095q-1 111 -75.5 193t-198 122.5t-277.5 40.5
q-233 0 -382.5 -96.5t-161.5 -259.5z" />
    <glyph glyph-name="f" unicode="f" horiz-adv-x="1048" 
d="M1014 1024v-125h-486v-899h-151v899h-324v125h324v86q0 201 104 298t320 97q116 0 213 -22v-135q-99 22 -211 22q-146 0 -210.5 -59t-64.5 -193v-94h486z" />
    <glyph glyph-name="g" unicode="g" horiz-adv-x="1611" 
d="M1442 1051q-72 0 -125 -24.5t-76 -68.5q148 -96 148 -258q0 -169 -159 -267.5t-429 -98.5q-201 0 -346 57q-68 -15 -103 -46t-35 -73q0 -106 189 -106l627 -2q378 0 378 -270q0 -169 -171.5 -250.5t-538.5 -81.5q-357 0 -523.5 71t-166.5 220q0 78 46 129t140 81
q-129 51 -129 168q0 74 53 125t154 76q-162 98 -162 268q0 169 158.5 266t429.5 97q214 0 356 -59q25 87 99.5 133.5t189.5 46.5q35 0 76 -8v-132q-40 7 -80 7zM801 451q201 0 316.5 65.5t115.5 183.5t-115 182t-317 64t-317 -64t-115 -182t115.5 -183.5t316.5 -65.5z
M1108 31h-602q-54 0 -100 6q-150 -44 -150 -162q0 -97 131 -142.5t412 -45.5q293 0 428 49t135 151q0 75 -60.5 109.5t-193.5 34.5z" />
    <glyph glyph-name="h" unicode="h" horiz-adv-x="1763" 
d="M240 0v1485h151v-729q77 148 228.5 228.5t355.5 80.5q299 0 454.5 -158t155.5 -461v-446h-151v424q0 248 -126.5 377t-369.5 129t-395 -128t-152 -333v-469h-151z" />
    <glyph glyph-name="i" unicode="i" horiz-adv-x="608" 
d="M211 1210v232h184v-232h-184zM229 0v1024h152v-1024h-152z" />
    <glyph glyph-name="j" unicode="j" horiz-adv-x="641" 
d="M236 1210v232h184v-232h-184zM57 -420q-101 0 -163 12v134q93 -11 176 -11q95 0 142.5 59.5t47.5 202.5v1047h152v-1075q0 -80 -18 -144t-57.5 -116t-110.5 -80.5t-169 -28.5z" />
    <glyph glyph-name="k" unicode="k" horiz-adv-x="1570" 
d="M1300 0l-493 590l-416 -264v-326h-151v1485h151v-1012l834 551h231l-520 -352l559 -672h-195z" />
    <glyph glyph-name="l" unicode="l" horiz-adv-x="628" 
d="M391 1485v-1485h-151v1485h151z" />
    <glyph glyph-name="m" unicode="m" horiz-adv-x="2560" 
d="M229 1024h150v-258q56 145 180.5 221t308.5 76q189 0 312.5 -77.5t169.5 -225.5q66 145 199 224t313 79q258 0 389 -136.5t131 -406.5v-520h-152v512q0 206 -100 312t-295 106q-204 0 -329.5 -114t-125.5 -300v-516h-151v510q0 207 -99 313.5t-292 106.5
q-204 0 -330.5 -123t-126.5 -324v-483h-152v1024z" />
    <glyph glyph-name="n" unicode="n" horiz-adv-x="1753" 
d="M229 0v1024h150v-270q76 152 227.5 230.5t368.5 78.5q293 0 446.5 -142t153.5 -415v-506h-152v465q0 465 -483 465q-255 0 -407 -125t-152 -336v-469h-152z" />
    <glyph glyph-name="o" unicode="o" horiz-adv-x="1611" 
d="M805 -39q-211 0 -374.5 68.5t-254 194t-90.5 288.5t90.5 288.5t254 194t374.5 68.5q212 0 376 -68.5t254.5 -194t90.5 -288.5t-90.5 -288.5t-254.5 -194t-376 -68.5zM805 92q256 0 408.5 113.5t152.5 306.5t-152.5 306.5t-408.5 113.5q-254 0 -406.5 -113.5
t-152.5 -306.5t152.5 -306.5t406.5 -113.5z" />
    <glyph glyph-name="p" unicode="p" horiz-adv-x="1761" 
d="M227 -399v1423h152v-240q77 130 241 204.5t375 74.5q308 0 492 -151t184 -404q0 -159 -87.5 -284t-243.5 -194t-353 -69q-198 0 -367 71t-241 185v-616h-152zM944 94q262 0 414.5 110.5t152.5 303.5q0 196 -147 309t-401 113q-168 0 -302.5 -52t-209 -144t-74.5 -206v-43
q0 -172 157.5 -281.5t409.5 -109.5z" />
    <glyph glyph-name="q" unicode="q" horiz-adv-x="1761" 
d="M1382 -399v620q-69 -114 -233.5 -191t-372.5 -77q-152 0 -281 43t-217 118.5t-137 178.5t-49 221q0 254 185 405.5t489 151.5q217 0 380.5 -78.5t237.5 -206.5l23 238h127v-1423h-152zM817 88q137 0 247.5 33t179.5 90t105.5 129t36.5 152v43q0 80 -39 152t-111.5 127.5
t-185 88.5t-249.5 33q-115 0 -213 -25.5t-174 -76t-119 -132.5t-43 -188q0 -201 154 -313.5t411 -112.5z" />
    <glyph glyph-name="r" unicode="r" horiz-adv-x="1007" 
d="M371 705q45 161 167.5 256.5t290.5 95.5q75 0 136 -13v-149q-56 12 -138 12q-115 0 -190.5 -31.5t-132.5 -95.5q-123 -129 -123 -393v-387h-152v1024h142v-319z" />
    <glyph glyph-name="s" unicode="s" horiz-adv-x="1525" 
d="M823 -39q-282 0 -457 84.5t-262 249.5l138 67q133 -276 602 -276q407 0 407 203q0 73 -51 110.5t-180 44.5l-500 31q-360 21 -360 277q0 147 150 229t415 82t432.5 -75.5t233.5 -215.5l-146 -59q-67 119 -189.5 173t-344.5 54q-192 0 -296 -47t-104 -135q0 -137 230 -152
l503 -28q190 -12 274.5 -83t84.5 -198q0 -158 -141.5 -247t-438.5 -89z" />
    <glyph glyph-name="t" unicode="t" horiz-adv-x="1130" 
d="M43 899v125h324v270l151 66v-336h516v-125h-516v-524q0 -135 71.5 -195.5t211.5 -60.5q107 0 237 28v-133q-37 -17 -109 -27t-141 -10q-102 0 -178.5 21.5t-122 56.5t-73.5 87t-37.5 104t-9.5 116v537h-324z" />
    <glyph glyph-name="u" unicode="u" horiz-adv-x="1730" 
d="M760 -39q-580 0 -580 547v516h150v-510q0 -100 27.5 -177t70.5 -123t104.5 -74.5t121 -39t128.5 -10.5q118 0 216 29.5t162 77.5t108 110.5t63 126.5t19 129v461h151v-1024h-149v295q-68 -164 -222 -249t-370 -85z" />
    <glyph glyph-name="v" unicode="v" horiz-adv-x="1464" 
d="M647 0l-641 1024h176l512 -834q21 -32 37 -65h2q8 19 37 65l512 834h176l-641 -1024h-170z" />
    <glyph glyph-name="w" unicode="w" horiz-adv-x="2273" 
d="M508 0l-471 1024h164l368 -813q22 -46 31 -86h4q5 17 35 86l412 813h172l411 -813q30 -69 35 -86h4q9 40 31 86l369 813h163l-471 -1024h-188l-408 809q-21 44 -30 88h-4q-8 -41 -31 -88l-408 -809h-188z" />
    <glyph glyph-name="x" unicode="x" horiz-adv-x="1452" 
d="M29 0l592 524l-562 500h205l379 -342q54 -51 78 -86h2q50 57 80 84l385 344h207l-568 -500l596 -524h-215l-397 348q-64 55 -90 90h-2q-18 -25 -94 -92l-394 -346h-202z" />
    <glyph glyph-name="y" unicode="y" horiz-adv-x="1429" 
d="M203 -420q-58 0 -113 8v133q56 -6 100 -6q167 0 276.5 66.5t166.5 177.5l18 37l-645 1028h182l498 -815q23 -39 43 -88h4q11 30 41 88l477 815h172l-643 -1090q-110 -188 -245.5 -271t-331.5 -83z" />
    <glyph glyph-name="z" unicode="z" horiz-adv-x="1511" 
d="M125 129l1028 766h-983v129h1206v-127l-1036 -768h1073v-129h-1288v129z" />
    <glyph glyph-name="braceleft" unicode="{" horiz-adv-x="753" 
d="M633 -248q-75 0 -132.5 7.5t-109.5 26.5t-85.5 51t-53 83t-19.5 119v389q0 39 -2.5 62t-14 49.5t-33 40.5t-60.5 24.5t-96 11.5v115q48 1 82.5 6t57 17t35.5 24.5t19.5 36t8 43t1.5 53.5v338q0 92 28 155.5t82.5 98.5t124 49.5t163.5 14.5h96v-125h-80q-70 0 -114.5 -8
t-82 -30t-54.5 -66.5t-17 -114.5v-308q0 -95 -36 -155.5t-130 -83.5q49 -15 83 -41t51 -61.5t23.5 -71t6.5 -80.5v-344q0 -55 13.5 -92.5t34.5 -58.5t59.5 -32.5t74.5 -14.5t94 -3h76v-125h-94z" />
    <glyph glyph-name="bar" unicode="|" horiz-adv-x="606" 
d="M240 -240v1796h129v-1796h-129z" />
    <glyph glyph-name="braceright" unicode="}" horiz-adv-x="753" 
d="M121 -248h-94v125h75q58 0 94.5 3t75 14.5t59.5 32.5t34.5 58.5t13.5 92.5v344q0 45 6.5 80.5t23.5 71t51 61.5t83 41q-94 23 -130 83.5t-36 155.5v308q0 70 -17 114.5t-54.5 66.5t-82 30t-114.5 8h-80v125h96q94 0 163 -14.5t124 -49.5t82.5 -98.5t27.5 -155.5v-338
q0 -40 2.5 -63t13.5 -48t32.5 -37.5t60 -21.5t96.5 -10v-115q-48 -1 -83 -7.5t-57.5 -19.5t-36 -27t-20 -38t-8.5 -44t-2 -52v-389q0 -85 -28 -142.5t-84 -88.5t-124 -43.5t-163 -12.5z" />
    <glyph glyph-name="asciitilde" unicode="~" 
d="M1051 479q-60 0 -114 18.5t-94.5 44.5t-78 52t-79.5 44.5t-85 18.5q-158 0 -194 -161l-119 8q19 130 105 195t206 65q60 0 115 -18.5t96 -45t79.5 -53t81 -45t85.5 -18.5q74 0 121 43t71 137l109 -19q-26 -135 -110 -200.5t-195 -65.5z" />
    <glyph glyph-name="uni00A0" unicode="&#xa0;" horiz-adv-x="882" 
 />
    <glyph glyph-name="exclamdown" unicode="&#xa1;" horiz-adv-x="737" 
d="M487 969h-237v219h237v-219zM309 776h119l41 -1073h-203z" />
    <glyph glyph-name="cent" unicode="&#xa2;" horiz-adv-x="1603" 
d="M889 86q365 18 465 268l153 -24q-51 -162 -212.5 -257.5t-405.5 -109.5v-164h-109v162q-317 8 -505.5 157t-188.5 394t187.5 393.5t506.5 157.5v147h109v-149q515 -21 620 -381l-161 -23q-79 260 -459 281v-852zM246 512q0 -195 141.5 -307.5t392.5 -120.5v856
q-255 -8 -394.5 -119t-139.5 -309z" />
    <glyph glyph-name="sterling" unicode="&#xa3;" horiz-adv-x="1701" 
d="M1507 334l146 -27q-26 -166 -147.5 -259t-311.5 -93q-101 0 -318.5 35t-375.5 35q-201 0 -418 -39l-35 112q167 44 253.5 141t86.5 240q0 91 -31 205h-264v115h230q-31 98 -31 202q0 223 165.5 346t463.5 123q250 0 408 -91.5t208 -264.5l-156 -41q-38 127 -157 194.5
t-305 67.5q-459 0 -459 -329q0 -96 30 -207h637v-115h-602q27 -86 27 -174q0 -136 -63.5 -228.5t-194.5 -148.5q152 27 258 27q132 0 330 -28t313 -28q133 0 214.5 60t98.5 170z" />
    <glyph glyph-name="currency" unicode="&#xa4;" horiz-adv-x="1456" 
d="M1356 621q0 -179 -119 -304l133 -112l-82 -74l-137 115q-161 -105 -416 -105q-257 0 -422 109l-145 -121l-80 74l139 119q-114 123 -114 299t114 299l-141 120l82 74l145 -123q165 109 422 109q250 0 412 -103l141 119l82 -74l-135 -116q121 -124 121 -305zM252 621
q0 -162 129 -257.5t354 -95.5q224 0 351.5 95.5t127.5 257.5t-127.5 257t-351.5 95q-225 0 -354 -95t-129 -257z" />
    <glyph glyph-name="yen" unicode="&#xa5;" horiz-adv-x="1771" 
d="M1769 1423l-788 -829h586v-109h-604v-149h604v-109h-604v-227h-156v227h-604v109h604v149h-604v109h585l-786 829h197l477 -505q127 -134 207 -242h6q74 100 205 242l479 505h196z" />
    <glyph glyph-name="brokenbar" unicode="&#xa6;" horiz-adv-x="606" 
d="M367 1556v-774h-127v774h127zM367 535v-775h-127v775h127z" />
    <glyph glyph-name="section" unicode="&#xa7;" horiz-adv-x="1488" 
d="M1229 324q94 -79 94 -213q0 -182 -156 -276.5t-458 -94.5q-265 0 -418.5 78t-202.5 245l145 27q37 -116 155.5 -170.5t334.5 -54.5q226 0 337 56t111 171q0 87 -51 134t-168 69l-444 70q-228 37 -318 102t-90 199q0 156 158 237q-62 35 -89.5 88.5t-27.5 134.5
q0 162 150.5 250t425.5 88q248 0 399 -74t195 -219l-150 -32q-46 106 -154 154t-302 48q-414 0 -414 -208q0 -78 53.5 -117.5t190.5 -61.5l452 -67q193 -31 285 -108.5t92 -207.5q0 -159 -135 -247zM541 489l434 -67q67 -10 135 -35q102 57 102 166q0 90 -57 137t-194 70
l-457 71q-24 3 -92 17q-162 -48 -162 -176q0 -76 63 -116.5t228 -66.5z" />
    <glyph glyph-name="dieresis" unicode="&#xa8;" horiz-adv-x="1228" 
d="M104 1221v229h203v-229h-203zM754 1221v229h202v-229h-202z" />
    <glyph glyph-name="copyright" unicode="&#xa9;" horiz-adv-x="1957" 
d="M979 -51q-274 0 -478.5 91t-317.5 267.5t-113 419.5t113 419.5t317.5 267.5t478.5 91q273 0 477.5 -91t318 -268t113.5 -419t-113.5 -419t-318 -268t-477.5 -91zM979 35q240 0 422.5 82t284.5 239.5t102 370.5t-102 370.5t-284.5 239.5t-422.5 82t-423 -82t-285.5 -239.5
t-102.5 -370.5t102.5 -370.5t285.5 -239.5t423 -82zM999 291q-239 0 -381.5 118t-142.5 316q0 201 142 319.5t382 118.5q198 0 328.5 -76t145.5 -196l-132 -17q-15 83 -108 134t-234 51q-180 0 -284.5 -90t-104.5 -244q0 -151 105.5 -240.5t283.5 -89.5q131 0 226.5 49.5
t120.5 126.5l131 -10q-30 -118 -162.5 -194t-315.5 -76z" />
    <glyph glyph-name="ordfeminine" unicode="&#xaa;" horiz-adv-x="1273" 
d="M500 606q-175 0 -277 58.5t-102 164.5q0 51 20 90.5t53 64.5t83.5 42t103.5 25t121 12l456 29v14q0 213 -313 213q-303 0 -340 -180h-155q20 128 153.5 200t341.5 72q233 0 346 -81t113 -243v-192q0 -172 16 -260h-149q-8 86 -8 166q-52 -91 -172.5 -143t-290.5 -52z
M547 696q178 0 296 73t118 183v66l-414 -27q-155 -10 -215 -45.5t-60 -105.5q0 -69 73.5 -106.5t201.5 -37.5z" />
    <glyph glyph-name="guillemotleft" unicode="&#xab;" horiz-adv-x="1286" 
d="M569 137l-495 426l504 424h186l-492 -422l486 -428h-189zM1044 137l-495 426l504 424h186l-491 -422l485 -428h-189z" />
    <glyph glyph-name="logicalnot" unicode="&#xac;" 
d="M250 756h1139v-488h-144v344h-995v144z" />
    <glyph glyph-name="registered" unicode="&#xae;" horiz-adv-x="1957" 
d="M979 1505q273 0 477.5 -91t318 -268t113.5 -419t-113.5 -419t-318 -268t-477.5 -91q-274 0 -478.5 91t-317.5 267.5t-113 419.5t113 419.5t317.5 267.5t478.5 91zM979 35q240 0 422.5 82t284.5 239.5t102 370.5t-102 370.5t-284.5 239.5t-422.5 82t-423 -82
t-285.5 -239.5t-102.5 -370.5t102.5 -370.5t285.5 -239.5t423 -82zM1458 907q0 -93 -56.5 -155.5t-164.5 -85.5l254 -347h-152l-235 340h-377v-340h-127v832h539q156 0 237.5 -63.5t81.5 -180.5zM727 1051v-293h395q108 0 157.5 36t49.5 113q0 72 -48 108t-153 36h-401z" />
    <glyph glyph-name="macron" unicode="&#xaf;" horiz-adv-x="1228" 
d="M102 1260v110h932v-110h-932z" />
    <glyph glyph-name="degree" unicode="&#xb0;" horiz-adv-x="1007" 
d="M504 623q-185 0 -305.5 116t-120.5 305t121 306.5t305 117.5q183 0 304.5 -117.5t121.5 -306.5t-121.5 -305t-304.5 -116zM504 748q125 0 204.5 82.5t79.5 213.5q0 133 -79.5 216t-204.5 83t-206 -84t-81 -215t81 -213.5t206 -82.5z" />
    <glyph glyph-name="plusminus" unicode="&#xb1;" 
d="M897 739h502v-131h-502v-338h-152v338h-497v131h497v340h152v-340zM248 0v141h1151v-141h-1151z" />
    <glyph glyph-name="acute" unicode="&#xb4;" horiz-adv-x="1228" 
d="M100 1188l338 307h205l-369 -307h-174z" />
    <glyph glyph-name="uni00B5" unicode="&#xb5;" horiz-adv-x="1779" 
d="M1399 1024h151v-1024h-149v295q-68 -164 -222 -249t-370 -85q-302 0 -447 148v-508h-133v1423h150v-510q0 -100 27.5 -177t70.5 -123t104.5 -74.5t121 -39t128.5 -10.5q118 0 216 29.5t162 77.5t108 110.5t63 126.5t19 129v461z" />
    <glyph glyph-name="paragraph" unicode="&#xb6;" horiz-adv-x="1921" 
d="M813 739q-326 0 -490.5 88t-164.5 277q0 184 168.5 277.5t496.5 93.5h901v-109h-292v-1571h-134v1571h-352v-1571h-133v944z" />
    <glyph glyph-name="periodcentered" unicode="&#xb7;" horiz-adv-x="638" 
d="M438 815v-225h-237v225h237z" />
    <glyph glyph-name="cedilla" unicode="&#xb8;" horiz-adv-x="1228" 
d="M266 12h105l-92 -123q45 31 127 31q97 0 153.5 -40.5t56.5 -110.5q0 -77 -72.5 -126t-187.5 -49q-93 0 -160.5 33t-93.5 92l111 21q37 -62 143 -62q65 0 100.5 22.5t35.5 63.5t-32.5 63.5t-92.5 22.5q-79 0 -131 -34l-82 22z" />
    <glyph glyph-name="ordmasculine" unicode="&#xba;" horiz-adv-x="1241" 
d="M621 606q-243 0 -390 110.5t-147 293.5q0 181 147 291t390 110t389.5 -109.5t146.5 -291.5q0 -183 -146.5 -293.5t-389.5 -110.5zM621 709q174 0 280.5 82t106.5 219q0 136 -106.5 217.5t-280.5 81.5t-279.5 -81.5t-105.5 -217.5q0 -137 105.5 -219t279.5 -82z" />
    <glyph glyph-name="guillemotright" unicode="&#xbb;" horiz-adv-x="1286" 
d="M242 137h-189l486 428l-492 422h186l504 -424zM717 137h-189l486 428l-492 422h187l503 -424z" />
    <glyph glyph-name="onequarter" unicode="&#xbc;" horiz-adv-x="2056" 
d="M195 -35l1208 1524h166l-1211 -1524h-163zM328 664v618q-36 -51 -99 -75.5t-131 -24.5h-43v116h25q98 0 173 41.5t99 116.5h119v-792h-143zM2015 193h-231v-193h-142v193h-634v90l626 510h150v-508h231v-92zM1642 690l-501 -405h501v405z" />
    <glyph glyph-name="onehalf" unicode="&#xbd;" horiz-adv-x="2138" 
d="M195 -35l1208 1524h166l-1211 -1524h-163zM328 664v618q-36 -51 -99 -75.5t-131 -24.5h-43v116h25q98 0 173 41.5t99 116.5h119v-792h-143zM1188 0v88q316 141 414 194q201 109 248 207q16 35 16 72q0 71 -68.5 115.5t-189.5 44.5q-52 0 -96.5 -8t-85 -26t-64 -52
t-23.5 -82q0 -21 2 -35l-143 10q-2 12 -2 39q0 86 59 144.5t148.5 83t202.5 24.5q119 0 207.5 -23.5t145 -79.5t56.5 -141q0 -44 -20 -87t-51 -79t-82 -73.5t-98.5 -66t-115.5 -62t-118 -55.5t-121 -52h629v-100h-850z" />
    <glyph glyph-name="threequarters" unicode="&#xbe;" horiz-adv-x="2455" 
d="M594 -35l1208 1524h166l-1210 -1524h-164zM522 635q-199 0 -316.5 74.5t-119.5 199.5l143 9q1 -86 80 -135.5t213 -49.5q129 0 212 38t83 116q0 66 -64.5 99.5t-224.5 33.5h-94v98h92q271 0 271 125q0 69 -77 105t-200 36q-137 0 -211.5 -46t-75.5 -136l-143 6
q2 127 116.5 201t315.5 74q189 0 304.5 -57.5t115.5 -170.5q0 -46 -21 -80t-57 -54t-77 -31t-89 -15q128 -8 197.5 -55.5t69.5 -130.5q0 -123 -123 -188.5t-320 -65.5zM2415 193h-232v-193h-141v193h-635v90l627 510h149v-508h232v-92zM2042 690l-502 -405h502v405z" />
    <glyph glyph-name="questiondown" unicode="&#xbf;" horiz-adv-x="1488" 
d="M891 1188v-219h-221v219h221zM866 840v-84q0 -202 -223 -287l-176 -72q-53 -23 -87.5 -44t-67 -53t-48.5 -77.5t-16 -105.5q0 -124 127.5 -211.5t347.5 -87.5q247 0 389.5 94t142.5 264q0 66 -16 111l170 -19q16 -44 16 -102q0 -220 -186 -351.5t-518 -131.5
q-157 0 -281.5 34t-202 93t-118.5 135.5t-41 165.5q0 70 17 127.5t43.5 97t69 73t81.5 54t94 43.5l168 69q79 33 113 77.5t34 117.5v70h168z" />
    <glyph glyph-name="Agrave" unicode="&#xc0;" horiz-adv-x="1900" 
d="M1020 1556h-182l-342 216h204zM1673 0l-188 340h-1069l-189 -340h-182l821 1454h168l824 -1454h-185zM496 483h909l-270 488q-62 110 -83.5 148.5t-50 97.5t-49.5 114h-4q-28 -80 -64 -149.5t-118 -210.5z" />
    <glyph glyph-name="Aacute" unicode="&#xc1;" horiz-adv-x="1900" 
d="M1382 1772l-342 -216h-182l320 216h204zM1673 0l-188 340h-1069l-189 -340h-182l821 1454h168l824 -1454h-185zM496 483h909l-270 488q-62 110 -83.5 148.5t-50 97.5t-49.5 114h-4q-28 -80 -64 -149.5t-118 -210.5z" />
    <glyph glyph-name="Acircumflex" unicode="&#xc2;" horiz-adv-x="1900" 
d="M950 1704l-221 -148h-186l313 216h186l314 -216h-187zM1673 0l-188 340h-1069l-189 -340h-182l821 1454h168l824 -1454h-185zM496 483h909l-270 488q-62 110 -83.5 148.5t-50 97.5t-49.5 114h-4q-28 -80 -64 -149.5t-118 -210.5z" />
    <glyph glyph-name="Atilde" unicode="&#xc3;" horiz-adv-x="1900" 
d="M756 1675q-60 0 -99 -29t-49 -83l-114 16q19 100 88 153.5t178 53.5q62 0 118.5 -20t91 -43.5t81.5 -43.5t94 -20q59 0 97 29.5t48 83.5l115 -17q-19 -100 -87.5 -154.5t-178.5 -54.5q-51 0 -97 13.5t-79 32t-64.5 37.5t-68 32.5t-74.5 13.5zM1673 0l-188 340h-1069
l-189 -340h-182l821 1454h168l824 -1454h-185zM496 483h909l-270 488q-62 110 -83.5 148.5t-50 97.5t-49.5 114h-4q-28 -80 -64 -149.5t-118 -210.5z" />
    <glyph glyph-name="Adieresis" unicode="&#xc4;" horiz-adv-x="1900" 
d="M731 1772v-216h-203v216h203zM1370 1772v-216h-203v216h203zM1673 0l-188 340h-1069l-189 -340h-182l821 1454h168l824 -1454h-185zM496 483h909l-270 488q-62 110 -83.5 148.5t-50 97.5t-49.5 114h-4q-28 -80 -64 -149.5t-118 -210.5z" />
    <glyph glyph-name="Aring" unicode="&#xc5;" horiz-adv-x="1900" 
d="M948 1511q-98 0 -158.5 57t-60.5 148t60.5 148t158.5 57t158.5 -57t60.5 -148t-60.5 -148t-158.5 -57zM948 1835q-52 0 -84.5 -33t-32.5 -86q0 -51 32.5 -84t84.5 -33t83.5 32.5t31.5 84.5q0 53 -31.5 86t-83.5 33zM1673 0l-188 340h-1069l-189 -340h-182l821 1454h168
l824 -1454h-185zM496 483h909l-270 488q-62 110 -83.5 148.5t-50 97.5t-49.5 114h-4q-28 -80 -64 -149.5t-118 -210.5z" />
    <glyph glyph-name="AE" unicode="&#xc6;" horiz-adv-x="3121" 
d="M1638 143h1311v-143h-1479v328h-950l-323 -328h-207l1458 1454h1487v-143h-1297v-494h1262v-143h-1262v-531zM659 471h811v823z" />
    <glyph glyph-name="Ccedilla" unicode="&#xc7;" horiz-adv-x="1945" 
d="M1004 90q263 0 435 99t244 290l170 -26q-87 -235 -288.5 -363.5t-507.5 -138.5l-49 -66q45 31 127 31q97 0 154 -41t57 -111q0 -77 -73 -125.5t-188 -48.5q-93 0 -160.5 33t-93.5 92l111 21q37 -62 143 -62q65 0 100.5 22.5t35.5 63.5t-32.5 63.5t-92.5 22.5
q-79 0 -131 -34l-82 22l73 115q-407 9 -646.5 220.5t-239.5 557.5q0 231 116.5 408t329 273.5t490.5 96.5q340 0 560.5 -142.5t288.5 -404.5l-178 -16q-57 203 -234 312.5t-448 109.5q-347 0 -549 -171.5t-202 -463.5q0 -286 209 -462.5t551 -176.5z" />
    <glyph glyph-name="Egrave" unicode="&#xc8;" horiz-adv-x="1800" 
d="M1038 1556h-182l-342 216h205zM418 143h1210v-143h-1378v1454h1364v-143h-1196v-494h1161v-143h-1161v-531z" />
    <glyph glyph-name="Eacute" unicode="&#xc9;" horiz-adv-x="1800" 
d="M1401 1772l-342 -216h-182l319 216h205zM418 143h1210v-143h-1378v1454h1364v-143h-1196v-494h1161v-143h-1161v-531z" />
    <glyph glyph-name="Ecircumflex" unicode="&#xca;" horiz-adv-x="1800" 
d="M969 1704l-221 -148h-187l313 216h187l313 -216h-186zM418 143h1210v-143h-1378v1454h1364v-143h-1196v-494h1161v-143h-1161v-531z" />
    <glyph glyph-name="Edieresis" unicode="&#xcb;" horiz-adv-x="1800" 
d="M750 1772v-216h-203v216h203zM1389 1772v-216h-203v216h203zM418 143h1210v-143h-1378v1454h1364v-143h-1196v-494h1161v-143h-1161v-531z" />
    <glyph glyph-name="Igrave" unicode="&#xcc;" horiz-adv-x="667" 
d="M416 1556h-172l-209 216h186zM418 0h-168v1454h168v-1454z" />
    <glyph glyph-name="Iacute" unicode="&#xcd;" horiz-adv-x="667" 
d="M248 1556l194 216h187l-209 -216h-172zM418 0h-168v1454h168v-1454z" />
    <glyph glyph-name="Icircumflex" unicode="&#xce;" horiz-adv-x="667" 
d="M614 1559h-163l-119 145l-117 -145h-164l189 213h184zM418 0h-168v1454h168v-1454z" />
    <glyph glyph-name="Idieresis" unicode="&#xcf;" horiz-adv-x="667" 
d="M66 1556v216h202v-216h-202zM399 1556v216h203v-216h-203zM418 0h-168v1454h168v-1454z" />
    <glyph glyph-name="Eth" unicode="&#xd0;" horiz-adv-x="2009" 
d="M1061 1454q194 0 354 -44.5t276.5 -130.5t181 -220.5t64.5 -306.5q0 -174 -66 -316.5t-183 -237.5t-276.5 -146.5t-346.5 -51.5h-817v690h-207v129h207v635h813zM1073 143q322 0 506 158t184 451q0 142 -53 250t-149.5 175t-226.5 100.5t-290 33.5h-626v-492h669v-129
h-669v-547h655z" />
    <glyph glyph-name="Ntilde" unicode="&#xd1;" horiz-adv-x="2074" 
d="M1227 1546q-51 0 -97 13.5t-79 32t-64.5 37.5t-68 32.5t-74.5 13.5q-60 0 -99 -29t-49 -83l-114 16q19 100 88 153.5t178 53.5q62 0 118.5 -20t91 -43.5t81.5 -43.5t94 -20q59 0 97 29.5t48 83.5l115 -17q-19 -100 -87.5 -154.5t-178.5 -54.5zM250 0v1454h209l1110 -1147
q74 -74 98 -129h4v164v1112h154v-1454h-183l-1136 1174q-67 67 -96 124h-7v-153v-1145h-153z" />
    <glyph glyph-name="Ograve" unicode="&#xd2;" horiz-adv-x="2023" 
d="M1081 1556h-182l-342 216h205zM1012 -51q-275 0 -488.5 96t-333.5 273.5t-120 408.5t120 408.5t333.5 273.5t488.5 96q274 0 487.5 -96t334 -273.5t120.5 -408.5t-120.5 -408.5t-334 -273.5t-487.5 -96zM1012 90q223 0 397 79t271.5 224t97.5 334t-97.5 334t-271.5 224
t-397 79t-397 -79t-271.5 -224t-97.5 -334t97.5 -334t271.5 -224t397 -79z" />
    <glyph glyph-name="Oacute" unicode="&#xd3;" horiz-adv-x="2023" 
d="M920 1556l319 216h205l-342 -216h-182zM1012 -51q-275 0 -488.5 96t-333.5 273.5t-120 408.5t120 408.5t333.5 273.5t488.5 96q274 0 487.5 -96t334 -273.5t120.5 -408.5t-120.5 -408.5t-334 -273.5t-487.5 -96zM1012 90q223 0 397 79t271.5 224t97.5 334t-97.5 334
t-271.5 224t-397 79t-397 -79t-271.5 -224t-97.5 -334t97.5 -334t271.5 -224t397 -79z" />
    <glyph glyph-name="Ocircumflex" unicode="&#xd4;" horiz-adv-x="2023" 
d="M1417 1556h-186l-219 148l-221 -148h-187l314 216h186zM1012 -51q-275 0 -488.5 96t-333.5 273.5t-120 408.5t120 408.5t333.5 273.5t488.5 96q274 0 487.5 -96t334 -273.5t120.5 -408.5t-120.5 -408.5t-334 -273.5t-487.5 -96zM1012 90q223 0 397 79t271.5 224t97.5 334
t-97.5 334t-271.5 224t-397 79t-397 -79t-271.5 -224t-97.5 -334t97.5 -334t271.5 -224t397 -79z" />
    <glyph glyph-name="Otilde" unicode="&#xd5;" horiz-adv-x="2023" 
d="M1200 1546q-51 0 -97 13.5t-79 32t-64.5 37.5t-68 32.5t-74.5 13.5q-60 0 -98.5 -29t-48.5 -83l-115 16q19 100 88 153.5t178 53.5q62 0 118.5 -20t91 -43.5t81.5 -43.5t94 -20q59 0 97.5 29.5t48.5 83.5l114 -17q-19 -100 -87.5 -154.5t-178.5 -54.5zM1012 -51
q-275 0 -488.5 96t-333.5 273.5t-120 408.5t120 408.5t333.5 273.5t488.5 96q274 0 487.5 -96t334 -273.5t120.5 -408.5t-120.5 -408.5t-334 -273.5t-487.5 -96zM1012 90q223 0 397 79t271.5 224t97.5 334t-97.5 334t-271.5 224t-397 79t-397 -79t-271.5 -224t-97.5 -334
t97.5 -334t271.5 -224t397 -79z" />
    <glyph glyph-name="Odieresis" unicode="&#xd6;" horiz-adv-x="2023" 
d="M590 1556v216h203v-216h-203zM1229 1556v216h203v-216h-203zM1012 -51q-275 0 -488.5 96t-333.5 273.5t-120 408.5t120 408.5t333.5 273.5t488.5 96q274 0 487.5 -96t334 -273.5t120.5 -408.5t-120.5 -408.5t-334 -273.5t-487.5 -96zM1012 90q223 0 397 79t271.5 224
t97.5 334t-97.5 334t-271.5 224t-397 79t-397 -79t-271.5 -224t-97.5 -334t97.5 -334t271.5 -224t397 -79z" />
    <glyph glyph-name="multiply" unicode="&#xd7;" 
d="M1386 1061l-458 -391l458 -391l-98 -97l-465 398l-465 -398l-98 97l457 391l-459 391l100 96l465 -397l463 397z" />
    <glyph glyph-name="Oslash" unicode="&#xd8;" horiz-adv-x="2023" 
d="M1737 1251q217 -211 217 -524q0 -231 -120.5 -408.5t-334 -273.5t-487.5 -96q-372 0 -623 172l-186 -158l-90 94l174 146q-217 211 -217 524q0 231 120 408.5t333.5 273.5t488.5 96q371 0 622 -172l185 154l92 -90zM246 727q0 -249 166 -418l1097 920q-203 135 -497 135
q-223 0 -397 -79t-271.5 -224t-97.5 -334zM1012 90q223 0 397 79t271.5 224t97.5 334q0 249 -166 418l-1098 -920q206 -135 498 -135z" />
    <glyph glyph-name="Ugrave" unicode="&#xd9;" horiz-adv-x="1976" 
d="M1059 1556h-182l-342 216h204zM190 1454h168v-792q0 -119 43 -222.5t121.5 -181t199 -122t267.5 -44.5q145 0 264.5 44.5t198.5 122t121.5 181.5t42.5 222v792h170v-797q0 -154 -53.5 -283.5t-153 -224t-251 -147.5t-339.5 -53q-190 0 -342 53t-251.5 147.5t-152.5 224
t-53 283.5v797z" />
    <glyph glyph-name="Uacute" unicode="&#xda;" horiz-adv-x="1976" 
d="M897 1556l320 216h204l-342 -216h-182zM190 1454h168v-792q0 -119 43 -222.5t121.5 -181t199 -122t267.5 -44.5q145 0 264.5 44.5t198.5 122t121.5 181.5t42.5 222v792h170v-797q0 -154 -53.5 -283.5t-153 -224t-251 -147.5t-339.5 -53q-190 0 -342 53t-251.5 147.5
t-152.5 224t-53 283.5v797z" />
    <glyph glyph-name="Ucircumflex" unicode="&#xdb;" horiz-adv-x="1976" 
d="M1395 1556h-187l-219 148l-221 -148h-186l313 216h186zM190 1454h168v-792q0 -119 43 -222.5t121.5 -181t199 -122t267.5 -44.5q145 0 264.5 44.5t198.5 122t121.5 181.5t42.5 222v792h170v-797q0 -154 -53.5 -283.5t-153 -224t-251 -147.5t-339.5 -53q-190 0 -342 53
t-251.5 147.5t-152.5 224t-53 283.5v797z" />
    <glyph glyph-name="Udieresis" unicode="&#xdc;" horiz-adv-x="1976" 
d="M567 1556v216h203v-216h-203zM1206 1556v216h203v-216h-203zM190 1454h168v-792q0 -119 43 -222.5t121.5 -181t199 -122t267.5 -44.5q145 0 264.5 44.5t198.5 122t121.5 181.5t42.5 222v792h170v-797q0 -154 -53.5 -283.5t-153 -224t-251 -147.5t-339.5 -53
q-190 0 -342 53t-251.5 147.5t-152.5 224t-53 283.5v797z" />
    <glyph glyph-name="Yacute" unicode="&#xdd;" horiz-adv-x="1720" 
d="M768 1556l319 216h205l-342 -216h-182zM768 0v532l-766 922h213l584 -706q45 -52 55 -84h4q11 37 55 84l590 706h215l-780 -922v-532h-170z" />
    <glyph glyph-name="Thorn" unicode="&#xde;" horiz-adv-x="1642" 
d="M1073 1210q237 0 372.5 -120t135.5 -326q0 -208 -135.5 -328.5t-372.5 -120.5h-655v-315h-170v1454h170v-244h655zM1057 457q167 0 255.5 81t88.5 226q0 143 -88.5 223t-255.5 80h-639v-610h639z" />
    <glyph glyph-name="germandbls" unicode="&#xdf;" horiz-adv-x="1779" 
d="M233 977q0 254 178 392t509 138q296 0 469.5 -107t173.5 -292q0 -130 -89.5 -215.5t-252.5 -110.5q210 -22 323 -119.5t113 -256.5q0 -216 -175 -325.5t-507 -109.5q-162 0 -359 37v123q170 -39 345 -39q276 0 409 74t133 231q0 314 -549 314h-315v118h276
q246 0 365 67.5t119 207.5q0 137 -124 209.5t-357 72.5q-271 0 -402 -102.5t-131 -318.5v-965h-152v977z" />
    <glyph glyph-name="agrave" unicode="&#xe0;" horiz-adv-x="1658" 
d="M928 1188h-174l-369 307h205zM637 -39q-233 0 -370.5 80t-137.5 223q0 139 98 215q58 45 152 72t276 37l660 41v20q0 140 -121 215.5t-348 75.5q-223 0 -354.5 -63.5t-157.5 -188.5h-166q25 171 206.5 273t471.5 102q306 0 463 -108.5t157 -317.5v-260q0 -220 23 -377
h-158q-14 95 -14 231q-90 -136 -256.5 -203t-423.5 -67zM684 80q183 0 326.5 45.5t225 130t81.5 195.5v65l-629 -39q-155 -10 -242 -35t-122 -66.5t-35 -109.5q0 -93 101.5 -139.5t293.5 -46.5z" />
    <glyph glyph-name="aacute" unicode="&#xe1;" horiz-adv-x="1658" 
d="M752 1188l338 307h204l-368 -307h-174zM637 -39q-233 0 -370.5 80t-137.5 223q0 139 98 215q58 45 152 72t276 37l660 41v20q0 140 -121 215.5t-348 75.5q-223 0 -354.5 -63.5t-157.5 -188.5h-166q25 171 206.5 273t471.5 102q306 0 463 -108.5t157 -317.5v-260
q0 -220 23 -377h-158q-14 95 -14 231q-90 -136 -256.5 -203t-423.5 -67zM684 80q183 0 326.5 45.5t225 130t81.5 195.5v65l-629 -39q-155 -10 -242 -35t-122 -66.5t-35 -109.5q0 -93 101.5 -139.5t293.5 -46.5z" />
    <glyph glyph-name="acircumflex" unicode="&#xe2;" horiz-adv-x="1658" 
d="M1274 1188h-164l-270 237l-271 -237h-163l342 307h182zM637 -39q-233 0 -370.5 80t-137.5 223q0 139 98 215q58 45 152 72t276 37l660 41v20q0 140 -121 215.5t-348 75.5q-223 0 -354.5 -63.5t-157.5 -188.5h-166q25 171 206.5 273t471.5 102q306 0 463 -108.5
t157 -317.5v-260q0 -220 23 -377h-158q-14 95 -14 231q-90 -136 -256.5 -203t-423.5 -67zM684 80q183 0 326.5 45.5t225 130t81.5 195.5v65l-629 -39q-155 -10 -242 -35t-122 -66.5t-35 -109.5q0 -93 101.5 -139.5t293.5 -46.5z" />
    <glyph glyph-name="atilde" unicode="&#xe3;" horiz-adv-x="1658" 
d="M1051 1198q-57 0 -107.5 15.5t-87.5 37.5t-71 44t-74.5 37.5t-83.5 15.5q-66 0 -110 -35.5t-54 -98.5l-115 17q19 109 93 168t192 59q57 0 107 -15t87 -37t71 -43.5t74.5 -36.5t82.5 -15q68 0 112 35t54 98l114 -19q-20 -108 -94 -167.5t-190 -59.5zM637 -39
q-233 0 -370.5 80t-137.5 223q0 139 98 215q58 45 152 72t276 37l660 41v20q0 140 -121 215.5t-348 75.5q-223 0 -354.5 -63.5t-157.5 -188.5h-166q25 171 206.5 273t471.5 102q306 0 463 -108.5t157 -317.5v-260q0 -220 23 -377h-158q-14 95 -14 231q-90 -136 -256.5 -203
t-423.5 -67zM684 80q183 0 326.5 45.5t225 130t81.5 195.5v65l-629 -39q-155 -10 -242 -35t-122 -66.5t-35 -109.5q0 -93 101.5 -139.5t293.5 -46.5z" />
    <glyph glyph-name="adieresis" unicode="&#xe4;" horiz-adv-x="1658" 
d="M414 1221v229h202v-229h-202zM1063 1221v229h203v-229h-203zM637 -39q-233 0 -370.5 80t-137.5 223q0 139 98 215q58 45 152 72t276 37l660 41v20q0 140 -121 215.5t-348 75.5q-223 0 -354.5 -63.5t-157.5 -188.5h-166q25 171 206.5 273t471.5 102q306 0 463 -108.5
t157 -317.5v-260q0 -220 23 -377h-158q-14 95 -14 231q-90 -136 -256.5 -203t-423.5 -67zM684 80q183 0 326.5 45.5t225 130t81.5 195.5v65l-629 -39q-155 -10 -242 -35t-122 -66.5t-35 -109.5q0 -93 101.5 -139.5t293.5 -46.5z" />
    <glyph glyph-name="aring" unicode="&#xe5;" horiz-adv-x="1658" 
d="M840 1145q-144 0 -228 55.5t-84 149.5q0 93 84 147.5t228 54.5t227.5 -54.5t83.5 -147.5q0 -94 -83.5 -149.5t-227.5 -55.5zM840 1225q99 0 154 33.5t55 91.5q0 57 -55.5 91t-153.5 34t-154.5 -34.5t-56.5 -90.5q0 -58 56 -91.5t155 -33.5zM637 -39q-233 0 -370.5 80
t-137.5 223q0 139 98 215q58 45 152 72t276 37l660 41v20q0 140 -121 215.5t-348 75.5q-223 0 -354.5 -63.5t-157.5 -188.5h-166q25 171 206.5 273t471.5 102q306 0 463 -108.5t157 -317.5v-260q0 -220 23 -377h-158q-14 95 -14 231q-90 -136 -256.5 -203t-423.5 -67z
M684 80q183 0 326.5 45.5t225 130t81.5 195.5v65l-629 -39q-155 -10 -242 -35t-122 -66.5t-35 -109.5q0 -93 101.5 -139.5t293.5 -46.5z" />
    <glyph glyph-name="ae" unicode="&#xe6;" horiz-adv-x="2717" 
d="M2607 539v-66h-1175q9 -179 144.5 -280t375.5 -101q371 0 508 240l131 -62q-178 -309 -639 -309q-228 0 -390.5 79t-234.5 224q-184 -303 -686 -303q-245 0 -378.5 78t-133.5 223t124.5 219.5t381.5 81.5l637 21v53q0 154 -107 226.5t-336 72.5q-226 0 -354 -68
t-145 -198h-162q29 187 204.5 290t461.5 103q416 0 542 -225q84 111 228.5 168t332.5 57q311 0 490.5 -139.5t179.5 -384.5zM2447 594v2q-1 108 -70.5 188.5t-183.5 121t-256 40.5q-218 0 -356.5 -95.5t-148.5 -256.5h1015zM1274 436v39l-637 -22q-181 -6 -264.5 -51
t-83.5 -136q0 -182 373 -182q173 0 313 45t219.5 125.5t79.5 181.5z" />
    <glyph glyph-name="ccedilla" unicode="&#xe7;" horiz-adv-x="1568" 
d="M799 92q405 0 516 262l158 -22q-51 -167 -215.5 -263.5t-411.5 -105.5l-55 -74q45 31 127 31q97 0 153.5 -40.5t56.5 -110.5q0 -77 -72.5 -126t-187.5 -49q-93 0 -160.5 33t-93.5 92l111 21q37 -62 143 -62q65 0 100.5 22.5t35.5 63.5t-32.5 63.5t-92.5 22.5
q-79 0 -131 -34l-82 22l79 123q-302 12 -480.5 160.5t-178.5 390.5q0 253 194.5 402t522.5 149q559 0 672 -383l-168 -23q-88 275 -512 275q-261 0 -405 -109.5t-144 -310.5q0 -196 147.5 -308t405.5 -112z" />
    <glyph glyph-name="egrave" unicode="&#xe8;" horiz-adv-x="1609" 
d="M891 1188h-174l-369 307h205zM1499 535v-64h-1255q9 -179 155 -279t406 -100q402 0 547 238l131 -64q-187 -305 -678 -305q-331 0 -525 144.5t-194 396.5q0 181 90.5 309t246.5 190t365 62q330 0 520.5 -140.5t190.5 -387.5zM244 590h1095q-1 111 -75.5 193t-198 122.5
t-277.5 40.5q-233 0 -382.5 -96.5t-161.5 -259.5z" />
    <glyph glyph-name="eacute" unicode="&#xe9;" horiz-adv-x="1609" 
d="M1257 1495l-368 -307h-174l338 307h204zM1499 535v-64h-1255q9 -179 155 -279t406 -100q402 0 547 238l131 -64q-187 -305 -678 -305q-331 0 -525 144.5t-194 396.5q0 181 90.5 309t246.5 190t365 62q330 0 520.5 -140.5t190.5 -387.5zM244 590h1095q-1 111 -75.5 193
t-198 122.5t-277.5 40.5q-233 0 -382.5 -96.5t-161.5 -259.5z" />
    <glyph glyph-name="ecircumflex" unicode="&#xea;" horiz-adv-x="1609" 
d="M803 1425l-271 -237h-163l342 307h182l344 -307h-164zM1499 535v-64h-1255q9 -179 155 -279t406 -100q402 0 547 238l131 -64q-187 -305 -678 -305q-331 0 -525 144.5t-194 396.5q0 181 90.5 309t246.5 190t365 62q330 0 520.5 -140.5t190.5 -387.5zM244 590h1095
q-1 111 -75.5 193t-198 122.5t-277.5 40.5q-233 0 -382.5 -96.5t-161.5 -259.5z" />
    <glyph glyph-name="edieresis" unicode="&#xeb;" horiz-adv-x="1609" 
d="M580 1450v-229h-203v229h203zM1229 1450v-229h-203v229h203zM1499 535v-64h-1255q9 -179 155 -279t406 -100q402 0 547 238l131 -64q-187 -305 -678 -305q-331 0 -525 144.5t-194 396.5q0 181 90.5 309t246.5 190t365 62q330 0 520.5 -140.5t190.5 -387.5zM244 590h1095
q-1 111 -75.5 193t-198 122.5t-277.5 40.5q-233 0 -382.5 -96.5t-161.5 -259.5z" />
    <glyph glyph-name="igrave" unicode="&#xec;" horiz-adv-x="608" 
d="M379 1188h-152l-202 307h163zM229 0v1024h152v-1024h-152z" />
    <glyph glyph-name="iacute" unicode="&#xed;" horiz-adv-x="608" 
d="M229 1188l191 307h164l-203 -307h-152zM229 0v1024h152v-1024h-152z" />
    <glyph glyph-name="icircumflex" unicode="&#xee;" horiz-adv-x="608" 
d="M545 1188h-133l-107 235l-108 -235h-131l159 311h158zM229 0v1024h152v-1024h-152z" />
    <glyph glyph-name="idieresis" unicode="&#xef;" horiz-adv-x="608" 
d="M41 1221v231h203v-231h-203zM369 1221v231h202v-231h-202zM229 0v1024h152v-1024h-152z" />
    <glyph glyph-name="eth" unicode="&#xf0;" horiz-adv-x="1714" 
d="M1243 1221q299 -256 299 -680q0 -270 -195 -425t-536 -155q-339 0 -529 144t-190 393q0 245 191.5 391.5t525.5 146.5q192 0 335.5 -68.5t223.5 -195.5h4q-38 240 -297 420l-491 -86l-29 92l395 70q-156 80 -342 125l76 108q267 -79 455 -201l286 50l31 -93zM811 94
q269 0 424.5 108.5t155.5 295.5q0 191 -157 302t-423 111q-269 0 -414 -109.5t-145 -303.5q0 -188 146.5 -296t412.5 -108z" />
    <glyph glyph-name="ntilde" unicode="&#xf1;" horiz-adv-x="1753" 
d="M1174 1198q-57 0 -107.5 15.5t-87.5 37.5t-71 44t-74.5 37.5t-83.5 15.5q-66 0 -110 -35.5t-54 -98.5l-115 17q19 109 93 168t192 59q57 0 107 -15t87 -37t71 -43.5t74.5 -36.5t82.5 -15q68 0 111.5 35t53.5 98l115 -19q-20 -108 -94 -167.5t-190 -59.5zM229 0v1024h150
v-270q76 152 227.5 230.5t368.5 78.5q293 0 446.5 -142t153.5 -415v-506h-152v465q0 465 -483 465q-255 0 -407 -125t-152 -336v-469h-152z" />
    <glyph glyph-name="ograve" unicode="&#xf2;" horiz-adv-x="1611" 
d="M893 1188h-174l-369 307h205zM805 -39q-211 0 -374.5 68.5t-254 194t-90.5 288.5t90.5 288.5t254 194t374.5 68.5q212 0 376 -68.5t254.5 -194t90.5 -288.5t-90.5 -288.5t-254.5 -194t-376 -68.5zM805 92q256 0 408.5 113.5t152.5 306.5t-152.5 306.5t-408.5 113.5
q-254 0 -406.5 -113.5t-152.5 -306.5t152.5 -306.5t406.5 -113.5z" />
    <glyph glyph-name="oacute" unicode="&#xf3;" horiz-adv-x="1611" 
d="M717 1188l338 307h205l-369 -307h-174zM805 -39q-211 0 -374.5 68.5t-254 194t-90.5 288.5t90.5 288.5t254 194t374.5 68.5q212 0 376 -68.5t254.5 -194t90.5 -288.5t-90.5 -288.5t-254.5 -194t-376 -68.5zM805 92q256 0 408.5 113.5t152.5 306.5t-152.5 306.5
t-408.5 113.5q-254 0 -406.5 -113.5t-152.5 -306.5t152.5 -306.5t406.5 -113.5z" />
    <glyph glyph-name="ocircumflex" unicode="&#xf4;" horiz-adv-x="1611" 
d="M1239 1188h-164l-270 237l-270 -237h-164l342 307h182zM805 -39q-211 0 -374.5 68.5t-254 194t-90.5 288.5t90.5 288.5t254 194t374.5 68.5q212 0 376 -68.5t254.5 -194t90.5 -288.5t-90.5 -288.5t-254.5 -194t-376 -68.5zM805 92q256 0 408.5 113.5t152.5 306.5
t-152.5 306.5t-408.5 113.5q-254 0 -406.5 -113.5t-152.5 -306.5t152.5 -306.5t406.5 -113.5z" />
    <glyph glyph-name="otilde" unicode="&#xf5;" horiz-adv-x="1611" 
d="M1016 1198q-57 0 -107.5 15.5t-87.5 37.5t-71 44t-74.5 37.5t-83.5 15.5q-66 0 -110 -35.5t-54 -98.5l-115 17q19 109 93 168t192 59q57 0 107 -15t87 -37t71 -43.5t74.5 -36.5t82.5 -15q68 0 112 35t54 98l114 -19q-20 -108 -94 -167.5t-190 -59.5zM805 -39
q-211 0 -374.5 68.5t-254 194t-90.5 288.5t90.5 288.5t254 194t374.5 68.5q212 0 376 -68.5t254.5 -194t90.5 -288.5t-90.5 -288.5t-254.5 -194t-376 -68.5zM805 92q256 0 408.5 113.5t152.5 306.5t-152.5 306.5t-408.5 113.5q-254 0 -406.5 -113.5t-152.5 -306.5
t152.5 -306.5t406.5 -113.5z" />
    <glyph glyph-name="odieresis" unicode="&#xf6;" horiz-adv-x="1611" 
d="M379 1221v229h203v-229h-203zM1028 1221v229h203v-229h-203zM805 -39q-211 0 -374.5 68.5t-254 194t-90.5 288.5t90.5 288.5t254 194t374.5 68.5q212 0 376 -68.5t254.5 -194t90.5 -288.5t-90.5 -288.5t-254.5 -194t-376 -68.5zM805 92q256 0 408.5 113.5t152.5 306.5
t-152.5 306.5t-408.5 113.5q-254 0 -406.5 -113.5t-152.5 -306.5t152.5 -306.5t406.5 -113.5z" />
    <glyph glyph-name="divide" unicode="&#xf7;" horiz-adv-x="1402" 
d="M696 940q-43 0 -70.5 27.5t-27.5 70.5t27.5 71t70.5 28t71 -28t28 -71t-28 -70.5t-71 -27.5zM125 600v135h1151v-135h-1151zM696 201q-43 0 -70.5 27.5t-27.5 70.5t27.5 70.5t70.5 27.5t71 -27.5t28 -70.5t-28 -70.5t-71 -27.5z" />
    <glyph glyph-name="oslash" unicode="&#xf8;" horiz-adv-x="1611" 
d="M1366 877q160 -144 160 -365q0 -163 -90.5 -288.5t-254.5 -194t-376 -68.5q-284 0 -475 121l-166 -127l-74 76l154 119q-158 145 -158 362q0 163 90.5 288.5t254 194t374.5 68.5q280 0 473 -119l164 127l76 -78zM246 512q0 -163 114 -274l799 616q-146 78 -354 78
q-254 0 -406.5 -113.5t-152.5 -306.5zM805 92q256 0 408.5 113.5t152.5 306.5q0 165 -117 276l-800 -614q142 -82 356 -82z" />
    <glyph glyph-name="ugrave" unicode="&#xf9;" horiz-adv-x="1730" 
d="M926 1188h-174l-369 307h205zM760 -39q-580 0 -580 547v516h150v-510q0 -100 27.5 -177t70.5 -123t104.5 -74.5t121 -39t128.5 -10.5q118 0 216 29.5t162 77.5t108 110.5t63 126.5t19 129v461h151v-1024h-149v295q-68 -164 -222 -249t-370 -85z" />
    <glyph glyph-name="uacute" unicode="&#xfa;" horiz-adv-x="1730" 
d="M750 1188l337 307h205l-368 -307h-174zM760 -39q-580 0 -580 547v516h150v-510q0 -100 27.5 -177t70.5 -123t104.5 -74.5t121 -39t128.5 -10.5q118 0 216 29.5t162 77.5t108 110.5t63 126.5t19 129v461h151v-1024h-149v295q-68 -164 -222 -249t-370 -85z" />
    <glyph glyph-name="ucircumflex" unicode="&#xfb;" horiz-adv-x="1730" 
d="M1272 1188h-164l-270 237l-271 -237h-164l342 307h183zM760 -39q-580 0 -580 547v516h150v-510q0 -100 27.5 -177t70.5 -123t104.5 -74.5t121 -39t128.5 -10.5q118 0 216 29.5t162 77.5t108 110.5t63 126.5t19 129v461h151v-1024h-149v295q-68 -164 -222 -249t-370 -85z
" />
    <glyph glyph-name="udieresis" unicode="&#xfc;" horiz-adv-x="1730" 
d="M412 1221v229h202v-229h-202zM1061 1221v229h203v-229h-203zM760 -39q-580 0 -580 547v516h150v-510q0 -100 27.5 -177t70.5 -123t104.5 -74.5t121 -39t128.5 -10.5q118 0 216 29.5t162 77.5t108 110.5t63 126.5t19 129v461h151v-1024h-149v295q-68 -164 -222 -249
t-370 -85z" />
    <glyph glyph-name="yacute" unicode="&#xfd;" horiz-adv-x="1429" 
d="M627 1188l338 307h204l-368 -307h-174zM203 -420q-58 0 -113 8v133q56 -6 100 -6q167 0 276.5 66.5t166.5 177.5l18 37l-645 1028h182l498 -815q23 -39 43 -88h4q11 30 41 88l477 815h172l-643 -1090q-110 -188 -245.5 -271t-331.5 -83z" />
    <glyph glyph-name="thorn" unicode="&#xfe;" horiz-adv-x="1771" 
d="M238 -399v1884h151v-699q76 128 242 202.5t373 74.5q309 0 493 -149t184 -400q0 -160 -87.5 -286.5t-244 -196.5t-354.5 -70q-196 0 -364.5 72t-241.5 188v-620h-151zM952 94q264 0 417 112.5t153 307.5q0 194 -147.5 305t-403.5 111q-255 0 -419.5 -111.5t-164.5 -283.5
v-41q0 -177 157.5 -288.5t407.5 -111.5z" />
    <glyph glyph-name="ydieresis" unicode="&#xff;" horiz-adv-x="1429" 
d="M289 1221v229h203v-229h-203zM938 1221v229h203v-229h-203zM203 -420q-58 0 -113 8v133q56 -6 100 -6q167 0 276.5 66.5t166.5 177.5l18 37l-645 1028h182l498 -815q23 -39 43 -88h4q11 30 41 88l477 815h172l-643 -1090q-110 -188 -245.5 -271t-331.5 -83z" />
    <glyph glyph-name="Amacron" unicode="&#x100;" horiz-adv-x="1900" 
d="M1376 1679v-110h-850v110h850zM1673 0l-188 340h-1069l-189 -340h-182l821 1454h168l824 -1454h-185zM496 483h909l-270 488q-62 110 -83.5 148.5t-50 97.5t-49.5 114h-4q-28 -80 -64 -149.5t-118 -210.5z" />
    <glyph glyph-name="amacron" unicode="&#x101;" horiz-adv-x="1658" 
d="M373 1260v110h932v-110h-932zM637 -39q-233 0 -370.5 80t-137.5 223q0 139 98 215q58 45 152 72t276 37l660 41v20q0 140 -121 215.5t-348 75.5q-223 0 -354.5 -63.5t-157.5 -188.5h-166q25 171 206.5 273t471.5 102q306 0 463 -108.5t157 -317.5v-260q0 -220 23 -377
h-158q-14 95 -14 231q-90 -136 -256.5 -203t-423.5 -67zM684 80q183 0 326.5 45.5t225 130t81.5 195.5v65l-629 -39q-155 -10 -242 -35t-122 -66.5t-35 -109.5q0 -93 101.5 -139.5t293.5 -46.5z" />
    <glyph glyph-name="Abreve" unicode="&#x102;" horiz-adv-x="1900" 
d="M950 1546q-148 0 -251 59t-115 167h129q8 -53 70 -90t167 -37t167.5 37t70.5 90h129q-13 -108 -116 -167t-251 -59zM1673 0l-188 340h-1069l-189 -340h-182l821 1454h168l824 -1454h-185zM496 483h909l-270 488q-62 110 -83.5 148.5t-50 97.5t-49.5 114h-4
q-28 -80 -64 -149.5t-118 -210.5z" />
    <glyph glyph-name="abreve" unicode="&#x103;" horiz-adv-x="1658" 
d="M580 1495q7 -106 75 -162.5t185 -56.5t185 56.5t75 162.5h129q-12 -153 -115 -235t-274 -82t-274 82t-115 235h129zM637 -39q-233 0 -370.5 80t-137.5 223q0 139 98 215q58 45 152 72t276 37l660 41v20q0 140 -121 215.5t-348 75.5q-223 0 -354.5 -63.5t-157.5 -188.5
h-166q25 171 206.5 273t471.5 102q306 0 463 -108.5t157 -317.5v-260q0 -220 23 -377h-158q-14 95 -14 231q-90 -136 -256.5 -203t-423.5 -67zM684 80q183 0 326.5 45.5t225 130t81.5 195.5v65l-629 -39q-155 -10 -242 -35t-122 -66.5t-35 -109.5q0 -93 101.5 -139.5
t293.5 -46.5z" />
    <glyph glyph-name="Aogonek" unicode="&#x104;" horiz-adv-x="1900" 
d="M1608 -326q107 0 143 109l107 -23q-19 -83 -87.5 -126.5t-177.5 -43.5q-98 0 -162.5 51t-64.5 128q0 91 74 157t219 101l-174 313h-1069l-189 -340h-182l821 1454h168l824 -1454h-37q-158 -22 -245 -82.5t-87 -134.5q0 -49 33 -79t86 -30zM496 483h909l-270 488
q-62 110 -83.5 148.5t-50 97.5t-49.5 114h-4q-28 -80 -64 -149.5t-118 -210.5z" />
    <glyph glyph-name="aogonek" unicode="&#x105;" horiz-adv-x="1658" 
d="M1411 -217l107 -23q-19 -83 -87.5 -126.5t-177.5 -43.5q-98 0 -162.5 51t-64.5 128q0 93 76 159t225 101q-10 76 -10 202q-90 -136 -256.5 -203t-423.5 -67q-233 0 -370.5 80t-137.5 223q0 139 98 215q58 45 152 72t276 37l660 41v20q0 140 -121 215.5t-348 75.5
q-223 0 -354.5 -63.5t-157.5 -188.5h-166q25 171 206.5 273t471.5 102q306 0 463 -108.5t157 -317.5v-260q0 -220 23 -377h-8q-158 -22 -245 -82.5t-87 -134.5q0 -49 33 -79t86 -30q107 0 143 109zM1317 451v65l-629 -39q-155 -10 -242 -35t-122 -66.5t-35 -109.5
q0 -93 101.5 -139.5t293.5 -46.5q183 0 326.5 45.5t225 130t81.5 195.5z" />
    <glyph glyph-name="Cacute" unicode="&#x106;" horiz-adv-x="1945" 
d="M899 1556l320 216h204l-342 -216h-182zM993 -51q-423 0 -673 212.5t-250 565.5q0 231 116.5 408t329 273.5t490.5 96.5q340 0 560.5 -142.5t288.5 -404.5l-178 -16q-57 203 -234 312.5t-448 109.5q-347 0 -549 -171.5t-202 -463.5q0 -286 209 -462.5t551 -176.5
q263 0 435 99t244 290l170 -26q-91 -247 -309.5 -375.5t-550.5 -128.5z" />
    <glyph glyph-name="cacute" unicode="&#x107;" horiz-adv-x="1568" 
d="M698 1188l338 307h205l-369 -307h-174zM791 -39q-320 0 -512.5 150t-192.5 401q0 253 194.5 402t522.5 149q559 0 672 -383l-168 -23q-88 275 -512 275q-261 0 -405 -109.5t-144 -310.5q0 -196 147.5 -308t405.5 -112q405 0 516 262l158 -22q-54 -177 -233.5 -274
t-448.5 -97z" />
    <glyph glyph-name="Ccircumflex" unicode="&#x108;" horiz-adv-x="1945" 
d="M1397 1556h-187l-219 148l-221 -148h-186l313 216h186zM993 -51q-423 0 -673 212.5t-250 565.5q0 231 116.5 408t329 273.5t490.5 96.5q340 0 560.5 -142.5t288.5 -404.5l-178 -16q-57 203 -234 312.5t-448 109.5q-347 0 -549 -171.5t-202 -463.5q0 -286 209 -462.5
t551 -176.5q263 0 435 99t244 290l170 -26q-91 -247 -309.5 -375.5t-550.5 -128.5z" />
    <glyph glyph-name="ccircumflex" unicode="&#x109;" horiz-adv-x="1568" 
d="M1221 1188h-164l-271 237l-270 -237h-164l342 307h183zM791 -39q-320 0 -512.5 150t-192.5 401q0 253 194.5 402t522.5 149q559 0 672 -383l-168 -23q-88 275 -512 275q-261 0 -405 -109.5t-144 -310.5q0 -196 147.5 -308t405.5 -112q405 0 516 262l158 -22
q-54 -177 -233.5 -274t-448.5 -97z" />
    <glyph glyph-name="Cdotaccent" unicode="&#x10a;" horiz-adv-x="1945" 
d="M899 1556v216h184v-216h-184zM993 -51q-423 0 -673 212.5t-250 565.5q0 231 116.5 408t329 273.5t490.5 96.5q340 0 560.5 -142.5t288.5 -404.5l-178 -16q-57 203 -234 312.5t-448 109.5q-347 0 -549 -171.5t-202 -463.5q0 -286 209 -462.5t551 -176.5q263 0 435 99
t244 290l170 -26q-91 -247 -309.5 -375.5t-550.5 -128.5z" />
    <glyph glyph-name="cdotaccent" unicode="&#x10b;" horiz-adv-x="1568" 
d="M692 1210v232h185v-232h-185zM791 -39q-320 0 -512.5 150t-192.5 401q0 253 194.5 402t522.5 149q559 0 672 -383l-168 -23q-88 275 -512 275q-261 0 -405 -109.5t-144 -310.5q0 -196 147.5 -308t405.5 -112q405 0 516 262l158 -22q-54 -177 -233.5 -274t-448.5 -97z" />
    <glyph glyph-name="Ccaron" unicode="&#x10c;" horiz-adv-x="1945" 
d="M1397 1761l-314 -215h-186l-313 215h186l221 -147l219 147h187zM993 -51q-423 0 -673 212.5t-250 565.5q0 231 116.5 408t329 273.5t490.5 96.5q340 0 560.5 -142.5t288.5 -404.5l-178 -16q-57 203 -234 312.5t-448 109.5q-347 0 -549 -171.5t-202 -463.5
q0 -286 209 -462.5t551 -176.5q263 0 435 99t244 290l170 -26q-91 -247 -309.5 -375.5t-550.5 -128.5z" />
    <glyph glyph-name="ccaron" unicode="&#x10d;" horiz-adv-x="1568" 
d="M354 1483h164l270 -238l271 238h164l-342 -307h-183zM791 -39q-320 0 -512.5 150t-192.5 401q0 253 194.5 402t522.5 149q559 0 672 -383l-168 -23q-88 275 -512 275q-261 0 -405 -109.5t-144 -310.5q0 -196 147.5 -308t405.5 -112q405 0 516 262l158 -22
q-54 -177 -233.5 -274t-448.5 -97z" />
    <glyph glyph-name="Dcaron" unicode="&#x10e;" horiz-adv-x="2007" 
d="M1432 1761l-314 -215h-186l-314 215h187l221 -147l219 147h187zM248 0v1454h813q194 0 354 -44.5t276.5 -130.5t181 -220.5t64.5 -306.5q0 -174 -66 -316.5t-183 -237.5t-276.5 -146.5t-346.5 -51.5h-817zM418 143h655q322 0 506 158t184 451q0 142 -53 250t-149.5 175
t-226.5 100.5t-290 33.5h-626v-1168z" />
    <glyph glyph-name="dcaron" unicode="&#x10f;" horiz-adv-x="1771" 
d="M772 -39q-197 0 -352.5 70.5t-241.5 195.5t-86 283q0 247 189.5 400t498.5 153q416 0 602 -266v688h152v-1485h-150v231q-88 -132 -243.5 -201t-368.5 -69zM1702 1096l-37 53q60 27 79 58.5t19 76.5h-106v170h188v-139q0 -86 -30 -135.5t-113 -83.5zM811 94
q252 0 413.5 110.5t161.5 280.5v41q0 175 -166 290.5t-425 115.5q-254 0 -398.5 -112.5t-144.5 -309.5q0 -191 150.5 -303.5t408.5 -112.5z" />
    <glyph glyph-name="Dcroat" unicode="&#x110;" horiz-adv-x="2009" 
d="M1061 1454q194 0 354 -44.5t276.5 -130.5t181 -220.5t64.5 -306.5q0 -174 -66 -316.5t-183 -237.5t-276.5 -146.5t-346.5 -51.5h-817v690h-207v129h207v635h813zM1073 143q322 0 506 158t184 451q0 142 -53 250t-149.5 175t-226.5 100.5t-290 33.5h-626v-492h669v-129
h-669v-547h655z" />
    <glyph glyph-name="dcroat" unicode="&#x111;" horiz-adv-x="1771" 
d="M1790 1305v-101h-256v-1204h-150v231q-88 -132 -243.5 -201t-368.5 -69q-197 0 -352.5 70.5t-241.5 195.5t-86 283q0 247 189.5 400t498.5 153q416 0 602 -266v407h-553v101h553v180h152v-180h256zM1386 485v41q0 175 -166 290.5t-425 115.5q-254 0 -398.5 -112.5
t-144.5 -309.5q0 -191 150.5 -303.5t408.5 -112.5q252 0 413.5 110.5t161.5 280.5z" />
    <glyph glyph-name="Emacron" unicode="&#x112;" horiz-adv-x="1800" 
d="M1395 1679v-110h-850v110h850zM418 143h1210v-143h-1378v1454h1364v-143h-1196v-494h1161v-143h-1161v-531z" />
    <glyph glyph-name="emacron" unicode="&#x113;" horiz-adv-x="1609" 
d="M1268 1370v-110h-932v110h932zM1499 535v-64h-1255q9 -179 155 -279t406 -100q402 0 547 238l131 -64q-187 -305 -678 -305q-331 0 -525 144.5t-194 396.5q0 181 90.5 309t246.5 190t365 62q330 0 520.5 -140.5t190.5 -387.5zM244 590h1095q-1 111 -75.5 193t-198 122.5
t-277.5 40.5q-233 0 -382.5 -96.5t-161.5 -259.5z" />
    <glyph glyph-name="Ebreve" unicode="&#x114;" horiz-adv-x="1800" 
d="M969 1546q-148 0 -251.5 59t-115.5 167h129q8 -53 70.5 -90t167.5 -37t167 37t70 90h129q-13 -108 -115.5 -167t-250.5 -59zM418 143h1210v-143h-1378v1454h1364v-143h-1196v-494h1161v-143h-1161v-531z" />
    <glyph glyph-name="ebreve" unicode="&#x115;" horiz-adv-x="1609" 
d="M803 1178q-171 0 -274 82t-115 235h129q7 -106 75 -162.5t185 -56.5t185 56.5t75 162.5h129q-12 -153 -115 -235t-274 -82zM1499 535v-64h-1255q9 -179 155 -279t406 -100q402 0 547 238l131 -64q-187 -305 -678 -305q-331 0 -525 144.5t-194 396.5q0 181 90.5 309
t246.5 190t365 62q330 0 520.5 -140.5t190.5 -387.5zM244 590h1095q-1 111 -75.5 193t-198 122.5t-277.5 40.5q-233 0 -382.5 -96.5t-161.5 -259.5z" />
    <glyph glyph-name="Edotaccent" unicode="&#x116;" horiz-adv-x="1800" 
d="M1061 1772v-216h-184v216h184zM418 143h1210v-143h-1378v1454h1364v-143h-1196v-494h1161v-143h-1161v-531z" />
    <glyph glyph-name="edotaccent" unicode="&#x117;" horiz-adv-x="1609" 
d="M893 1442v-232h-184v232h184zM1499 535v-64h-1255q9 -179 155 -279t406 -100q402 0 547 238l131 -64q-187 -305 -678 -305q-331 0 -525 144.5t-194 396.5q0 181 90.5 309t246.5 190t365 62q330 0 520.5 -140.5t190.5 -387.5zM244 590h1095q-1 111 -75.5 193t-198 122.5
t-277.5 40.5q-233 0 -382.5 -96.5t-161.5 -259.5z" />
    <glyph glyph-name="Eogonek" unicode="&#x118;" horiz-adv-x="1800" 
d="M1561 -217l106 -23q-19 -83 -87 -126.5t-177 -43.5q-98 0 -162.5 51t-64.5 128q0 154 204 231h-1130v1454h1364v-143h-1196v-494h1161v-143h-1161v-531h1210v-143h2q-158 -22 -245 -82.5t-87 -134.5q0 -49 33 -79t86 -30q108 0 144 109z" />
    <glyph glyph-name="eogonek" unicode="&#x119;" horiz-adv-x="1609" 
d="M1499 535v-64h-1255q9 -179 155 -279t406 -100q402 0 547 238l131 -64q-122 -197 -365 -266q-69 -18 -119 -25q-103 -32 -158 -82.5t-55 -109.5q0 -49 33 -79t86 -30q108 0 144 109l106 -23q-19 -83 -87 -126.5t-177 -43.5q-98 0 -162.5 51t-64.5 128q0 119 122 192
q-323 5 -511.5 148.5t-188.5 392.5q0 181 90.5 309t246.5 190t365 62q330 0 520.5 -140.5t190.5 -387.5zM244 590h1095q-1 111 -75.5 193t-198 122.5t-277.5 40.5q-233 0 -382.5 -96.5t-161.5 -259.5z" />
    <glyph glyph-name="Ecaron" unicode="&#x11a;" horiz-adv-x="1800" 
d="M1061 1546h-187l-313 215h187l221 -147l219 147h186zM418 143h1210v-143h-1378v1454h1364v-143h-1196v-494h1161v-143h-1161v-531z" />
    <glyph glyph-name="ecaron" unicode="&#x11b;" horiz-adv-x="1609" 
d="M897 1176h-182l-344 307h164l270 -238l270 238h164zM1499 535v-64h-1255q9 -179 155 -279t406 -100q402 0 547 238l131 -64q-187 -305 -678 -305q-331 0 -525 144.5t-194 396.5q0 181 90.5 309t246.5 190t365 62q330 0 520.5 -140.5t190.5 -387.5zM244 590h1095
q-1 111 -75.5 193t-198 122.5t-277.5 40.5q-233 0 -382.5 -96.5t-161.5 -259.5z" />
    <glyph glyph-name="Gcircumflex" unicode="&#x11c;" horiz-adv-x="2023" 
d="M1436 1556h-187l-219 148l-221 -148h-186l313 216h186zM967 -51q-269 0 -473 97t-314 273.5t-110 407.5q0 233 114.5 409t325.5 272.5t491 96.5q334 0 556.5 -131.5t289.5 -345.5l-174 -31q-51 162 -232.5 264.5t-451.5 102.5q-341 0 -545 -174t-204 -463
q0 -285 204 -461t545 -176q165 0 302 40.5t225.5 108.5t137 156t48.5 185v32h-703v144h854v-756h-133l-12 285q-100 -161 -291.5 -248.5t-449.5 -87.5z" />
    <glyph glyph-name="gcircumflex" unicode="&#x11d;" horiz-adv-x="1611" 
d="M803 1425l-271 -221h-163l342 291h182l344 -291h-164zM1442 1051q-72 0 -125 -24.5t-76 -68.5q148 -96 148 -258q0 -169 -159 -267.5t-429 -98.5q-201 0 -346 57q-68 -15 -103 -46t-35 -73q0 -106 189 -106l627 -2q378 0 378 -270q0 -169 -171.5 -250.5t-538.5 -81.5
q-357 0 -523.5 71t-166.5 220q0 78 46 129t140 81q-129 51 -129 168q0 74 53 125t154 76q-162 98 -162 268q0 169 158.5 266t429.5 97q214 0 356 -59q25 87 99.5 133.5t189.5 46.5q35 0 76 -8v-132q-40 7 -80 7zM801 451q201 0 316.5 65.5t115.5 183.5t-115 182t-317 64
t-317 -64t-115 -182t115.5 -183.5t316.5 -65.5zM1108 31h-602q-54 0 -100 6q-150 -44 -150 -162q0 -97 131 -142.5t412 -45.5q293 0 428 49t135 151q0 75 -60.5 109.5t-193.5 34.5z" />
    <glyph glyph-name="Gbreve" unicode="&#x11e;" horiz-adv-x="2023" 
d="M793 1772q8 -53 70 -90t167 -37t167.5 37t70.5 90h129q-13 -108 -116 -167t-251 -59t-251 59t-115 167h129zM967 -51q-269 0 -473 97t-314 273.5t-110 407.5q0 233 114.5 409t325.5 272.5t491 96.5q334 0 556.5 -131.5t289.5 -345.5l-174 -31q-51 162 -232.5 264.5
t-451.5 102.5q-341 0 -545 -174t-204 -463q0 -285 204 -461t545 -176q165 0 302 40.5t225.5 108.5t137 156t48.5 185v32h-703v144h854v-756h-133l-12 285q-100 -161 -291.5 -248.5t-449.5 -87.5z" />
    <glyph glyph-name="gbreve" unicode="&#x11f;" horiz-adv-x="1611" 
d="M803 1178q-171 0 -274 82t-115 235h129q7 -106 75 -162.5t185 -56.5t185 56.5t75 162.5h129q-12 -153 -115 -235t-274 -82zM1442 1051q-72 0 -125 -24.5t-76 -68.5q148 -96 148 -258q0 -169 -159 -267.5t-429 -98.5q-201 0 -346 57q-68 -15 -103 -46t-35 -73
q0 -106 189 -106l627 -2q378 0 378 -270q0 -169 -171.5 -250.5t-538.5 -81.5q-357 0 -523.5 71t-166.5 220q0 78 46 129t140 81q-129 51 -129 168q0 74 53 125t154 76q-162 98 -162 268q0 169 158.5 266t429.5 97q214 0 356 -59q25 87 99.5 133.5t189.5 46.5q35 0 76 -8
v-132q-40 7 -80 7zM801 451q201 0 316.5 65.5t115.5 183.5t-115 182t-317 64t-317 -64t-115 -182t115.5 -183.5t316.5 -65.5zM1108 31h-602q-54 0 -100 6q-150 -44 -150 -162q0 -97 131 -142.5t412 -45.5q293 0 428 49t135 151q0 75 -60.5 109.5t-193.5 34.5z" />
    <glyph glyph-name="Gdotaccent" unicode="&#x120;" horiz-adv-x="2023" 
d="M938 1556v216h184v-216h-184zM967 -51q-269 0 -473 97t-314 273.5t-110 407.5q0 233 114.5 409t325.5 272.5t491 96.5q334 0 556.5 -131.5t289.5 -345.5l-174 -31q-51 162 -232.5 264.5t-451.5 102.5q-341 0 -545 -174t-204 -463q0 -285 204 -461t545 -176
q165 0 302 40.5t225.5 108.5t137 156t48.5 185v32h-703v144h854v-756h-133l-12 285q-100 -161 -291.5 -248.5t-449.5 -87.5z" />
    <glyph glyph-name="gdotaccent" unicode="&#x121;" horiz-adv-x="1611" 
d="M893 1442v-232h-184v232h184zM1442 1051q-72 0 -125 -24.5t-76 -68.5q148 -96 148 -258q0 -169 -159 -267.5t-429 -98.5q-201 0 -346 57q-68 -15 -103 -46t-35 -73q0 -106 189 -106l627 -2q378 0 378 -270q0 -169 -171.5 -250.5t-538.5 -81.5q-357 0 -523.5 71
t-166.5 220q0 78 46 129t140 81q-129 51 -129 168q0 74 53 125t154 76q-162 98 -162 268q0 169 158.5 266t429.5 97q214 0 356 -59q25 87 99.5 133.5t189.5 46.5q35 0 76 -8v-132q-40 7 -80 7zM801 451q201 0 316.5 65.5t115.5 183.5t-115 182t-317 64t-317 -64t-115 -182
t115.5 -183.5t316.5 -65.5zM1108 31h-602q-54 0 -100 6q-150 -44 -150 -162q0 -97 131 -142.5t412 -45.5q293 0 428 49t135 151q0 75 -60.5 109.5t-193.5 34.5z" />
    <glyph glyph-name="Gcommaaccent" unicode="&#x122;" horiz-adv-x="2023" 
d="M967 -51q-269 0 -473 97t-314 273.5t-110 407.5q0 233 114.5 409t325.5 272.5t491 96.5q334 0 556.5 -131.5t289.5 -345.5l-174 -31q-51 162 -232.5 264.5t-451.5 102.5q-341 0 -545 -174t-204 -463q0 -285 204 -461t545 -176q165 0 302 40.5t225.5 108.5t137 156
t48.5 185v32h-703v144h854v-756h-133l-12 285q-100 -161 -291.5 -248.5t-449.5 -87.5zM981 -479l-37 53q61 28 79.5 60.5t18.5 80.5h-106v168h188v-139q0 -88 -30 -138.5t-113 -84.5z" />
    <glyph glyph-name="gcommaaccent" unicode="&#x123;" horiz-adv-x="1611" 
d="M893 1356v-168h-188v139q0 88 30 138.5t113 84.5l37 -53q-61 -28 -80 -60.5t-19 -80.5h107zM1442 1051q-72 0 -125 -24.5t-76 -68.5q148 -96 148 -258q0 -169 -159 -267.5t-429 -98.5q-201 0 -346 57q-68 -15 -103 -46t-35 -73q0 -106 189 -106l627 -2q378 0 378 -270
q0 -169 -171.5 -250.5t-538.5 -81.5q-357 0 -523.5 71t-166.5 220q0 78 46 129t140 81q-129 51 -129 168q0 74 53 125t154 76q-162 98 -162 268q0 169 158.5 266t429.5 97q214 0 356 -59q25 87 99.5 133.5t189.5 46.5q35 0 76 -8v-132q-40 7 -80 7zM801 451
q201 0 316.5 65.5t115.5 183.5t-115 182t-317 64t-317 -64t-115 -182t115.5 -183.5t316.5 -65.5zM1108 31h-602q-54 0 -100 6q-150 -44 -150 -162q0 -97 131 -142.5t412 -45.5q293 0 428 49t135 151q0 75 -60.5 109.5t-193.5 34.5z" />
    <glyph glyph-name="Hcircumflex" unicode="&#x124;" horiz-adv-x="2084" 
d="M1448 1556h-186l-220 148l-221 -148h-186l313 216h187zM1835 1454v-1454h-168v672h-1249v-672h-168v1454h168v-639h1249v639h168z" />
    <glyph glyph-name="hcircumflex" unicode="&#x125;" horiz-adv-x="1763" 
d="M721 1556h-186l-220 148l-221 -148h-186l313 216h187zM240 0v1485h151v-729q77 148 228.5 228.5t355.5 80.5q299 0 454.5 -158t155.5 -461v-446h-151v424q0 248 -126.5 377t-369.5 129t-395 -128t-152 -333v-469h-151z" />
    <glyph glyph-name="Hbar" unicode="&#x126;" horiz-adv-x="2084" 
d="M2036 1167v-106h-201v-1061h-168v672h-1249v-672h-168v1061h-203v106h203v287h168v-287h1249v287h168v-287h201zM1667 815v246h-1249v-246h1249z" />
    <glyph glyph-name="hbar" unicode="&#x127;" horiz-adv-x="1748" 
d="M975 1065q299 0 454.5 -158t155.5 -461v-446h-151v424q0 248 -126.5 377t-369.5 129t-395 -128t-152 -333v-469h-151v1188h-203v100h203v197h151v-197h733v-100h-733v-432q77 148 228.5 228.5t355.5 80.5z" />
    <glyph glyph-name="Itilde" unicode="&#x128;" horiz-adv-x="667" 
d="M446 1559q-39 0 -73.5 17t-55 37t-46.5 37t-50 17q-54 0 -57 -84l-107 19q4 85 49 133.5t115 48.5q39 0 73.5 -17t54.5 -37.5t46 -37.5t51 -17q52 0 58 84l104 -18q-3 -85 -47.5 -133.5t-114.5 -48.5zM418 0h-168v1454h168v-1454z" />
    <glyph glyph-name="itilde" unicode="&#x129;" horiz-adv-x="608" 
d="M403 1200q-35 0 -65.5 22t-48.5 48.5t-40 48.5t-42 22q-52 0 -60 -112l-106 18q10 105 53.5 161t112.5 56q35 0 65.5 -22.5t48.5 -49t40 -49t42 -22.5q52 0 60 115l106 -21q-10 -104 -53.5 -159.5t-112.5 -55.5zM229 0v1024h152v-1024h-152z" />
    <glyph glyph-name="Imacron" unicode="&#x12a;" horiz-adv-x="667" 
d="M90 1569v121h471v-121h-471zM418 0h-168v1454h168v-1454z" />
    <glyph glyph-name="imacron" unicode="&#x12b;" horiz-adv-x="608" 
d="M74 1260v110h461v-110h-461zM229 0v1024h152v-1024h-152z" />
    <glyph glyph-name="Ibreve" unicode="&#x12c;" horiz-adv-x="667" 
d="M184 1772q3 -53 42.5 -90t107.5 -37t108 37t43 90h129q-9 -108 -87 -167t-193 -59q-114 0 -192 59t-87 167h129zM418 0h-168v1454h168v-1454z" />
    <glyph glyph-name="ibreve" unicode="&#x12d;" horiz-adv-x="608" 
d="M205 1497q0 -112 24.5 -161.5t75.5 -49.5t76 50t25 161h129q-1 -165 -62.5 -242t-167.5 -77q-105 0 -166.5 77t-62.5 242h129zM229 0v1024h152v-1024h-152z" />
    <glyph glyph-name="Iogonek" unicode="&#x12e;" horiz-adv-x="667" 
d="M328 -217l106 -23q-19 -83 -87 -126.5t-177 -43.5q-98 0 -162.5 51t-64.5 128q0 94 77.5 160.5t229.5 101.5v1423h168v-1454h-21q-158 -22 -244.5 -82.5t-86.5 -134.5q0 -49 32.5 -79t85.5 -30q108 0 144 109z" />
    <glyph glyph-name="iogonek" unicode="&#x12f;" horiz-adv-x="608" 
d="M395 1442v-232h-184v232h184zM307 -217l107 -23q-19 -83 -87 -126.5t-177 -43.5q-98 0 -163 51t-65 128q0 94 77.5 160.5t229.5 101.5v993h152v-1024h-4q-158 -22 -245 -82.5t-87 -134.5q0 -49 33 -79t86 -30q107 0 143 109z" />
    <glyph glyph-name="Idotaccent" unicode="&#x130;" horiz-adv-x="667" 
d="M242 1556v216h184v-216h-184zM418 0h-168v1454h168v-1454z" />
    <glyph glyph-name="dotlessi" unicode="&#x131;" horiz-adv-x="608" 
d="M229 0v1024h152v-1024h-152z" />
    <glyph glyph-name="IJ" unicode="&#x132;" horiz-adv-x="1708" 
d="M418 0h-168v1454h168v-1454zM1518 522q0 -289 -138 -421t-405 -132q-159 0 -264 23v158q153 -23 266 -23q90 0 156 20t116.5 65.5t75.5 124.5t25 193v924h168v-932z" />
    <glyph glyph-name="ij" unicode="&#x133;" horiz-adv-x="1249" 
d="M211 1210v232h184v-232h-184zM844 1210v232h184v-232h-184zM229 0v1024h152v-1024h-152zM666 -420q-102 0 -164 12v134q94 -11 176 -11q95 0 142.5 59.5t47.5 202.5v1047h152v-1075q0 -80 -18 -144t-57.5 -116t-110 -80.5t-168.5 -28.5z" />
    <glyph glyph-name="Jcircumflex" unicode="&#x134;" horiz-adv-x="1040" 
d="M1042 1559h-163l-119 145l-117 -145h-164l189 213h184zM850 522q0 -289 -138 -421t-405 -132q-159 0 -264 23v158q153 -23 266 -23q90 0 156 20t116.5 65.5t75.5 124.5t25 193v924h168v-932z" />
    <glyph glyph-name="jcircumflex" unicode="&#x135;" horiz-adv-x="641" 
d="M569 1188h-133l-106 235l-109 -235h-131l160 311h158zM57 -420q-101 0 -163 12v134q93 -11 176 -11q95 0 142.5 59.5t47.5 202.5v1047h152v-1075q0 -80 -18 -144t-57.5 -116t-110.5 -80.5t-169 -28.5z" />
    <glyph glyph-name="Kcommaaccent" unicode="&#x136;" horiz-adv-x="1900" 
d="M1090 922l743 -922h-221l-660 815l-534 -424v-391h-168v1454h168v-879l1112 879h242zM872 -285v168h189v-139q0 -88 -30 -138.5t-113 -84.5l-37 53q61 28 79.5 60.5t18.5 80.5h-107z" />
    <glyph glyph-name="kcommaaccent" unicode="&#x137;" horiz-adv-x="1570" 
d="M936 672l559 -672h-195l-493 590l-416 -264v-326h-151v1485h151v-1012l834 551h231zM690 -285v168h189v-139q0 -87 -30.5 -138t-113.5 -85l-37 53q61 28 80 60.5t19 80.5h-107z" />
    <glyph glyph-name="kgreenlandic" unicode="&#x138;" horiz-adv-x="1560" 
d="M1290 0l-493 590l-416 -264v-326h-152v1024h152v-551l833 551h232l-520 -352l559 -672h-195z" />
    <glyph glyph-name="Lacute" unicode="&#x139;" horiz-adv-x="1628" 
d="M246 1556l319 216h205l-342 -216h-182zM250 0v1454h168v-1307h1138v-147h-1306z" />
    <glyph glyph-name="lacute" unicode="&#x13a;" horiz-adv-x="628" 
d="M223 1556l320 216h205l-342 -216h-183zM391 1485v-1485h-151v1485h151z" />
    <glyph glyph-name="Lcommaaccent" unicode="&#x13b;" horiz-adv-x="1628" 
d="M250 0v1454h168v-1307h1138v-147h-1306zM860 -479l-37 53q61 28 80 60.5t19 80.5h-107v168h189v-139q0 -87 -30.5 -138t-113.5 -85z" />
    <glyph glyph-name="lcommaaccent" unicode="&#x13c;" horiz-adv-x="628" 
d="M391 1485v-1485h-151v1485h151zM266 -479l-37 53q61 28 80 60.5t19 80.5h-107v168h189v-139q0 -87 -30.5 -138t-113.5 -85z" />
    <glyph glyph-name="Lcaron" unicode="&#x13d;" horiz-adv-x="1628" 
d="M250 0v1454h168v-1307h1138v-147h-1306zM694 1096l-37 53q60 27 79.5 58.5t19.5 76.5h-107v170h189v-139q0 -86 -30.5 -135.5t-113.5 -83.5z" />
    <glyph glyph-name="lcaron" unicode="&#x13e;" horiz-adv-x="628" 
d="M391 1485v-1485h-151v1485h151zM557 1096l-37 53q60 27 79 58.5t19 76.5h-106v170h188v-139q0 -86 -30 -135.5t-113 -83.5z" />
    <glyph glyph-name="Ldot" unicode="&#x13f;" horiz-adv-x="1628" 
d="M250 0v1454h168v-1307h1138v-147h-1306zM1106 1024v-225h-238v225h238z" />
    <glyph glyph-name="ldot" unicode="&#x140;" horiz-adv-x="735" 
d="M391 1485v-1485h-151v1485h151zM801 1024v-225h-238v225h238z" />
    <glyph glyph-name="Lslash" unicode="&#x141;" horiz-adv-x="1628" 
d="M418 147h1138v-147h-1306v606l-273 -114v131l273 114v717h168v-647l653 274v-131l-653 -274v-529z" />
    <glyph glyph-name="lslash" unicode="&#x142;" horiz-adv-x="628" 
d="M537 1055v-111l-146 -117v-827h-151v709l-146 -117v110l146 117v666h151v-547z" />
    <glyph glyph-name="Nacute" unicode="&#x143;" horiz-adv-x="2074" 
d="M946 1556l320 216h204l-342 -216h-182zM250 0v1454h209l1110 -1147q74 -74 98 -129h4v164v1112h154v-1454h-183l-1136 1174q-67 67 -96 124h-7v-153v-1145h-153z" />
    <glyph glyph-name="nacute" unicode="&#x144;" horiz-adv-x="1753" 
d="M874 1188l338 307h205l-368 -307h-175zM229 0v1024h150v-270q76 152 227.5 230.5t368.5 78.5q293 0 446.5 -142t153.5 -415v-506h-152v465q0 465 -483 465q-255 0 -407 -125t-152 -336v-469h-152z" />
    <glyph glyph-name="Ncommaaccent" unicode="&#x145;" horiz-adv-x="2074" 
d="M250 0v1454h209l1110 -1147q74 -74 98 -129h4v164v1112h154v-1454h-183l-1136 1174q-67 67 -96 124h-7v-153v-1145h-153zM989 -479l-37 53q61 28 80 60.5t19 80.5h-107v168h189v-139q0 -87 -30.5 -138t-113.5 -85z" />
    <glyph glyph-name="ncommaaccent" unicode="&#x146;" horiz-adv-x="1753" 
d="M229 0v1024h150v-270q76 152 227.5 230.5t368.5 78.5q293 0 446.5 -142t153.5 -415v-506h-152v465q0 465 -483 465q-255 0 -407 -125t-152 -336v-469h-152zM831 -479l-36 53q61 28 79.5 60.5t18.5 80.5h-107v168h189v-139q0 -87 -30.5 -138t-113.5 -85z" />
    <glyph glyph-name="Ncaron" unicode="&#x147;" horiz-adv-x="2074" 
d="M1444 1761l-314 -215h-186l-313 215h186l221 -147l219 147h187zM250 0v1454h209l1110 -1147q74 -74 98 -129h4v164v1112h154v-1454h-183l-1136 1174q-67 67 -96 124h-7v-153v-1145h-153z" />
    <glyph glyph-name="ncaron" unicode="&#x148;" horiz-adv-x="1753" 
d="M530 1483h164l271 -238l270 238h164l-342 -307h-183zM229 0v1024h150v-270q76 152 227.5 230.5t368.5 78.5q293 0 446.5 -142t153.5 -415v-506h-152v465q0 465 -483 465q-255 0 -407 -125t-152 -336v-469h-152z" />
    <glyph glyph-name="napostrophe" unicode="&#x149;" horiz-adv-x="1753" 
d="M131 1096l-37 53q60 27 79.5 58.5t19.5 76.5h-107v170h188v-139q0 -86 -30 -135.5t-113 -83.5zM229 0v1024h150v-270q76 152 227.5 230.5t368.5 78.5q293 0 446.5 -142t153.5 -415v-506h-152v465q0 465 -483 465q-255 0 -407 -125t-152 -336v-469h-152z" />
    <glyph glyph-name="Eng" unicode="&#x14a;" horiz-adv-x="2074" 
d="M1671 1454h154v-1474q0 -215 -117 -317.5t-356 -102.5q-120 0 -252 14v150q133 -17 260 -17q308 0 311 293h-29l-1136 1174q-67 67 -96 124h-7v-153v-1145h-153v1454h209l1110 -1147q74 -74 98 -129h4v164v1112z" />
    <glyph glyph-name="eng" unicode="&#x14b;" horiz-adv-x="1753" 
d="M975 1063q293 0 446.5 -142t153.5 -415v-574q0 -350 -418 -350q-103 0 -147 12v125q75 -10 159 -10q129 0 191.5 55t62.5 195v506q0 465 -483 465q-255 0 -407 -125t-152 -336v-469h-152v1024h150v-270q76 152 227.5 230.5t368.5 78.5z" />
    <glyph glyph-name="Omacron" unicode="&#x14c;" horiz-adv-x="2023" 
d="M588 1569v110h850v-110h-850zM1012 -51q-275 0 -488.5 96t-333.5 273.5t-120 408.5t120 408.5t333.5 273.5t488.5 96q274 0 487.5 -96t334 -273.5t120.5 -408.5t-120.5 -408.5t-334 -273.5t-487.5 -96zM1012 90q223 0 397 79t271.5 224t97.5 334t-97.5 334t-271.5 224
t-397 79t-397 -79t-271.5 -224t-97.5 -334t97.5 -334t271.5 -224t397 -79z" />
    <glyph glyph-name="omacron" unicode="&#x14d;" horiz-adv-x="1611" 
d="M338 1260v110h932v-110h-932zM805 -39q-211 0 -374.5 68.5t-254 194t-90.5 288.5t90.5 288.5t254 194t374.5 68.5q212 0 376 -68.5t254.5 -194t90.5 -288.5t-90.5 -288.5t-254.5 -194t-376 -68.5zM805 92q256 0 408.5 113.5t152.5 306.5t-152.5 306.5t-408.5 113.5
q-254 0 -406.5 -113.5t-152.5 -306.5t152.5 -306.5t406.5 -113.5z" />
    <glyph glyph-name="Obreve" unicode="&#x14e;" horiz-adv-x="2023" 
d="M774 1772q8 -53 70.5 -90t167.5 -37t167 37t70 90h129q-13 -108 -115.5 -167t-250.5 -59t-251.5 59t-115.5 167h129zM1012 -51q-275 0 -488.5 96t-333.5 273.5t-120 408.5t120 408.5t333.5 273.5t488.5 96q274 0 487.5 -96t334 -273.5t120.5 -408.5t-120.5 -408.5
t-334 -273.5t-487.5 -96zM1012 90q223 0 397 79t271.5 224t97.5 334t-97.5 334t-271.5 224t-397 79t-397 -79t-271.5 -224t-97.5 -334t97.5 -334t271.5 -224t397 -79z" />
    <glyph glyph-name="obreve" unicode="&#x14f;" horiz-adv-x="1611" 
d="M545 1495q7 -106 75 -162.5t185 -56.5t185 56.5t75 162.5h129q-12 -153 -115 -235t-274 -82t-274 82t-115 235h129zM805 -39q-211 0 -374.5 68.5t-254 194t-90.5 288.5t90.5 288.5t254 194t374.5 68.5q212 0 376 -68.5t254.5 -194t90.5 -288.5t-90.5 -288.5t-254.5 -194
t-376 -68.5zM805 92q256 0 408.5 113.5t152.5 306.5t-152.5 306.5t-408.5 113.5q-254 0 -406.5 -113.5t-152.5 -306.5t152.5 -306.5t406.5 -113.5z" />
    <glyph glyph-name="Ohungarumlaut" unicode="&#x150;" horiz-adv-x="2023" 
d="M762 1556l266 216h164l-279 -216h-151zM1110 1556l266 216h164l-278 -216h-152zM1012 -51q-275 0 -488.5 96t-333.5 273.5t-120 408.5t120 408.5t333.5 273.5t488.5 96q274 0 487.5 -96t334 -273.5t120.5 -408.5t-120.5 -408.5t-334 -273.5t-487.5 -96zM1012 90
q223 0 397 79t271.5 224t97.5 334t-97.5 334t-271.5 224t-397 79t-397 -79t-271.5 -224t-97.5 -334t97.5 -334t271.5 -224t397 -79z" />
    <glyph glyph-name="ohungarumlaut" unicode="&#x151;" horiz-adv-x="1611" 
d="M555 1188l311 307h162l-323 -307h-150zM905 1188l312 307h161l-323 -307h-150zM805 -39q-211 0 -374.5 68.5t-254 194t-90.5 288.5t90.5 288.5t254 194t374.5 68.5q212 0 376 -68.5t254.5 -194t90.5 -288.5t-90.5 -288.5t-254.5 -194t-376 -68.5zM805 92
q256 0 408.5 113.5t152.5 306.5t-152.5 306.5t-408.5 113.5q-254 0 -406.5 -113.5t-152.5 -306.5t152.5 -306.5t406.5 -113.5z" />
    <glyph glyph-name="OE" unicode="&#x152;" horiz-adv-x="3121" 
d="M1741 143h1210v-143h-2052q-181 0 -334 52t-262.5 147.5t-171 237.5t-61.5 315q0 171 64.5 306t179.5 221t270.5 130.5t341.5 44.5h2011v-143h-1196v-494h1161v-143h-1161v-531zM901 143h672v1168h-641q-155 0 -280 -34t-216.5 -101.5t-141.5 -175t-50 -248.5
q0 -295 177 -452t480 -157z" />
    <glyph glyph-name="oe" unicode="&#x153;" horiz-adv-x="2887" 
d="M2777 535v-64h-1255q9 -179 155 -279t406 -100q402 0 547 238l131 -64q-187 -305 -678 -305q-228 0 -395 70.5t-250 201.5q-86 -126 -247 -199t-386 -73q-172 0 -310.5 44.5t-226.5 120.5t-135 175t-47 211t47 211t135 175t226.5 120.5t310.5 44.5q226 0 387.5 -74
t247.5 -201q82 135 245 205t381 70q330 0 520.5 -140.5t190.5 -387.5zM1522 590h1095q-1 111 -75.5 193t-198 122.5t-277.5 40.5q-233 0 -382.5 -96.5t-161.5 -259.5zM805 92q252 0 398.5 106t160.5 277v27q0 27 2 39q-12 174 -159.5 282.5t-401.5 108.5
q-264 0 -411.5 -117.5t-147.5 -302.5q0 -186 147.5 -303t411.5 -117z" />
    <glyph glyph-name="Racute" unicode="&#x154;" horiz-adv-x="1855" 
d="M1309 1772l-342 -216h-183l320 216h205zM1540 0l-428 606h-694v-606h-170v1454h942q111 0 199 -24.5t143.5 -65t92.5 -96t52 -113.5t15 -121q0 -68 -21.5 -130.5t-65.5 -119.5t-121.5 -98.5t-180.5 -56.5l446 -629h-209zM418 1311v-561h745q95 0 166 24t111 65.5t59 91
t19 105.5q0 55 -18 102t-57 87t-110 63t-168 23h-747z" />
    <glyph glyph-name="racute" unicode="&#x155;" horiz-adv-x="1007" 
d="M446 1188l338 307h205l-368 -307h-175zM371 705q45 161 167.5 256.5t290.5 95.5q75 0 136 -13v-149q-56 12 -138 12q-115 0 -190.5 -31.5t-132.5 -95.5q-123 -129 -123 -393v-387h-152v1024h142v-319z" />
    <glyph glyph-name="Rcommaaccent" unicode="&#x156;" horiz-adv-x="1855" 
d="M1749 0h-209l-428 606h-694v-606h-170v1454h942q111 0 199 -24.5t143.5 -65t92.5 -96t52 -113.5t15 -121q0 -68 -21.5 -130.5t-65.5 -119.5t-121.5 -98.5t-180.5 -56.5zM418 1311v-561h745q95 0 166 24t111 65.5t59 91t19 105.5q0 55 -18 102t-57 87t-110 63t-168 23
h-747zM821 -285v168h189v-139q0 -87 -30.5 -138t-113.5 -85l-37 53q61 28 80 60.5t19 80.5h-107z" />
    <glyph glyph-name="rcommaaccent" unicode="&#x157;" horiz-adv-x="1007" 
d="M371 705q45 161 167.5 256.5t290.5 95.5q75 0 136 -13v-149q-56 12 -138 12q-115 0 -190.5 -31.5t-132.5 -95.5q-123 -129 -123 -393v-387h-152v1024h142v-319zM256 -479l-37 53q61 28 79.5 60.5t18.5 80.5h-106v168h188v-139q0 -88 -30 -138.5t-113 -84.5z" />
    <glyph glyph-name="Rcaron" unicode="&#x158;" horiz-adv-x="1855" 
d="M969 1546h-187l-313 215h186l222 -147l219 147h186zM1540 0l-428 606h-694v-606h-170v1454h942q111 0 199 -24.5t143.5 -65t92.5 -96t52 -113.5t15 -121q0 -68 -21.5 -130.5t-65.5 -119.5t-121.5 -98.5t-180.5 -56.5l446 -629h-209zM418 1311v-561h745q95 0 166 24
t111 65.5t59 91t19 105.5q0 55 -18 102t-57 87t-110 63t-168 23h-747z" />
    <glyph glyph-name="rcaron" unicode="&#x159;" horiz-adv-x="1007" 
d="M102 1483h164l271 -238l270 238h164l-342 -307h-183zM371 705q45 161 167.5 256.5t290.5 95.5q75 0 136 -13v-149q-56 12 -138 12q-115 0 -190.5 -31.5t-132.5 -95.5q-123 -129 -123 -393v-387h-152v1024h142v-319z" />
    <glyph glyph-name="Sacute" unicode="&#x15a;" horiz-adv-x="1814" 
d="M815 1556l320 216h204l-342 -216h-182zM967 -51q-382 0 -596.5 126.5t-282.5 389.5l184 24q105 -399 697 -399q280 0 413.5 70t133.5 219q0 127 -92.5 189.5t-309.5 82.5l-469 43q-245 23 -362 118t-117 269q0 204 183 314t523 110q343 0 540 -115t265 -346l-180 -36
q-55 181 -205 268.5t-424 87.5q-256 0 -392 -69.5t-136 -202.5q0 -120 84.5 -176t294.5 -76l452 -45q274 -28 396.5 -122t122.5 -280q0 -221 -182.5 -332.5t-540.5 -111.5z" />
    <glyph glyph-name="sacute" unicode="&#x15b;" horiz-adv-x="1525" 
d="M672 1188l338 307h204l-368 -307h-174zM823 -39q-282 0 -457 84.5t-262 249.5l138 67q133 -276 602 -276q407 0 407 203q0 73 -51 110.5t-180 44.5l-500 31q-360 21 -360 277q0 147 150 229t415 82t432.5 -75.5t233.5 -215.5l-146 -59q-67 119 -189.5 173t-344.5 54
q-192 0 -296 -47t-104 -135q0 -137 230 -152l503 -28q190 -12 274.5 -83t84.5 -198q0 -158 -141.5 -247t-438.5 -89z" />
    <glyph glyph-name="Scircumflex" unicode="&#x15c;" horiz-adv-x="1814" 
d="M1313 1556h-187l-219 148l-221 -148h-186l313 216h186zM967 -51q-382 0 -596.5 126.5t-282.5 389.5l184 24q105 -399 697 -399q280 0 413.5 70t133.5 219q0 127 -92.5 189.5t-309.5 82.5l-469 43q-245 23 -362 118t-117 269q0 204 183 314t523 110q343 0 540 -115
t265 -346l-180 -36q-55 181 -205 268.5t-424 87.5q-256 0 -392 -69.5t-136 -202.5q0 -120 84.5 -176t294.5 -76l452 -45q274 -28 396.5 -122t122.5 -280q0 -221 -182.5 -332.5t-540.5 -111.5z" />
    <glyph glyph-name="scircumflex" unicode="&#x15d;" horiz-adv-x="1525" 
d="M1194 1188h-164l-270 237l-271 -237h-163l342 307h182zM823 -39q-282 0 -457 84.5t-262 249.5l138 67q133 -276 602 -276q407 0 407 203q0 73 -51 110.5t-180 44.5l-500 31q-360 21 -360 277q0 147 150 229t415 82t432.5 -75.5t233.5 -215.5l-146 -59q-67 119 -189.5 173
t-344.5 54q-192 0 -296 -47t-104 -135q0 -137 230 -152l503 -28q190 -12 274.5 -83t84.5 -198q0 -158 -141.5 -247t-438.5 -89z" />
    <glyph glyph-name="Scedilla" unicode="&#x15e;" horiz-adv-x="1814" 
d="M1690 393q0 -221 -181 -332.5t-538 -111.5l-47 -62q45 31 127 31q97 0 154 -40.5t57 -110.5q0 -77 -73 -126t-188 -49q-93 0 -160 33t-93 92l110 21q37 -62 143 -62q65 0 100.5 22.5t35.5 63.5t-32.5 63.5t-92.5 22.5q-79 0 -131 -34l-82 22l73 115q-337 15 -529 141
t-255 373l184 24q105 -399 697 -399q280 0 413.5 70t133.5 219q0 127 -92.5 189.5t-309.5 82.5l-469 43q-245 23 -362 118t-117 269q0 204 183 314t523 110q343 0 540 -115t265 -346l-180 -36q-55 181 -205 268.5t-424 87.5q-256 0 -392 -69.5t-136 -202.5q0 -120 84.5 -176
t294.5 -76l452 -45q274 -28 396.5 -122t122.5 -280z" />
    <glyph glyph-name="scedilla" unicode="&#x15f;" horiz-adv-x="1525" 
d="M1403 297q0 -158 -140 -247t-436 -89l-53 -72q45 31 127 31q97 0 154 -40.5t57 -110.5q0 -77 -72.5 -126t-187.5 -49q-93 0 -160.5 33t-93.5 92l111 21q37 -62 143 -62q65 0 100 22.5t35 63.5t-32.5 63.5t-92.5 22.5q-79 0 -131 -34l-82 22l82 125q-242 13 -395.5 97
t-231.5 235l138 67q133 -276 602 -276q407 0 407 203q0 73 -51 110.5t-180 44.5l-500 31q-360 21 -360 277q0 147 150 229t415 82t432.5 -75.5t233.5 -215.5l-146 -59q-67 119 -189.5 173t-344.5 54q-192 0 -296 -47t-104 -135q0 -137 230 -152l503 -28q190 -12 274.5 -83
t84.5 -198z" />
    <glyph glyph-name="Scaron" unicode="&#x160;" horiz-adv-x="1814" 
d="M1313 1761l-314 -215h-186l-313 215h186l221 -147l219 147h187zM967 -51q-382 0 -596.5 126.5t-282.5 389.5l184 24q105 -399 697 -399q280 0 413.5 70t133.5 219q0 127 -92.5 189.5t-309.5 82.5l-469 43q-245 23 -362 118t-117 269q0 204 183 314t523 110
q343 0 540 -115t265 -346l-180 -36q-55 181 -205 268.5t-424 87.5q-256 0 -392 -69.5t-136 -202.5q0 -120 84.5 -176t294.5 -76l452 -45q274 -28 396.5 -122t122.5 -280q0 -221 -182.5 -332.5t-540.5 -111.5z" />
    <glyph glyph-name="scaron" unicode="&#x161;" horiz-adv-x="1525" 
d="M328 1483h164l270 -238l270 238h164l-342 -307h-182zM823 -39q-282 0 -457 84.5t-262 249.5l138 67q133 -276 602 -276q407 0 407 203q0 73 -51 110.5t-180 44.5l-500 31q-360 21 -360 277q0 147 150 229t415 82t432.5 -75.5t233.5 -215.5l-146 -59q-67 119 -189.5 173
t-344.5 54q-192 0 -296 -47t-104 -135q0 -137 230 -152l503 -28q190 -12 274.5 -83t84.5 -198q0 -158 -141.5 -247t-438.5 -89z" />
    <glyph glyph-name="uni0162" unicode="&#x162;" horiz-adv-x="1605" 
d="M887 0h-37l-84 -111q45 31 127 31q97 0 154 -40.5t57 -110.5q0 -77 -72.5 -126t-187.5 -49q-93 0 -160.5 33t-93.5 92l110 21q37 -62 144 -62q65 0 100 22.5t35 63.5t-32.5 63.5t-92.5 22.5q-79 0 -131 -34l-82 22l104 162h-26v1311h-699v143h1565v-143h-698v-1311z" />
    <glyph glyph-name="uni0163" unicode="&#x163;" horiz-adv-x="1130" 
d="M842 -80q97 0 154 -40.5t57 -110.5q0 -77 -72.5 -126t-187.5 -49q-93 0 -160.5 33t-93.5 92l110 21q37 -62 144 -62q65 0 100 22.5t35 63.5t-32.5 63.5t-92.5 22.5q-79 0 -131 -34l-82 22l94 146q-94 13 -159 48t-98 89t-46.5 111.5t-13.5 129.5v537h-324v125h324v270
l151 66v-336h516v-125h-516v-524q0 -135 71.5 -195.5t211.5 -60.5q107 0 237 28v-133q-37 -17 -109 -27t-141 -10h-8l-65 -88q45 31 127 31z" />
    <glyph glyph-name="Tcaron" unicode="&#x164;" horiz-adv-x="1605" 
d="M895 1546h-186l-314 215h187l221 -147l219 147h186zM1585 1454v-143h-698v-1311h-168v1311h-699v143h1565z" />
    <glyph glyph-name="tcaron" unicode="&#x165;" horiz-adv-x="1130" 
d="M766 1096l-37 53q60 27 79 58.5t19 76.5h-106v170h188v-139q0 -86 -30 -135.5t-113 -83.5zM43 899v125h324v270l151 66v-336h516v-125h-516v-524q0 -135 71.5 -195.5t211.5 -60.5q107 0 237 28v-133q-37 -17 -109 -27t-141 -10q-102 0 -178.5 21.5t-122 56.5t-73.5 87
t-37.5 104t-9.5 116v537h-324z" />
    <glyph glyph-name="Tbar" unicode="&#x166;" horiz-adv-x="1605" 
d="M1585 1311h-698v-402h516v-106h-516v-803h-168v803h-520v106h520v402h-699v143h1565v-143z" />
    <glyph glyph-name="tbar" unicode="&#x167;" horiz-adv-x="1130" 
d="M801 119q107 0 237 28v-133q-37 -17 -109 -27t-141 -10q-102 0 -178.5 21.5t-122 56.5t-73.5 87t-37.5 104t-9.5 116v140h-324v125h324v272h-324v125h324v270l151 66v-336h516v-125h-516v-272h516v-125h-516v-127q0 -135 71.5 -195.5t211.5 -60.5z" />
    <glyph glyph-name="Utilde" unicode="&#x168;" horiz-adv-x="1976" 
d="M1178 1546q-51 0 -97 13.5t-79 32t-64.5 37.5t-68 32.5t-74.5 13.5q-60 0 -99 -29t-49 -83l-115 16q19 99 88.5 153t178.5 54q62 0 118.5 -20t91 -43.5t81.5 -43.5t94 -20q59 0 97 29.5t48 83.5l115 -17q-19 -100 -87.5 -154.5t-178.5 -54.5zM190 1454h168v-792
q0 -119 43 -222.5t121.5 -181t199 -122t267.5 -44.5q145 0 264.5 44.5t198.5 122t121.5 181.5t42.5 222v792h170v-797q0 -154 -53.5 -283.5t-153 -224t-251 -147.5t-339.5 -53q-190 0 -342 53t-251.5 147.5t-152.5 224t-53 283.5v797z" />
    <glyph glyph-name="utilde" unicode="&#x169;" horiz-adv-x="1730" 
d="M1049 1198q-57 0 -107.5 15.5t-87.5 37.5t-71 44t-74.5 37.5t-83.5 15.5q-66 0 -110 -35.5t-54 -98.5l-115 17q19 109 93 168t192 59q57 0 107 -15t87 -37t71 -43.5t74.5 -36.5t82.5 -15q68 0 112 35t54 98l114 -19q-20 -108 -94 -167.5t-190 -59.5zM760 -39
q-580 0 -580 547v516h150v-510q0 -100 27.5 -177t70.5 -123t104.5 -74.5t121 -39t128.5 -10.5q118 0 216 29.5t162 77.5t108 110.5t63 126.5t19 129v461h151v-1024h-149v295q-68 -164 -222 -249t-370 -85z" />
    <glyph glyph-name="Umacron" unicode="&#x16a;" horiz-adv-x="1976" 
d="M565 1569v110h850v-110h-850zM190 1454h168v-792q0 -119 43 -222.5t121.5 -181t199 -122t267.5 -44.5q145 0 264.5 44.5t198.5 122t121.5 181.5t42.5 222v792h170v-797q0 -154 -53.5 -283.5t-153 -224t-251 -147.5t-339.5 -53q-190 0 -342 53t-251.5 147.5t-152.5 224
t-53 283.5v797z" />
    <glyph glyph-name="umacron" unicode="&#x16b;" horiz-adv-x="1730" 
d="M371 1260v110h932v-110h-932zM760 -39q-580 0 -580 547v516h150v-510q0 -100 27.5 -177t70.5 -123t104.5 -74.5t121 -39t128.5 -10.5q118 0 216 29.5t162 77.5t108 110.5t63 126.5t19 129v461h151v-1024h-149v295q-68 -164 -222 -249t-370 -85z" />
    <glyph glyph-name="Ubreve" unicode="&#x16c;" horiz-adv-x="1976" 
d="M752 1772q8 -53 70 -90t167 -37t167.5 37t70.5 90h129q-13 -108 -116 -167t-251 -59t-251 59t-115 167h129zM190 1454h168v-792q0 -119 43 -222.5t121.5 -181t199 -122t267.5 -44.5q145 0 264.5 44.5t198.5 122t121.5 181.5t42.5 222v792h170v-797q0 -154 -53.5 -283.5
t-153 -224t-251 -147.5t-339.5 -53q-190 0 -342 53t-251.5 147.5t-152.5 224t-53 283.5v797z" />
    <glyph glyph-name="ubreve" unicode="&#x16d;" horiz-adv-x="1730" 
d="M578 1495q7 -106 75 -162.5t185 -56.5t185 56.5t75 162.5h129q-12 -153 -115 -235t-274 -82t-274 82t-115 235h129zM760 -39q-580 0 -580 547v516h150v-510q0 -100 27.5 -177t70.5 -123t104.5 -74.5t121 -39t128.5 -10.5q118 0 216 29.5t162 77.5t108 110.5t63 126.5
t19 129v461h151v-1024h-149v295q-68 -164 -222 -249t-370 -85z" />
    <glyph glyph-name="Uring" unicode="&#x16e;" horiz-adv-x="1976" 
d="M987 1511q-98 0 -158.5 57t-60.5 148t60.5 148t158.5 57t158.5 -57t60.5 -148t-60.5 -148t-158.5 -57zM987 1599q52 0 83.5 32.5t31.5 84.5q0 53 -31.5 86t-83.5 33t-84.5 -33t-32.5 -86q0 -51 32.5 -84t84.5 -33zM190 1454h168v-792q0 -119 43 -222.5t121.5 -181
t199 -122t267.5 -44.5q145 0 264.5 44.5t198.5 122t121.5 181.5t42.5 222v792h170v-797q0 -154 -53.5 -283.5t-153 -224t-251 -147.5t-339.5 -53q-190 0 -342 53t-251.5 147.5t-152.5 224t-53 283.5v797z" />
    <glyph glyph-name="uring" unicode="&#x16f;" horiz-adv-x="1730" 
d="M838 1145q-144 0 -228 55.5t-84 149.5q0 93 84 147.5t228 54.5t227.5 -54.5t83.5 -147.5q0 -94 -83.5 -149.5t-227.5 -55.5zM838 1225q99 0 154 33.5t55 91.5q0 57 -55.5 91t-153.5 34t-154.5 -34.5t-56.5 -90.5q0 -58 56 -91.5t155 -33.5zM760 -39q-580 0 -580 547v516
h150v-510q0 -100 27.5 -177t70.5 -123t104.5 -74.5t121 -39t128.5 -10.5q118 0 216 29.5t162 77.5t108 110.5t63 126.5t19 129v461h151v-1024h-149v295q-68 -164 -222 -249t-370 -85z" />
    <glyph glyph-name="Uhungarumlaut" unicode="&#x170;" horiz-adv-x="1976" 
d="M739 1556l267 216h163l-278 -216h-152zM1087 1556l267 216h164l-279 -216h-152zM190 1454h168v-792q0 -119 43 -222.5t121.5 -181t199 -122t267.5 -44.5q145 0 264.5 44.5t198.5 122t121.5 181.5t42.5 222v792h170v-797q0 -154 -53.5 -283.5t-153 -224t-251 -147.5
t-339.5 -53q-190 0 -342 53t-251.5 147.5t-152.5 224t-53 283.5v797z" />
    <glyph glyph-name="uhungarumlaut" unicode="&#x171;" horiz-adv-x="1730" 
d="M588 1188l311 307h162l-324 -307h-149zM938 1188l311 307h162l-324 -307h-149zM760 -39q-580 0 -580 547v516h150v-510q0 -100 27.5 -177t70.5 -123t104.5 -74.5t121 -39t128.5 -10.5q118 0 216 29.5t162 77.5t108 110.5t63 126.5t19 129v461h151v-1024h-149v295
q-68 -164 -222 -249t-370 -85z" />
    <glyph glyph-name="Uogonek" unicode="&#x172;" horiz-adv-x="1976" 
d="M1616 1454h170v-797q0 -275 -163.5 -463t-459.5 -233q-84 -32 -129 -79t-45 -99q0 -49 33 -79t86 -30q107 0 143 109l107 -23q-19 -83 -87 -126.5t-177 -43.5q-98 0 -163 51t-65 128q0 109 105 180q-369 6 -575 201t-206 507v797h168v-792q0 -119 43 -222.5t121.5 -181
t199 -122t267.5 -44.5q145 0 264.5 44.5t198.5 122t121.5 181.5t42.5 222v792z" />
    <glyph glyph-name="uogonek" unicode="&#x173;" horiz-adv-x="1730" 
d="M1430 -217l106 -23q-19 -83 -87 -126.5t-177 -43.5q-98 0 -163 51t-65 128q0 94 78 160.5t230 101.5v264q-68 -164 -222 -249t-370 -85q-580 0 -580 547v516h150v-510q0 -100 27.5 -177t70.5 -123t104.5 -74.5t121 -39t128.5 -10.5q118 0 216 29.5t162 77.5t108 110.5
t63 126.5t19 129v461h151v-1024h-2q-158 -22 -245 -82.5t-87 -134.5q0 -49 33 -79t86 -30q108 0 144 109z" />
    <glyph glyph-name="Wcircumflex" unicode="&#x174;" horiz-adv-x="2609" 
d="M1710 1556h-186l-219 148l-222 -148h-186l313 216h187zM578 0l-525 1454h178l422 -1212q32 -95 33 -97h2q8 33 35 97l498 1212h165l500 -1212q31 -86 33 -97h4q1 3 33 97l422 1212h178l-524 -1454h-209l-482 1182q-29 68 -32 102h-9q-3 -34 -32 -102l-482 -1182h-208z
" />
    <glyph glyph-name="wcircumflex" unicode="&#x175;" horiz-adv-x="2273" 
d="M1573 1188h-164l-270 237l-271 -237h-163l342 307h182zM508 0l-471 1024h164l368 -813q22 -46 31 -86h4q5 17 35 86l412 813h172l411 -813q30 -69 35 -86h4q9 40 31 86l369 813h163l-471 -1024h-188l-408 809q-21 44 -30 88h-4q-8 -41 -31 -88l-408 -809h-188z" />
    <glyph glyph-name="Ycircumflex" unicode="&#x176;" horiz-adv-x="1720" 
d="M1266 1556h-187l-219 148l-221 -148h-186l313 216h186zM768 0v532l-766 922h213l584 -706q45 -52 55 -84h4q11 37 55 84l590 706h215l-780 -922v-532h-170z" />
    <glyph glyph-name="ycircumflex" unicode="&#x177;" horiz-adv-x="1429" 
d="M1149 1188h-164l-270 237l-271 -237h-163l342 307h182zM203 -420q-58 0 -113 8v133q56 -6 100 -6q167 0 276.5 66.5t166.5 177.5l18 37l-645 1028h182l498 -815q23 -39 43 -88h4q11 30 41 88l477 815h172l-643 -1090q-110 -188 -245.5 -271t-331.5 -83z" />
    <glyph glyph-name="Ydieresis" unicode="&#x178;" horiz-adv-x="1720" 
d="M438 1556v216h203v-216h-203zM1077 1556v216h203v-216h-203zM768 0v532l-766 922h213l584 -706q45 -52 55 -84h4q11 37 55 84l590 706h215l-780 -922v-532h-170z" />
    <glyph glyph-name="Zacute" unicode="&#x179;" horiz-adv-x="1732" 
d="M791 1556l319 216h205l-342 -216h-182zM117 135l1257 1176h-1206v143h1444v-133l-1260 -1178h1309v-143h-1544v135z" />
    <glyph glyph-name="zacute" unicode="&#x17a;" horiz-adv-x="1511" 
d="M680 1188l338 307h205l-369 -307h-174zM125 129l1028 766h-983v129h1206v-127l-1036 -768h1073v-129h-1288v129z" />
    <glyph glyph-name="Zdotaccent" unicode="&#x17b;" horiz-adv-x="1732" 
d="M791 1556v216h184v-216h-184zM117 135l1257 1176h-1206v143h1444v-133l-1260 -1178h1309v-143h-1544v135z" />
    <glyph glyph-name="zdotaccent" unicode="&#x17c;" horiz-adv-x="1511" 
d="M674 1210v232h184v-232h-184zM125 129l1028 766h-983v129h1206v-127l-1036 -768h1073v-129h-1288v129z" />
    <glyph glyph-name="Zcaron" unicode="&#x17d;" horiz-adv-x="1732" 
d="M1288 1761l-313 -215h-187l-313 215h187l221 -147l219 147h186zM117 135l1257 1176h-1206v143h1444v-133l-1260 -1178h1309v-143h-1544v135z" />
    <glyph glyph-name="zcaron" unicode="&#x17e;" horiz-adv-x="1511" 
d="M336 1483h164l270 -238l270 238h164l-342 -307h-182zM125 129l1028 766h-983v129h1206v-127l-1036 -768h1073v-129h-1288v129z" />
    <glyph glyph-name="florin" unicode="&#x192;" horiz-adv-x="1275" 
d="M1034 1335q-156 0 -233.5 -66t-106.5 -235l-28 -166h524v-118h-545l-180 -1057h-156l185 1057h-418v118h440l25 146q23 132 63.5 220.5t104 140.5t144.5 73.5t194 21.5q96 0 186 -28v-139q-98 32 -199 32z" />
    <glyph glyph-name="AEacute" unicode="&#x1fc;" horiz-adv-x="3121" 
d="M2564 1772l-342 -216h-182l319 216h205zM1638 143h1311v-143h-1479v328h-950l-323 -328h-207l1458 1454h1487v-143h-1297v-494h1262v-143h-1262v-531zM659 471h811v823z" />
    <glyph glyph-name="aeacute" unicode="&#x1fd;" horiz-adv-x="2717" 
d="M1821 1495l-369 -307h-174l338 307h205zM2607 539v-66h-1175q9 -179 144.5 -280t375.5 -101q371 0 508 240l131 -62q-178 -309 -639 -309q-228 0 -390.5 79t-234.5 224q-184 -303 -686 -303q-245 0 -378.5 78t-133.5 223t124.5 219.5t381.5 81.5l637 21v53
q0 154 -107 226.5t-336 72.5q-226 0 -354 -68t-145 -198h-162q29 187 204.5 290t461.5 103q416 0 542 -225q84 111 228.5 168t332.5 57q311 0 490.5 -139.5t179.5 -384.5zM2447 594v2q-1 108 -70.5 188.5t-183.5 121t-256 40.5q-218 0 -356.5 -95.5t-148.5 -256.5h1015z
M1274 436v39l-637 -22q-181 -6 -264.5 -51t-83.5 -136q0 -182 373 -182q173 0 313 45t219.5 125.5t79.5 181.5z" />
    <glyph glyph-name="Oslashacute" unicode="&#x1fe;" horiz-adv-x="2023" 
d="M1454 1772l-342 -216h-182l319 216h205zM1737 1251q217 -211 217 -524q0 -231 -120.5 -408.5t-334 -273.5t-487.5 -96q-372 0 -623 172l-186 -158l-90 94l174 146q-217 211 -217 524q0 231 120 408.5t333.5 273.5t488.5 96q371 0 622 -172l185 154l92 -90zM246 727
q0 -249 166 -418l1097 920q-203 135 -497 135q-223 0 -397 -79t-271.5 -224t-97.5 -334zM1012 90q223 0 397 79t271.5 224t97.5 334q0 249 -166 418l-1098 -920q206 -135 498 -135z" />
    <glyph glyph-name="oslashacute" unicode="&#x1ff;" horiz-adv-x="1611" 
d="M1290 1495l-368 -307h-174l337 307h205zM1366 877q160 -144 160 -365q0 -163 -90.5 -288.5t-254.5 -194t-376 -68.5q-284 0 -475 121l-166 -127l-74 76l154 119q-158 145 -158 362q0 163 90.5 288.5t254 194t374.5 68.5q280 0 473 -119l164 127l76 -78zM246 512
q0 -163 114 -274l799 616q-146 78 -354 78q-254 0 -406.5 -113.5t-152.5 -306.5zM805 92q256 0 408.5 113.5t152.5 306.5q0 165 -117 276l-800 -614q142 -82 356 -82z" />
    <glyph glyph-name="Scommaaccent" unicode="&#x218;" horiz-adv-x="1814" 
d="M967 -51q-382 0 -596.5 126.5t-282.5 389.5l184 24q105 -399 697 -399q280 0 413.5 70t133.5 219q0 127 -92.5 189.5t-309.5 82.5l-469 43q-245 23 -362 118t-117 269q0 204 183 314t523 110q343 0 540 -115t265 -346l-180 -36q-55 181 -205 268.5t-424 87.5
q-256 0 -392 -69.5t-136 -202.5q0 -120 84.5 -176t294.5 -76l452 -45q274 -28 396.5 -122t122.5 -280q0 -221 -182.5 -332.5t-540.5 -111.5zM911 -481l-37 53q61 28 80 60.5t19 80.5h-107v168h189v-139q0 -87 -30.5 -138t-113.5 -85z" />
    <glyph glyph-name="scommaaccent" unicode="&#x219;" horiz-adv-x="1525" 
d="M823 -39q-282 0 -457 84.5t-262 249.5l138 67q133 -276 602 -276q407 0 407 203q0 73 -51 110.5t-180 44.5l-500 31q-360 21 -360 277q0 147 150 229t415 82t432.5 -75.5t233.5 -215.5l-146 -59q-67 119 -189.5 173t-344.5 54q-192 0 -296 -47t-104 -135q0 -137 230 -152
l503 -28q190 -12 274.5 -83t84.5 -198q0 -158 -141.5 -247t-438.5 -89zM762 -479l-37 53q61 28 79.5 60.5t18.5 80.5h-106v168h188v-139q0 -88 -30 -138.5t-113 -84.5z" />
    <glyph glyph-name="uni021A" unicode="&#x21a;" horiz-adv-x="1605" 
d="M20 1454h1565v-143h-698v-1311h-168v1311h-699v143zM709 -285v168h188v-139q0 -88 -30 -138.5t-113 -84.5l-37 53q61 28 79.5 60.5t18.5 80.5h-106z" />
    <glyph glyph-name="uni021B" unicode="&#x21b;" horiz-adv-x="1130" 
d="M43 899v125h324v270l151 66v-336h516v-125h-516v-524q0 -135 71.5 -195.5t211.5 -60.5q107 0 237 28v-133q-37 -17 -109 -27t-141 -10q-102 0 -178.5 21.5t-122 56.5t-73.5 87t-37.5 104t-9.5 116v537h-324zM702 -479l-36 53q61 28 79.5 60.5t18.5 80.5h-107v168h189
v-139q0 -87 -30.5 -138t-113.5 -85z" />
    <glyph glyph-name="uni0237" unicode="&#x237;" horiz-adv-x="641" 
d="M57 -420q-101 0 -163 12v134q93 -11 176 -11q95 0 142.5 59.5t47.5 202.5v1047h152v-1075q0 -80 -18 -144t-57.5 -116t-110.5 -80.5t-169 -28.5z" />
    <glyph glyph-name="uni0243" unicode="&#x243;" horiz-adv-x="1900" 
d="M1751 399q0 -179 -125.5 -286t-361.5 -113v-207h-111v207h-412v-207h-110v207h-381v1423h381v201h110v-201h412v201h111v-201q218 -9 333 -103.5t115 -258.5q0 -126 -70 -210t-196 -112q148 -28 226.5 -114.5t78.5 -225.5zM1217 1286h-807v-489h815q160 0 240.5 65
t80.5 182q0 118 -83 180t-246 62zM1235 137q177 0 263.5 69t86.5 197q0 127 -91.5 197t-266.5 70h-817v-533h825z" />
    <glyph glyph-name="circumflex" unicode="&#x2c6;" horiz-adv-x="1228" 
d="M901 1188h-164l-270 237l-270 -237h-164l342 307h182z" />
    <glyph glyph-name="caron" unicode="&#x2c7;" horiz-adv-x="1228" 
d="M35 1483h164l270 -238l270 238h164l-342 -307h-182z" />
    <glyph glyph-name="breve" unicode="&#x2d8;" horiz-adv-x="1228" 
d="M246 1495q7 -106 75 -162.5t185 -56.5t185 56.5t75 162.5h129q-12 -153 -115 -235t-274 -82t-274 82t-115 235h129z" />
    <glyph glyph-name="dotaccent" unicode="&#x2d9;" horiz-adv-x="1228" 
d="M100 1210v232h185v-232h-185z" />
    <glyph glyph-name="ring" unicode="&#x2da;" horiz-adv-x="1228" 
d="M360 1145q-144 0 -227.5 55.5t-83.5 149.5q0 93 83.5 147.5t227.5 54.5t228 -54.5t84 -147.5q0 -94 -84 -149.5t-228 -55.5zM360 1225q99 0 154 33.5t55 91.5q0 57 -55.5 91t-153.5 34t-154 -34.5t-56 -90.5q0 -58 55.5 -91.5t154.5 -33.5z" />
    <glyph glyph-name="ogonek" unicode="&#x2db;" horiz-adv-x="1228" 
d="M584 -240q-19 -83 -87.5 -126.5t-177.5 -43.5q-98 0 -162.5 51t-64.5 128q0 191 309 262l146 -31q-158 -22 -245 -82.5t-87 -134.5q0 -49 33 -79t86 -30q107 0 143 109z" />
    <glyph glyph-name="tilde" unicode="&#x2dc;" horiz-adv-x="1228" 
d="M807 1198q-57 0 -107.5 15.5t-87.5 37.5t-71 44t-74.5 37.5t-83.5 15.5q-66 0 -110 -35.5t-54 -98.5l-115 17q19 109 93 168t192 59q57 0 107 -15t87 -37t71 -43.5t74.5 -36.5t82.5 -15q68 0 112 35t54 98l115 -19q-20 -108 -94.5 -167.5t-190.5 -59.5z" />
    <glyph glyph-name="hungarumlaut" unicode="&#x2dd;" horiz-adv-x="1228" 
d="M104 1188l312 307h162l-324 -307h-150zM455 1188l311 307h162l-324 -307h-149z" />
    <glyph glyph-name="gravecomb" unicode="&#x300;" horiz-adv-x="0" 
d="M-20 1188h-175l-368 307h205z" />
    <glyph glyph-name="acutecomb" unicode="&#x301;" horiz-adv-x="0" 
d="M-551 1188l338 307h205l-369 -307h-174z" />
    <glyph glyph-name="uni0302" unicode="&#x302;" horiz-adv-x="0" 
d="M-35 1188h-164l-270 237l-270 -237h-164l342 307h182z" />
    <glyph glyph-name="tildecomb" unicode="&#x303;" horiz-adv-x="0" 
d="M-389 1198q-57 0 -107.5 15.5t-87.5 37.5t-71 44t-74.5 37.5t-83.5 15.5q-66 0 -110 -35.5t-54 -98.5l-115 17q19 109 93 168t192 59q57 0 107 -15t87 -37t71 -43.5t74.5 -36.5t82.5 -15q68 0 112 35t54 98l115 -19q-20 -108 -94.5 -167.5t-190.5 -59.5z" />
    <glyph glyph-name="uni0304" unicode="&#x304;" horiz-adv-x="0" 
d="M-1034 1260v110h932v-110h-932z" />
    <glyph glyph-name="uni0306" unicode="&#x306;" horiz-adv-x="0" 
d="M-762 1495q7 -106 75 -162.5t185 -56.5t185 56.5t75 162.5h129q-12 -153 -115 -235t-274 -82t-274 82t-115 235h129z" />
    <glyph glyph-name="uni0307" unicode="&#x307;" horiz-adv-x="0" 
d="M-289 1210v232h185v-232h-185z" />
    <glyph glyph-name="uni0308" unicode="&#x308;" horiz-adv-x="0" 
d="M-956 1221v229h202v-229h-202zM-307 1221v229h203v-229h-203z" />
    <glyph glyph-name="uni030A" unicode="&#x30a;" horiz-adv-x="0" 
d="M-360 1145q-144 0 -228 55.5t-84 149.5q0 93 84 147.5t228 54.5t227.5 -54.5t83.5 -147.5q0 -94 -83.5 -149.5t-227.5 -55.5zM-360 1225q99 0 153.5 33.5t54.5 91.5q0 57 -55 91t-153 34t-154.5 -34.5t-56.5 -90.5q0 -58 56 -91.5t155 -33.5z" />
    <glyph glyph-name="uni030B" unicode="&#x30b;" horiz-adv-x="0" 
d="M-825 1188l311 307h162l-324 -307h-149zM-475 1188l311 307h162l-324 -307h-149z" />
    <glyph glyph-name="uni030C" unicode="&#x30c;" horiz-adv-x="0" 
d="M-901 1483h164l270 -238l270 238h164l-342 -307h-182z" />
    <glyph glyph-name="uni0312" unicode="&#x312;" horiz-adv-x="0" 
d="M-154 1550l37 -53q-61 -28 -79.5 -60.5t-18.5 -80.5h106v-168h-188v139q0 88 30 138.5t113 84.5z" />
    <glyph glyph-name="uni0326" unicode="&#x326;" horiz-adv-x="0" 
d="M-246 -479l-37 53q61 28 80 60.5t19 80.5h-107v168h189v-139q0 -87 -30.5 -138t-113.5 -85z" />
    <glyph glyph-name="uni0327" unicode="&#x327;" horiz-adv-x="0" 
d="M-453 12h105l-92 -123q45 31 127 31q97 0 154 -40.5t57 -110.5q0 -77 -72.5 -126t-187.5 -49q-93 0 -160.5 33t-93.5 92l110 21q37 -62 144 -62q65 0 100 22.5t35 63.5t-32.5 63.5t-92.5 22.5q-79 0 -131 -34l-82 22z" />
    <glyph glyph-name="uni0328" unicode="&#x328;" horiz-adv-x="0" 
d="M-113 -240q-19 -83 -87 -126.5t-177 -43.5q-98 0 -162.5 51t-64.5 128q0 191 309 262l145 -31q-158 -22 -244.5 -82.5t-86.5 -134.5q0 -49 33 -79t86 -30q107 0 143 109z" />
    <glyph glyph-name="uni0394" unicode="&#x394;" horiz-adv-x="1890" 
d="M76 0l784 1430h176l779 -1430h-1739zM946 1282l-635 -1149h1258z" />
    <glyph glyph-name="uni03A9" unicode="&#x3a9;" horiz-adv-x="1957" 
d="M1778 0h-656l-28 416q277 28 424 145.5t147 308.5q0 223 -178.5 347t-507.5 124t-507.5 -124t-178.5 -347q0 -191 147 -308.5t424 -145.5l-30 -416h-654v141h522l15 178q-276 44 -427 190t-151 365q0 276 227 438.5t613 162.5t613 -162.5t227 -438.5q0 -219 -151 -365
t-427 -190l14 -178h523v-141z" />
    <glyph glyph-name="uni03BC" unicode="&#x3bc;" horiz-adv-x="1779" 
d="M1399 1024h151v-1024h-149v295q-68 -164 -222 -249t-370 -85q-302 0 -447 148v-508h-133v1423h150v-510q0 -100 27.5 -177t70.5 -123t104.5 -74.5t121 -39t128.5 -10.5q118 0 216 29.5t162 77.5t108 110.5t63 126.5t19 129v461z" />
    <glyph glyph-name="pi" unicode="&#x3c0;" horiz-adv-x="1828" 
d="M1761 -2q-48 -12 -133 -12q-70 0 -122 13.5t-83 35.5t-50 55t-25.5 66.5t-6.5 74.5v672h-856v-903h-149v903h-273v121h1700v-121h-270v-663q0 -70 40 -100.5t118 -30.5q25 0 46.5 2t39.5 4.5t24 3.5v-121z" />
    <glyph glyph-name="uni0E3F" unicode="&#xe3f;" horiz-adv-x="1900" 
d="M1430 731q321 -49 321 -340q0 -186 -135.5 -288.5t-378.5 -102.5h-223v-207h-107v207h-657v1423h657v201h107v-201h203q241 0 368 -93.5t127 -268.5q0 -128 -73.5 -214.5t-208.5 -115.5zM406 1292v-501h501v501h-501zM1217 1292h-203v-501h207q159 0 242 66.5t83 195.5
q0 118 -84 178.5t-245 60.5zM406 131h501v533h-501v-533zM1235 131q173 0 261.5 66.5t88.5 197.5q0 132 -89.5 200.5t-262.5 68.5h-219v-533h221z" />
    <glyph glyph-name="Wgrave" unicode="&#x1e80;" horiz-adv-x="2609" 
d="M1374 1556h-182l-342 216h205zM578 0l-525 1454h178l422 -1212q32 -95 33 -97h2q8 33 35 97l498 1212h165l500 -1212q31 -86 33 -97h4q1 3 33 97l422 1212h178l-524 -1454h-209l-482 1182q-29 68 -32 102h-9q-3 -34 -32 -102l-482 -1182h-208z" />
    <glyph glyph-name="wgrave" unicode="&#x1e81;" horiz-adv-x="2273" 
d="M1227 1188h-174l-369 307h205zM508 0l-471 1024h164l368 -813q22 -46 31 -86h4q5 17 35 86l412 813h172l411 -813q30 -69 35 -86h4q9 40 31 86l369 813h163l-471 -1024h-188l-408 809q-21 44 -30 88h-4q-8 -41 -31 -88l-408 -809h-188z" />
    <glyph glyph-name="Wacute" unicode="&#x1e82;" horiz-adv-x="2609" 
d="M1212 1556l320 216h205l-342 -216h-183zM578 0l-525 1454h178l422 -1212q32 -95 33 -97h2q8 33 35 97l498 1212h165l500 -1212q31 -86 33 -97h4q1 3 33 97l422 1212h178l-524 -1454h-209l-482 1182q-29 68 -32 102h-9q-3 -34 -32 -102l-482 -1182h-208z" />
    <glyph glyph-name="wacute" unicode="&#x1e83;" horiz-adv-x="2273" 
d="M1051 1188l338 307h204l-368 -307h-174zM508 0l-471 1024h164l368 -813q22 -46 31 -86h4q5 17 35 86l412 813h172l411 -813q30 -69 35 -86h4q9 40 31 86l369 813h163l-471 -1024h-188l-408 809q-21 44 -30 88h-4q-8 -41 -31 -88l-408 -809h-188z" />
    <glyph glyph-name="Wdieresis" unicode="&#x1e84;" horiz-adv-x="2609" 
d="M883 1556v216h202v-216h-202zM1522 1556v216h202v-216h-202zM578 0l-525 1454h178l422 -1212q32 -95 33 -97h2q8 33 35 97l498 1212h165l500 -1212q31 -86 33 -97h4q1 3 33 97l422 1212h178l-524 -1454h-209l-482 1182q-29 68 -32 102h-9q-3 -34 -32 -102l-482 -1182
h-208z" />
    <glyph glyph-name="wdieresis" unicode="&#x1e85;" horiz-adv-x="2273" 
d="M713 1221v229h202v-229h-202zM1362 1221v229h203v-229h-203zM508 0l-471 1024h164l368 -813q22 -46 31 -86h4q5 17 35 86l412 813h172l411 -813q30 -69 35 -86h4q9 40 31 86l369 813h163l-471 -1024h-188l-408 809q-21 44 -30 88h-4q-8 -41 -31 -88l-408 -809h-188z" />
    <glyph glyph-name="Ygrave" unicode="&#x1ef2;" horiz-adv-x="1720" 
d="M930 1556h-182l-342 216h204zM768 0v532l-766 922h213l584 -706q45 -52 55 -84h4q11 37 55 84l590 706h215l-780 -922v-532h-170z" />
    <glyph glyph-name="ygrave" unicode="&#x1ef3;" horiz-adv-x="1429" 
d="M803 1188h-174l-369 307h205zM203 -420q-58 0 -113 8v133q56 -6 100 -6q167 0 276.5 66.5t166.5 177.5l18 37l-645 1028h182l498 -815q23 -39 43 -88h4q11 30 41 88l477 815h172l-643 -1090q-110 -188 -245.5 -271t-331.5 -83z" />
    <glyph glyph-name="uni2002" unicode="&#x2002;" horiz-adv-x="1024" 
 />
    <glyph glyph-name="uni2003" unicode="&#x2003;" horiz-adv-x="2048" 
 />
    <glyph glyph-name="uni2004" unicode="&#x2004;" horiz-adv-x="0" 
 />
    <glyph glyph-name="uni2005" unicode="&#x2005;" horiz-adv-x="512" 
 />
    <glyph glyph-name="uni2009" unicode="&#x2009;" horiz-adv-x="276" 
 />
    <glyph glyph-name="uni200A" unicode="&#x200a;" horiz-adv-x="153" 
 />
    <glyph glyph-name="endash" unicode="&#x2013;" horiz-adv-x="1650" 
d="M125 631h1399v-123h-1399v123z" />
    <glyph glyph-name="emdash" unicode="&#x2014;" horiz-adv-x="2226" 
d="M125 631h1976v-123h-1976v123z" />
    <glyph glyph-name="quoteleft" unicode="&#x2018;" horiz-adv-x="641" 
d="M399 1485l41 -86q-129 -44 -129 -185v-4h127v-243h-239v209q0 128 46.5 201t153.5 108z" />
    <glyph glyph-name="quoteright" unicode="&#x2019;" horiz-adv-x="641" 
d="M242 936l-41 86q129 44 129 184v4h-127v244h239v-209q0 -128 -46.5 -201t-153.5 -108z" />
    <glyph glyph-name="quotesinglbase" unicode="&#x201a;" horiz-adv-x="641" 
d="M242 -274l-41 86q129 44 129 184v4h-127v244h239v-209q0 -128 -46.5 -201t-153.5 -108z" />
    <glyph glyph-name="quotedblleft" unicode="&#x201c;" horiz-adv-x="1011" 
d="M399 1485l41 -86q-129 -44 -129 -185v-4h127v-243h-239v209q0 128 46.5 201t153.5 108zM770 1485l41 -86q-129 -44 -129 -185v-4h127v-243h-240v209q0 128 47 201t154 108z" />
    <glyph glyph-name="quotedblright" unicode="&#x201d;" horiz-adv-x="1011" 
d="M242 936l-41 86q129 44 129 184v4h-127v244h239v-209q0 -128 -46.5 -201t-153.5 -108zM612 936l-41 86q129 44 129 184v4h-127v244h240v-209q0 -128 -47 -201t-154 -108z" />
    <glyph glyph-name="quotedblbase" unicode="&#x201e;" horiz-adv-x="1011" 
d="M242 -274l-41 86q129 44 129 184v4h-127v244h239v-209q0 -128 -46.5 -201t-153.5 -108zM612 -274l-41 86q129 44 129 184v4h-127v244h240v-209q0 -128 -47 -201t-154 -108z" />
    <glyph glyph-name="dagger" unicode="&#x2020;" horiz-adv-x="1374" 
d="M762 905v-1110h-152v1110h-465v123h465v447h152v-447h469v-123h-469z" />
    <glyph glyph-name="daggerdbl" unicode="&#x2021;" horiz-adv-x="1374" 
d="M1231 905h-469v-538h469v-123h-469v-449h-152v449h-465v123h465v538h-465v123h465v447h152v-447h469v-123z" />
    <glyph glyph-name="bullet" unicode="&#x2022;" horiz-adv-x="741" 
d="M371 541q-74 0 -122 46t-48 120q0 77 48 124.5t122 47.5t122 -47.5t48 -124.5q0 -74 -48 -120t-122 -46z" />
    <glyph glyph-name="ellipsis" unicode="&#x2026;" horiz-adv-x="1988" 
d="M438 219v-219h-237v219h237zM1112 219v-219h-238v219h238zM1788 219v-219h-238v219h238z" />
    <glyph glyph-name="perthousand" unicode="&#x2030;" horiz-adv-x="3072" 
d="M348 -43l1229 1518h166l-1231 -1518h-164zM506 727q-198 0 -318 101t-120 270q0 164 120 265t316 101q193 0 314.5 -103t121.5 -269q0 -163 -121 -264t-313 -101zM506 842q136 0 218.5 67.5t82.5 182.5q0 118 -83 188t-220 70q-139 0 -223 -68.5t-84 -183.5
q0 -119 84 -187.5t225 -68.5zM1602 -35q-198 0 -318.5 101.5t-120.5 269.5q0 164 120 265t316 101q193 0 315 -103t122 -269q0 -163 -121 -264t-313 -101zM2572 -35q-198 0 -318 101t-120 270q0 164 120 265t316 101q193 0 314.5 -103t121.5 -269q0 -163 -121 -264
t-313 -101zM1602 80q136 0 218.5 67.5t82.5 182.5q0 118 -83.5 188t-220.5 70q-139 0 -223 -68.5t-84 -183.5q0 -119 84.5 -187.5t225.5 -68.5zM2572 80q136 0 218.5 67.5t82.5 182.5q0 118 -83 188t-220 70q-139 0 -223 -68.5t-84 -183.5q0 -119 84 -187.5t225 -68.5z" />
    <glyph glyph-name="guilsinglleft" unicode="&#x2039;" horiz-adv-x="811" 
d="M569 137l-495 426l504 424h186l-492 -422l486 -428h-189z" />
    <glyph glyph-name="guilsinglright" unicode="&#x203a;" horiz-adv-x="811" 
d="M242 137h-189l486 428l-492 422h186l504 -424z" />
    <glyph glyph-name="fraction" unicode="&#x2044;" horiz-adv-x="444" 
d="M-465 -35l1208 1524h166l-1210 -1524h-164z" />
    <glyph glyph-name="uni20A9" unicode="&#x20a9;" horiz-adv-x="2816" 
d="M2740 1423l-207 -512h199v-102h-240l-73 -184h313v-105h-356l-209 -520h-178l-238 520h-684l-240 -520h-180l-209 520h-354v105h313l-75 184h-238v102h197l-205 512h157l199 -512h666l237 512h146l237 -512h664l198 512h160zM1305 1040l-60 -129h326l-60 129
q-76 167 -100 248h-8q-20 -78 -98 -248zM473 809l72 -184h422l84 184h-578zM1114 625h588l-84 184h-420zM2269 625l72 184h-576l84 -184h420zM846 365l72 155h-334l57 -145q68 -170 96 -256h4q17 65 105 246zM2173 375l57 145h-332l72 -155q8 -17 21.5 -46.5t19.5 -42
t16 -33.5t14.5 -31.5t10.5 -25.5t9.5 -24.5t7 -21t6.5 -21.5h4q38 114 94 256z" />
    <glyph glyph-name="Euro" unicode="&#x20ac;" horiz-adv-x="1943" 
d="M1096 96q194 0 354.5 70t261.5 221l135 -65q-104 -171 -300.5 -269t-456.5 -98q-153 0 -282.5 30t-225 82t-168.5 126t-117.5 158t-67.5 181h-215v107h197q-4 62 -4 90q0 45 6 92h-199v109h219q31 117 100.5 213.5t176.5 170t261 114t341 40.5q257 0 449.5 -88.5
t289.5 -242.5l-153 -78q-178 270 -598 270q-291 0 -467.5 -106t-235.5 -293h973v-109h-995q-6 -43 -6 -90q0 -45 6 -92h995v-107h-975q59 -202 238.5 -319t462.5 -117z" />
    <glyph glyph-name="uni20B9" unicode="&#x20b9;" horiz-adv-x="1626" 
d="M1573 1423v-118h-543q134 -79 152 -248h391v-107h-391q-38 -370 -584 -370h-186l710 -580h-219l-735 621v81h428q207 0 308 59t116 189h-852v107h854q-30 248 -356 248h-498v118h1405z" />
    <glyph glyph-name="uni20BA" unicode="&#x20ba;" horiz-adv-x="1544" 
d="M1352 483l151 -22q-106 -461 -624 -461h-572v563l-246 -49v109l246 49v202l-246 -49v111l246 49v438h160v-405l815 164v-111l-815 -164v-202l815 163v-110l-815 -162v-453h389q95 0 171.5 19.5t128.5 50.5t92 76.5t63.5 91.5t40.5 102z" />
    <glyph glyph-name="uni20BD" unicode="&#x20bd;" horiz-adv-x="1630" 
d="M1083 584h-632v-181h661v-108h-661v-295h-162v295h-238v108h238v181h-238v125h238v714h792q226 0 357 -110.5t131 -302.5q0 -197 -131 -311.5t-355 -114.5zM451 1280v-571h630q148 0 235 79t87 213q0 129 -87.5 204t-236.5 75h-628z" />
    <glyph glyph-name="uni2105" unicode="&#x2105;" horiz-adv-x="2160" 
d="M530 -29h-149l1229 1524h149zM88 1124q0 165 121 265t323 100q155 0 266.5 -66t149.5 -182l-131 -27q-27 76 -102.5 117t-182.5 41q-144 0 -229.5 -66.5t-85.5 -181.5q0 -121 85.5 -188.5t232.5 -67.5q111 0 184 42t96 122l129 -24q-32 -120 -141 -188t-268 -68
q-203 0 -325 101t-122 271zM1636 0q-199 0 -319.5 101t-120.5 270q0 165 120.5 264.5t317.5 99.5q195 0 317 -101.5t122 -268.5q0 -164 -121.5 -264.5t-315.5 -100.5zM1942 365q0 119 -83.5 187.5t-224.5 68.5q-139 0 -223 -67t-84 -183q0 -120 84 -188t225 -68
q139 0 222.5 67t83.5 183z" />
    <glyph glyph-name="uni2113" unicode="&#x2113;" horiz-adv-x="1153" 
d="M397 354q0 -122 70 -177.5t221 -55.5q99 0 236 14v-135q-117 -18 -258 -18q-121 0 -205 26.5t-130 79t-65.5 118t-19.5 154.5v43q-86 -29 -258 -73l-54 112q198 56 312 97v557q0 88 22 158.5t58.5 116.5t87 77t105 44t114.5 13q189 0 286 -106t97 -289
q0 -215 -157.5 -373.5t-461.5 -277.5v-105zM397 1126v-532q110 45 191.5 93t145.5 109.5t97 139.5t33 172q0 281 -235 281q-108 0 -170 -69.5t-62 -193.5z" />
    <glyph glyph-name="uni2116" unicode="&#x2116;" horiz-adv-x="3354" 
d="M250 0v1454h209l1110 -1147q74 -74 98 -129h4v164v1112h154v-1454h-183l-1136 1174q-67 67 -96 124h-7v-153v-1145h-153zM2570 406q-287 0 -453.5 128t-166.5 326q0 95 42 178t120 144t196 96t262 35q286 0 452.5 -128.5t166.5 -324.5q0 -198 -166.5 -326t-452.5 -128z
M2570 518q219 0 344 94t125 248q0 153 -125 246.5t-344 93.5q-221 0 -346 -93.5t-125 -246.5q0 -154 125.5 -248t345.5 -94zM1950 0v131h1239v-131h-1239z" />
    <glyph glyph-name="trademark" unicode="&#x2122;" horiz-adv-x="2295" 
d="M418 639v731h-408v100h953v-100h-426v-731h-119zM1057 639v831h174l293 -571q50 -99 75 -174h7q35 91 77 174l291 571h176v-831h-112v586q0 90 6 145h-4q-9 -20 -62 -129l-313 -602h-125l-311 602q-28 52 -64 129h-2q4 -55 4 -145v-586h-110z" />
    <glyph glyph-name="uni2126" unicode="&#x2126;" horiz-adv-x="1957" 
d="M1778 0h-656l-28 416q277 28 424 145.5t147 308.5q0 223 -178.5 347t-507.5 124t-507.5 -124t-178.5 -347q0 -191 147 -308.5t424 -145.5l-30 -416h-654v141h522l15 178q-276 44 -427 190t-151 365q0 276 227 438.5t613 162.5t613 -162.5t227 -438.5q0 -219 -151 -365
t-427 -190l14 -178h523v-141z" />
    <glyph glyph-name="estimated" unicode="&#x212e;" horiz-adv-x="1896" 
d="M1827 737h-1440v-477q78 -73 189.5 -118t211 -60.5t207.5 -15.5q235 0 405.5 70.5t303.5 223.5l82 -67q-263 -330 -791 -330q-149 0 -283 27t-252.5 86t-204.5 145.5t-135.5 214t-49.5 283.5q0 149 48 274t133 214t200.5 151.5t249.5 92.5t282 30q386 0 615 -183
t229 -485v-76zM1530 1208q-183 174 -555 174q-72 0 -144.5 -9.5t-152 -30.5t-156 -61.5t-135.5 -96.5v-344h1143v368z" />
    <glyph glyph-name="uni2153" unicode="&#x2153;" horiz-adv-x="2162" 
d="M195 -35l1208 1524h166l-1211 -1524h-163zM328 664v618q-36 -51 -99 -75.5t-131 -24.5h-43v116h25q98 0 173 41.5t99 116.5h119v-792h-143zM1626 -29q-199 0 -316.5 75t-119.5 200l143 8q1 -86 80 -135t213 -49q129 0 212 37.5t83 115.5q0 66 -64.5 99.5t-224.5 33.5h-94
v99h92q271 0 271 125q0 69 -77 105t-200 36q-137 0 -211.5 -46t-75.5 -136l-143 6q2 127 116.5 200.5t315.5 73.5q189 0 304.5 -57t115.5 -170q0 -46 -21 -80t-57 -54t-77 -31t-89 -15q128 -8 197 -56t69 -131q0 -123 -122.5 -188.5t-319.5 -65.5z" />
    <glyph glyph-name="uni2154" unicode="&#x2154;" horiz-adv-x="2537" 
d="M569 -35l1209 1524h166l-1211 -1524h-164zM84 664v88q316 141 414 194q201 109 248 207q16 35 16 72q0 71 -68 115t-190 44q-52 0 -96 -8t-84.5 -25.5t-64 -51.5t-23.5 -82q0 -21 2 -35l-144 10q-2 12 -2 39q0 86 59 144.5t148.5 83t202.5 24.5q119 0 207.5 -23.5
t145 -79.5t56.5 -141q0 -44 -20 -87t-51 -79t-82 -73.5t-98.5 -66t-115.5 -62t-118 -55.5t-121 -52h629v-100h-850zM2001 -29q-199 0 -316.5 75t-119.5 200l143 8q1 -86 80 -135t213 -49q129 0 212 37.5t83 115.5q0 66 -64.5 99.5t-224.5 33.5h-94v99h92q270 0 270 125
q0 69 -76.5 105t-199.5 36q-137 0 -211.5 -46t-75.5 -136l-143 6q2 127 116.5 200.5t315.5 73.5q189 0 304.5 -57t115.5 -170q0 -46 -21 -80t-57 -54t-77 -31t-89 -15q128 -8 197 -56t69 -131q0 -123 -122.5 -188.5t-319.5 -65.5z" />
    <glyph glyph-name="oneeighth" unicode="&#x215b;" horiz-adv-x="2166" 
d="M1403 1489h166l-1211 -1524h-163zM328 1282q-36 -51 -99 -75.5t-131 -24.5h-43v116h25q98 0 173 41.5t99 116.5h119v-792h-143v618zM1821 430q141 -25 200.5 -80t59.5 -145q0 -111 -118 -172.5t-331 -61.5q-204 0 -323 62t-119 166q0 159 252 200q-225 46 -225 201
q0 101 111.5 160t303.5 59q197 0 311.5 -56.5t114.5 -154.5q0 -75 -56 -117t-181 -61zM1360 596q0 -57 52 -90t165 -45l123 -15q121 19 167 51t46 95q0 66 -76 104.5t-205 38.5q-122 0 -197 -38.5t-75 -100.5zM1632 57q140 0 220.5 42.5t80.5 115.5q0 61 -51.5 97t-173.5 53
l-141 16q-117 -20 -173.5 -59.5t-56.5 -100.5q0 -74 80 -119t215 -45z" />
    <glyph glyph-name="threeeighths" unicode="&#x215c;" horiz-adv-x="2566" 
d="M1802 1489h166l-1210 -1524h-164zM965 889q0 -123 -123 -188.5t-320 -65.5q-199 0 -316.5 74.5t-119.5 199.5l143 9q1 -86 80 -135.5t213 -49.5q129 0 212 38t83 116q0 66 -64.5 99.5t-224.5 33.5h-94v98h92q271 0 271 125q0 69 -77 105t-200 36q-137 0 -211.5 -46
t-75.5 -136l-143 6q2 127 116.5 201t315.5 74q189 0 304.5 -57.5t115.5 -170.5q0 -46 -21 -80t-57 -54t-77 -31t-89 -15q128 -8 197.5 -55.5t69.5 -130.5zM2220 430q141 -25 200.5 -80t59.5 -145q0 -111 -117.5 -172.5t-330.5 -61.5q-204 0 -323.5 62t-119.5 166
q0 159 252 200q-225 46 -225 201q0 101 112 160t304 59q197 0 311.5 -56.5t114.5 -154.5q0 -75 -56.5 -117t-181.5 -61zM1759 596q0 -57 52 -90t165 -45l123 -15q121 19 167 51t46 95q0 66 -75.5 104.5t-204.5 38.5q-122 0 -197.5 -38.5t-75.5 -100.5zM2032 57
q140 0 220.5 42.5t80.5 115.5q0 61 -52 97t-174 53l-141 16q-117 -20 -173 -59.5t-56 -100.5q0 -74 80 -119t215 -45z" />
    <glyph glyph-name="fiveeighths" unicode="&#x215d;" horiz-adv-x="2512" 
d="M1749 1489h166l-1210 -1524h-164zM928 922q0 -128 -118.5 -207.5t-313.5 -79.5q-169 0 -280 62.5t-130 166.5l137 10q17 -68 91 -106.5t188 -38.5q130 0 205 52t75 139q0 88 -71.5 136t-204.5 48q-97 0 -176.5 -35.5t-98.5 -85.5l-122 10l49 463h714v-92h-606l-30 -291
q42 57 125 87t192 30q176 0 275.5 -72t99.5 -196zM2167 430q141 -25 200.5 -80t59.5 -145q0 -111 -118 -172.5t-331 -61.5q-204 0 -323 62t-119 166q0 159 252 200q-225 46 -225 201q0 101 111.5 160t303.5 59q197 0 311.5 -56.5t114.5 -154.5q0 -75 -56 -117t-181 -61z
M1706 596q0 -57 52 -90t165 -45l123 -15q121 19 167 51t46 95q0 66 -76 104.5t-205 38.5q-122 0 -197 -38.5t-75 -100.5zM1978 57q140 0 220.5 42.5t80.5 115.5q0 61 -51.5 97t-173.5 53l-141 16q-117 -20 -173.5 -59.5t-56.5 -100.5q0 -74 80 -119t215 -45z" />
    <glyph glyph-name="seveneighths" unicode="&#x215e;" horiz-adv-x="2308" 
d="M1544 1489h166l-1210 -1524h-164zM471 664h-147v4q-4 199 106.5 377.5t310.5 306.5h-704v104h835v-104q-182 -117 -291.5 -299.5t-109.5 -388.5zM1962 430q141 -25 200.5 -80t59.5 -145q0 -111 -117.5 -172.5t-330.5 -61.5q-204 0 -323.5 62t-119.5 166q0 159 252 200
q-225 46 -225 201q0 101 112 160t304 59q197 0 311.5 -56.5t114.5 -154.5q0 -75 -56.5 -117t-181.5 -61zM1501 596q0 -57 52 -90t165 -45l123 -15q121 19 167 51t46 95q0 66 -75.5 104.5t-204.5 38.5q-122 0 -197.5 -38.5t-75.5 -100.5zM1774 57q140 0 220.5 42.5
t80.5 115.5q0 61 -52 97t-174 53l-141 16q-117 -20 -173 -59.5t-56 -100.5q0 -74 80 -119t215 -45z" />
    <glyph glyph-name="arrowleft" unicode="&#x2190;" horiz-adv-x="2658" 
d="M2408 625h-1843v-185l-315 236l315 235v-184h1843v-102z" />
    <glyph glyph-name="arrowup" unicode="&#x2191;" horiz-adv-x="970" 
d="M434 -72v1293h-184l235 315l238 -315h-184v-1293h-105z" />
    <glyph glyph-name="arrowright" unicode="&#x2192;" horiz-adv-x="2658" 
d="M250 727h1843v184l315 -235l-315 -236v185h-1843v102z" />
    <glyph glyph-name="arrowdown" unicode="&#x2193;" horiz-adv-x="970" 
d="M537 1526v-1293h184l-236 -315l-237 315h184v1293h105z" />
    <glyph glyph-name="arrowboth" unicode="&#x2194;" horiz-adv-x="2668" 
d="M2103 625h-1538v-185l-315 236l315 235v-184h1538v184l316 -235l-316 -236v185z" />
    <glyph glyph-name="arrowupdn" unicode="&#x2195;" horiz-adv-x="970" 
d="M250 233h182v988h-182l235 315l238 -315h-184v-988h184l-238 -315z" />
    <glyph glyph-name="uni2196" unicode="&#x2196;" horiz-adv-x="1970" 
d="M403 1221l-153 -156v389h387l-156 -156l1239 -1241l-75 -75z" />
    <glyph glyph-name="uni2197" unicode="&#x2197;" horiz-adv-x="1970" 
d="M1567 1223l-1241 -1239l-76 75l1239 1241l-156 156h387v-389z" />
    <glyph glyph-name="uni2198" unicode="&#x2198;" horiz-adv-x="1970" 
d="M1567 256l153 156v-389h-387l156 155l-1239 1241l76 76z" />
    <glyph glyph-name="uni2199" unicode="&#x2199;" horiz-adv-x="1970" 
d="M403 256l1242 1239l75 -76l-1239 -1241l156 -155h-387v389z" />
    <glyph glyph-name="uni21A9" unicode="&#x21a9;" horiz-adv-x="2656" 
d="M565 440l-315 236l315 235v-184h1288q227 0 334 71.5t107 213.5q0 141 -107 211.5t-334 70.5h-876v101h897q266 0 400 -97.5t134 -285.5q0 -387 -565 -387h-1278v-185z" />
    <glyph glyph-name="uni21AA" unicode="&#x21aa;" horiz-adv-x="2656" 
d="M2091 440v185h-1278q-565 0 -565 387q0 188 134 285.5t400 97.5h897v-101h-876q-227 0 -334 -70.5t-107 -211.5q0 -142 107 -213.5t334 -71.5h1288v184l315 -235z" />
    <glyph glyph-name="uni21B0" unicode="&#x21b0;" horiz-adv-x="2615" 
d="M2259 0v1178h-1694v-185l-315 236l315 235v-184h1800v-1280h-106z" />
    <glyph glyph-name="uni21B1" unicode="&#x21b1;" horiz-adv-x="2615" 
d="M356 0h-106v1280h1800v184l315 -235l-315 -236v185h-1694v-1178z" />
    <glyph glyph-name="uni21B2" unicode="&#x21b2;" horiz-adv-x="2615" 
d="M2259 1454h106v-1280h-1800v-184l-315 235l315 236v-185h1694v1178z" />
    <glyph glyph-name="uni21B3" unicode="&#x21b3;" horiz-adv-x="2615" 
d="M356 1454v-1178h1694v185l315 -236l-315 -235v184h-1800v1280h106z" />
    <glyph glyph-name="uni21B4" unicode="&#x21b4;" horiz-adv-x="2801" 
d="M2370 1454v-1163h182l-236 -316l-237 316h184v1063h-2013v100h2120z" />
    <glyph glyph-name="uni21BB" unicode="&#x21bb;" horiz-adv-x="2566" 
d="M1843 721h185v2q0 147 -66 270.5t-179 207t-266 129.5t-325 46q-230 0 -417 -78.5t-297.5 -227.5t-110.5 -343q0 -193 110.5 -343.5t297.5 -231t415 -80.5q191 0 369 55t303 152l69 -89q-140 -110 -331.5 -169.5t-409.5 -59.5q-191 0 -362.5 55t-299.5 153t-203 242
t-75 312q0 169 75 313t202.5 242.5t299.5 153.5t365 55q196 0 369.5 -55t301.5 -153t202.5 -242t74.5 -314v-2h176l-235 -315z" />
    <glyph glyph-name="uni21C4" unicode="&#x21c4;" horiz-adv-x="2785" 
d="M2392 862h-1827v-184l-315 235l315 236v-184h1827v-103zM2220 489v185l315 -236l-315 -235v184h-1827v102h1827z" />
    <glyph glyph-name="uni21C5" unicode="&#x21c5;" horiz-adv-x="1460" 
d="M922 96v1125h-185l236 315l237 -315h-184v-1125h-104zM485 -82l-235 315h182v1125h107v-1125h184z" />
    <glyph glyph-name="partialdiff" unicode="&#x2202;" horiz-adv-x="1581" 
d="M672 1477q392 0 597.5 -209t205.5 -580q0 -216 -82 -377.5t-247.5 -253.5t-397.5 -92q-291 0 -465 137.5t-174 356.5q0 217 166.5 347t467.5 130q182 0 332 -56t246 -167v10q0 291 -166 455.5t-483 164.5q-159 0 -303 -38l-37 125q151 47 340 47zM754 96
q113 0 210.5 28.5t175 84.5t125 146t54.5 206q-173 244 -569 244q-243 0 -366.5 -92.5t-123.5 -253.5q0 -163 132 -263t362 -100z" />
    <glyph glyph-name="emptyset" unicode="&#x2205;" horiz-adv-x="1454" 
d="M1223 932q125 -125 125 -309q0 -219 -168.5 -350.5t-452.5 -131.5q-248 0 -410 103l-153 -117l-78 76l143 108q-125 125 -125 310q0 217 170 349t453 132q248 0 410 -103l151 117l78 -76zM244 623q0 -138 92 -230l690 525q-120 63 -299 63q-224 0 -353.5 -97t-129.5 -261
zM727 262q224 0 352.5 97.5t128.5 261.5q0 136 -92 231l-690 -524q129 -66 301 -66z" />
    <glyph glyph-name="uni2206" unicode="&#x2206;" horiz-adv-x="1890" 
d="M76 0l784 1430h176l779 -1430h-1739zM946 1282l-635 -1149h1258z" />
    <glyph glyph-name="product" unicode="&#x220f;" horiz-adv-x="1931" 
d="M1540 -180v1483h-1149v-1483h-151v1624h1454v-1624h-154z" />
    <glyph glyph-name="summation" unicode="&#x2211;" horiz-adv-x="1703" 
d="M102 -180v119l920 727l-893 661v117h1440v-137h-1188l870 -637l-921 -713h1263v-137h-1491z" />
    <glyph glyph-name="minus" unicode="&#x2212;" horiz-adv-x="1402" 
d="M125 600v143h1151v-143h-1151z" />
    <glyph glyph-name="radical" unicode="&#x221a;" horiz-adv-x="1640" 
d="M63 610h381l258 -618l713 1513h154l-795 -1698h-137l-297 678h-277v125z" />
    <glyph glyph-name="infinity" unicode="&#x221e;" horiz-adv-x="1634" 
d="M1184 950q136 0 225.5 -71t89.5 -205q0 -129 -92 -204t-229 -75q-106 0 -201 48t-166 130q-73 -82 -158.5 -131t-201.5 -49q-134 0 -225 72t-91 205q0 130 92 205t230 75q108 0 201.5 -48t164.5 -130q46 52 92.5 88t117.5 63t151 27zM467 522q88 0 150 39.5t122 110.5
q-122 151 -276 151q-81 0 -137 -38.5t-56 -112.5q0 -72 57 -111t140 -39zM1171 520q81 0 137 39t56 113q0 73 -57 111t-140 38q-87 0 -149.5 -39t-122.5 -110q60 -71 126 -111.5t150 -40.5z" />
    <glyph glyph-name="integral" unicode="&#x222b;" horiz-adv-x="1204" 
d="M190 -236q-59 0 -124 9v133q61 -10 131 -10q77 0 132 17t96.5 57t62 111.5t20.5 176.5v729q0 475 465 475q73 0 129 -10v-131q-61 10 -135 10q-76 0 -129.5 -16.5t-94.5 -56.5t-61 -110.5t-20 -174.5v-729q0 -243 -121.5 -361.5t-350.5 -118.5z" />
    <glyph glyph-name="approxequal" unicode="&#x2248;" 
d="M1104 756q-81 0 -180 27.5t-197 55t-176 27.5q-86 0 -168 -27.5t-135 -70.5v141q48 43 131.5 71t167.5 28q74 0 153 -17.5t135.5 -38t129 -38t135.5 -17.5q86 0 166.5 27t132.5 71v-141q-47 -43 -129.5 -70.5t-165.5 -27.5zM1104 360q-81 0 -180 28t-197 55.5t-176 27.5
q-87 0 -169 -27t-134 -71v141q47 43 131 70.5t168 27.5q74 0 153 -17t135.5 -38t129 -38t135.5 -17q85 0 165.5 27.5t133.5 70.5v-141q-46 -43 -129 -71t-166 -28z" />
    <glyph glyph-name="notequal" unicode="&#x2260;" 
d="M1395 793h-449l-133 -238h582v-143h-662l-158 -279h-112l158 279h-377v143h456l136 238h-592v143h671l154 270h111l-152 -270h367v-143z" />
    <glyph glyph-name="lessequal" unicode="&#x2264;" 
d="M1389 268l-1139 430v127l1139 430v-145l-967 -346l967 -348v-148zM256 133h1137v-133h-1137v133z" />
    <glyph glyph-name="greaterequal" unicode="&#x2265;" 
d="M256 268v148l967 348l-967 346v145l1139 -430v-127zM1389 133v-133h-1137v133h1137z" />
    <glyph glyph-name="uni2460" unicode="&#x2460;" horiz-adv-x="1957" 
d="M979 -51q-274 0 -478.5 91t-317.5 267.5t-113 419.5t113 419.5t317.5 267.5t478.5 91q273 0 477.5 -91t318 -268t113.5 -419t-113.5 -419t-318 -268t-477.5 -91zM979 35q240 0 422.5 82t284.5 239.5t102 370.5t-102 370.5t-284.5 239.5t-422.5 82t-423 -82t-285.5 -239.5
t-102.5 -370.5t102.5 -370.5t285.5 -239.5t423 -82zM954 332v618q-36 -51 -98.5 -75.5t-130.5 -24.5h-43v117h25q98 0 173 41.5t99 115.5h119v-792h-144z" />
    <glyph glyph-name="uni2461" unicode="&#x2461;" horiz-adv-x="1957" 
d="M979 -51q-274 0 -478.5 91t-317.5 267.5t-113 419.5t113 419.5t317.5 267.5t478.5 91q273 0 477.5 -91t318 -268t113.5 -419t-113.5 -419t-318 -268t-477.5 -91zM979 35q240 0 422.5 82t284.5 239.5t102 370.5t-102 370.5t-284.5 239.5t-422.5 82t-423 -82t-285.5 -239.5
t-102.5 -370.5t102.5 -370.5t285.5 -239.5t423 -82zM553 340v88q316 141 414 194q201 109 248 207q16 35 16 72q0 71 -68.5 115.5t-189.5 44.5q-52 0 -96.5 -8t-84.5 -26t-63.5 -52t-23.5 -82q0 -21 2 -35l-144 10q-2 12 -2 39q0 86 59 144.5t148.5 83t202.5 24.5
q119 0 207.5 -23.5t145 -79.5t56.5 -141q0 -44 -20 -87t-51 -79t-82 -73.5t-98.5 -66t-115.5 -62t-118 -55.5t-121 -52h629v-100h-850z" />
    <glyph glyph-name="uni2462" unicode="&#x2462;" horiz-adv-x="1957" 
d="M979 -51q-274 0 -478.5 91t-317.5 267.5t-113 419.5t113 419.5t317.5 267.5t478.5 91q273 0 477.5 -91t318 -268t113.5 -419t-113.5 -419t-318 -268t-477.5 -91zM979 35q240 0 422.5 82t284.5 239.5t102 370.5t-102 370.5t-284.5 239.5t-422.5 82t-423 -82t-285.5 -239.5
t-102.5 -370.5t102.5 -370.5t285.5 -239.5t423 -82zM975 303q-199 0 -316.5 75t-119.5 200l143 8q1 -86 80 -135.5t213 -49.5q129 0 212 38t83 116q0 66 -64.5 99.5t-224.5 33.5h-94v98h92q270 0 270 125q0 69 -76.5 105.5t-199.5 36.5q-136 0 -211 -46.5t-76 -136.5l-143 7
q2 127 116.5 200.5t315.5 73.5q189 0 304.5 -57t115.5 -170q0 -46 -21 -80.5t-57 -54.5t-77 -31t-89 -15q128 -8 197 -55.5t69 -130.5q0 -123 -122.5 -188.5t-319.5 -65.5z" />
    <glyph glyph-name="uni2463" unicode="&#x2463;" horiz-adv-x="1957" 
d="M979 -51q-274 0 -478.5 91t-317.5 267.5t-113 419.5t113 419.5t317.5 267.5t478.5 91q273 0 477.5 -91t318 -268t113.5 -419t-113.5 -419t-318 -268t-477.5 -91zM979 35q240 0 422.5 82t284.5 239.5t102 370.5t-102 370.5t-284.5 239.5t-422.5 82t-423 -82t-285.5 -239.5
t-102.5 -370.5t102.5 -370.5t285.5 -239.5t423 -82zM1442 557h-232v-192h-141v192h-635v90l627 510h149v-508h232v-92zM1069 1055l-502 -406h502v406z" />
    <glyph glyph-name="uni2464" unicode="&#x2464;" horiz-adv-x="1957" 
d="M979 -51q-274 0 -478.5 91t-317.5 267.5t-113 419.5t113 419.5t317.5 267.5t478.5 91q273 0 477.5 -91t318 -268t113.5 -419t-113.5 -419t-318 -268t-477.5 -91zM979 35q240 0 422.5 82t284.5 239.5t102 370.5t-102 370.5t-284.5 239.5t-422.5 82t-423 -82t-285.5 -239.5
t-102.5 -370.5t102.5 -370.5t285.5 -239.5t423 -82zM969 317q-168 0 -279.5 63t-130.5 167l137 10q17 -68 91 -106.5t188 -38.5q130 0 205 51.5t75 138.5q0 88 -71.5 136t-204.5 48q-97 0 -176 -35t-98 -85l-123 10l49 463h715v-92h-607l-30 -291q42 56 124.5 86t192.5 30
q176 0 275.5 -72t99.5 -196q0 -128 -118.5 -207.5t-313.5 -79.5z" />
    <glyph glyph-name="uni2465" unicode="&#x2465;" horiz-adv-x="1957" 
d="M979 1505q273 0 477.5 -91t318 -268t113.5 -419t-113.5 -419t-318 -268t-477.5 -91q-274 0 -478.5 91t-317.5 267.5t-113 419.5t113 419.5t317.5 267.5t478.5 91zM979 35q240 0 422.5 82t284.5 239.5t102 370.5t-102 370.5t-284.5 239.5t-422.5 82t-423 -82
t-285.5 -239.5t-102.5 -370.5t102.5 -370.5t285.5 -239.5t423 -82zM1028 860q186 0 290.5 -73.5t104.5 -202.5q0 -131 -116.5 -206t-317.5 -75q-454 0 -454 408q0 215 120 327.5t346 112.5q167 0 270 -54t134 -157l-143 -10q-45 131 -265 131q-162 0 -245.5 -81t-83.5 -265
v-4q42 74 135.5 111.5t224.5 37.5zM989 397q132 0 210.5 49.5t78.5 137.5q0 83 -75.5 130.5t-205.5 47.5q-254 0 -315 -164q52 -201 307 -201z" />
    <glyph glyph-name="uni2466" unicode="&#x2466;" horiz-adv-x="1957" 
d="M979 -51q-274 0 -478.5 91t-317.5 267.5t-113 419.5t113 419.5t317.5 267.5t478.5 91q273 0 477.5 -91t318 -268t113.5 -419t-113.5 -419t-318 -268t-477.5 -91zM979 35q240 0 422.5 82t284.5 239.5t102 370.5t-102 370.5t-284.5 239.5t-422.5 82t-423 -82t-285.5 -239.5
t-102.5 -370.5t102.5 -370.5t285.5 -239.5t423 -82zM563 1020v104h836v-104q-182 -117 -292 -299.5t-110 -388.5h-147v4q-4 199 106.5 377.5t311.5 306.5h-705z" />
    <glyph glyph-name="uni2467" unicode="&#x2467;" horiz-adv-x="1957" 
d="M979 1505q273 0 477.5 -91t318 -268t113.5 -419t-113.5 -419t-318 -268t-477.5 -91q-274 0 -478.5 91t-317.5 267.5t-113 419.5t113 419.5t317.5 267.5t478.5 91zM979 35q240 0 422.5 82t284.5 239.5t102 370.5t-102 370.5t-284.5 239.5t-422.5 82t-423 -82
t-285.5 -239.5t-102.5 -370.5t102.5 -370.5t285.5 -239.5t423 -82zM1165 762q141 -25 200.5 -80t59.5 -145q0 -111 -117.5 -172.5t-330.5 -61.5q-204 0 -323 61.5t-119 165.5q0 160 251 201q-225 46 -225 201q0 101 112 160t304 59q197 0 311.5 -56.5t114.5 -154.5
q0 -75 -56.5 -117t-181.5 -61zM705 928q0 -57 52 -90t165 -45l122 -15q121 19 167 51t46 95q0 66 -75.5 104.5t-204.5 38.5q-122 0 -197 -38.5t-75 -100.5zM977 389q140 0 220.5 42.5t80.5 115.5q0 61 -51.5 96.5t-173.5 52.5l-142 17q-117 -20 -173 -59.5t-56 -100.5
q0 -74 80 -119t215 -45z" />
    <glyph glyph-name="uni2468" unicode="&#x2468;" horiz-adv-x="1957" 
d="M979 1505q273 0 477.5 -91t318 -268t113.5 -419t-113.5 -419t-318 -268t-477.5 -91q-274 0 -478.5 91t-317.5 267.5t-113 419.5t113 419.5t317.5 267.5t478.5 91zM979 35q240 0 422.5 82t284.5 239.5t102 370.5t-102 370.5t-284.5 239.5t-422.5 82t-423 -82
t-285.5 -239.5t-102.5 -370.5t102.5 -370.5t285.5 -239.5t423 -82zM965 1151q458 0 458 -387q0 -461 -462 -461q-166 0 -269.5 60t-132.5 174l141 8q22 -63 90 -103.5t177 -40.5q162 0 241 80t80 248q-99 -113 -356 -113q-183 0 -289 71t-106 196q0 127 116.5 197.5
t311.5 70.5zM969 702q110 0 193 33t122 90q-19 124 -94 182t-215 58q-135 0 -215 -48.5t-80 -133.5t79 -133t210 -48z" />
    <glyph glyph-name="uni24EA" unicode="&#x24ea;" horiz-adv-x="1957" 
d="M979 -51q-274 0 -478.5 91t-317.5 267.5t-113 419.5t113 419.5t317.5 267.5t478.5 91q273 0 477.5 -91t318 -268t113.5 -419t-113.5 -419t-318 -268t-477.5 -91zM979 35q240 0 422.5 82t284.5 239.5t102 370.5t-102 370.5t-284.5 239.5t-422.5 82t-423 -82t-285.5 -239.5
t-102.5 -370.5t102.5 -370.5t285.5 -239.5t423 -82zM981 303q-217 0 -348 112t-131 314q0 198 132.5 310t346.5 112q215 0 347 -113t132 -313q0 -199 -131 -310.5t-348 -111.5zM981 401q149 0 241.5 83.5t92.5 240.5q0 160 -92.5 244t-241.5 84q-148 0 -242 -83.5
t-94 -240.5q0 -160 92.5 -244t243.5 -84z" />
    <glyph glyph-name="uni24FF" unicode="&#x24ff;" horiz-adv-x="1957" 
d="M979 -51q-273 0 -478 92t-318 268.5t-113 417.5t113 417.5t318 268.5t478 92q274 0 478.5 -92t317.5 -268.5t113 -417.5t-113 -417.5t-317.5 -268.5t-478.5 -92zM981 303q215 0 346 111.5t131 312.5t-132 312.5t-347 111.5q-212 0 -345.5 -111t-133.5 -309
q0 -204 132 -316t349 -112zM981 406q-148 0 -239 82t-91 243q0 157 92.5 238.5t235.5 81.5q147 0 237.5 -82.5t90.5 -241.5t-90 -240t-236 -81z" />
    <glyph glyph-name="lozenge" unicode="&#x25ca;" horiz-adv-x="1406" 
d="M770 -35h-135l-580 762l580 762h133l584 -762zM702 1370l-481 -643l481 -643l486 643z" />
    <glyph glyph-name="circle" unicode="&#x25cb;" horiz-adv-x="1955" 
d="M979 -51q-274 0 -478.5 91t-317.5 267.5t-113 419.5t113 419.5t317.5 267.5t478.5 91q273 0 477.5 -91t318 -268t113.5 -419t-113.5 -419t-318 -268t-477.5 -91zM979 35q240 0 422.5 82t284.5 239.5t102 370.5t-102 370.5t-284.5 239.5t-422.5 82t-423 -82t-285.5 -239.5
t-102.5 -370.5t102.5 -370.5t285.5 -239.5t423 -82z" />
    <glyph glyph-name="uni2776" unicode="&#x2776;" horiz-adv-x="1957" 
d="M979 -51q-273 0 -478 92t-318 268.5t-113 417.5t113 417.5t318 268.5t478 92q274 0 478.5 -92t317.5 -268.5t113 -417.5t-113 -417.5t-317.5 -268.5t-478.5 -92zM950 332h152v792h-125q-22 -74 -98 -115.5t-174 -41.5h-25v-121h45q65 0 126.5 24.5t98.5 77.5v-616z" />
    <glyph glyph-name="uni2777" unicode="&#x2777;" horiz-adv-x="1957" 
d="M979 -51q-273 0 -478 92t-318 268.5t-113 417.5t113 417.5t318 268.5t478 92q274 0 478.5 -92t317.5 -268.5t113 -417.5t-113 -417.5t-317.5 -268.5t-478.5 -92zM557 324h846v102h-629q96 40 168.5 73.5t159 83t142.5 96t94 105.5t38 119q0 66 -31.5 114t-89 74.5
t-127.5 39t-157 12.5q-83 0 -153 -13t-129 -41t-92.5 -77.5t-33.5 -116.5q0 -25 2 -37l148 -8q-2 8 -2 24q0 49 23.5 83.5t64 52t83 25t91.5 7.5q117 0 183.5 -43t66.5 -112q0 -36 -17.5 -71t-43.5 -65t-77.5 -66t-96 -63t-124 -66.5t-137.5 -66.5t-159 -74q-7 -3 -11 -5
v-86z" />
    <glyph glyph-name="uni2778" unicode="&#x2778;" horiz-adv-x="1957" 
d="M979 -51q-273 0 -478 92t-318 268.5t-113 417.5t113 417.5t318 268.5t478 92q274 0 478.5 -92t317.5 -268.5t113 -417.5t-113 -417.5t-317.5 -268.5t-478.5 -92zM973 303q127 0 225.5 25.5t159.5 81.5t61 137q0 78 -70.5 132.5t-195.5 63.5q48 4 88 14.5t77 30.5t58 53.5
t21 78.5q0 79 -58 132t-151 76t-217 23q-198 0 -313.5 -75t-112.5 -202l151 -4q-1 92 71.5 139.5t205.5 47.5q118 0 194 -41t76 -117q0 -61 -68 -93t-165 -32h-97v-72h107q61 0 107.5 -11t71.5 -26.5t40.5 -35.5t20 -35t4.5 -29q0 -58 -41.5 -96.5t-104.5 -54t-143 -15.5
q-130 0 -208 50.5t-75 136.5l-151 -6q-1 -126 116.5 -201.5t315.5 -75.5z" />
    <glyph glyph-name="uni2779" unicode="&#x2779;" horiz-adv-x="1957" 
d="M979 -51q-273 0 -478 92t-318 268.5t-113 417.5t113 417.5t318 268.5t478 92q274 0 478.5 -92t317.5 -268.5t113 -417.5t-113 -417.5t-317.5 -268.5t-478.5 -92zM1100 334h147v188h238v96h-238v508h-151l-627 -510v-94h631v-188zM602 618l498 400v-400h-498z" />
    <glyph glyph-name="uni277A" unicode="&#x277a;" horiz-adv-x="1957" 
d="M979 -51q-273 0 -478 92t-318 268.5t-113 417.5t113 417.5t318 268.5t478 92q274 0 478.5 -92t317.5 -268.5t113 -417.5t-113 -417.5t-317.5 -268.5t-478.5 -92zM967 317q196 0 314 78.5t118 206.5q0 120 -100 193t-275 73q-220 0 -311 -114l30 288h600v97h-714l-49 -463
l129 -12q15 46 93 81t171 35q131 0 202.5 -47.5t71.5 -132.5q0 -84 -74.5 -135t-201.5 -51q-109 0 -180.5 37.5t-88.5 103.5l-141 -8q15 -103 127 -166.5t279 -63.5z" />
    <glyph glyph-name="uni277B" unicode="&#x277b;" horiz-adv-x="1957" 
d="M979 -51q-273 0 -478 92t-318 268.5t-113 417.5t113 417.5t318 268.5t478 92q274 0 478.5 -92t317.5 -268.5t113 -417.5t-113 -417.5t-317.5 -268.5t-478.5 -92zM987 303q202 0 319 74t117 207q0 127 -105 201.5t-288 74.5q-267 0 -354 -141q0 180 82 260t239 80
q212 0 258 -127l150 6q-66 213 -401 213q-228 0 -348.5 -112.5t-120.5 -329.5q0 -208 111.5 -307t340.5 -99zM987 399q-249 0 -301 205q68 154 309 154q127 0 202 -47.5t75 -126.5q0 -89 -76.5 -137t-208.5 -48z" />
    <glyph glyph-name="uni277C" unicode="&#x277c;" horiz-adv-x="1957" 
d="M979 -51q-273 0 -478 92t-318 268.5t-113 417.5t113 417.5t318 268.5t478 92q274 0 478.5 -92t317.5 -268.5t113 -417.5t-113 -417.5t-317.5 -268.5t-478.5 -92zM856 332h150q-3 200 105 383t284 301v108h-832v-106h705q-201 -126 -306.5 -304.5t-105.5 -381.5z" />
    <glyph glyph-name="uni277D" unicode="&#x277d;" horiz-adv-x="1957" 
d="M979 -51q-273 0 -478 92t-318 268.5t-113 417.5t113 417.5t318 268.5t478 92q274 0 478.5 -92t317.5 -268.5t113 -417.5t-113 -417.5t-317.5 -268.5t-478.5 -92zM975 303q214 0 331 61t117 173q0 94 -62.5 150.5t-205.5 74.5q129 22 187.5 63t58.5 117q0 98 -114.5 153.5
t-313.5 55.5q-191 0 -302.5 -59t-111.5 -160q0 -168 252 -203q-276 -40 -276 -201q0 -103 119 -164t321 -61zM1040 780l-114 13q-113 12 -164 45t-51 88q0 61 73.5 100t190.5 39q127 0 200.5 -38.5t73.5 -104.5q0 -64 -45 -95.5t-164 -46.5zM975 389q-131 0 -209 45.5
t-78 120.5q0 62 56 99.5t174 56.5l133 -17q118 -17 168.5 -52.5t50.5 -94.5q0 -73 -79 -115.5t-216 -42.5z" />
    <glyph glyph-name="uni277E" unicode="&#x277e;" horiz-adv-x="1957" 
d="M979 -51q-273 0 -478 92t-318 268.5t-113 417.5t113 417.5t318 268.5t478 92q274 0 478.5 -92t317.5 -268.5t113 -417.5t-113 -417.5t-317.5 -268.5t-478.5 -92zM958 303q234 0 349.5 116t115.5 351q0 381 -458 381q-195 0 -312.5 -70.5t-117.5 -197.5q0 -125 107.5 -195
t289.5 -70q255 0 350 103q-5 -161 -81.5 -239.5t-233.5 -78.5q-105 0 -172.5 41t-83.5 101l-152 -8q34 -115 135 -174.5t264 -59.5zM971 705q-128 0 -206.5 47.5t-78.5 130.5q0 86 79 134t212 48q141 0 214.5 -59.5t88.5 -190.5q-40 -51 -122 -80.5t-187 -29.5z" />
    <glyph glyph-name="uniE000" unicode="&#xe000;" horiz-adv-x="2801" 
d="M432 1454h2120v-100h-2013v-1063h184l-238 -316l-235 316h182v1163z" />
    <glyph glyph-name="uniF8FF" unicode="&#xf8ff;" horiz-adv-x="2084" 
d="M2044 1358h-1131v-96h1131v-99h-1131v-96h1131v-98h-1131v-97h1131v-96h-1131v-98h1131v-96h-2003v872h2003v-96zM137 1366l27 18h-33l-10 31l-8 -31h-33l26 -18l-10 -31l25 19l26 -19zM291 1384h-33l27 -18l-11 -31l25 21l27 -21l-11 31l25 18h-31l-10 31zM469 1384h-33
l27 -18l-10 -31l24 21l27 -21l-10 31l24 18h-31l-10 31zM645 1384h-31l27 -18l-10 -31l24 21l27 -21l-10 31l24 18h-30l-11 31zM850 1366l24 18h-30l-10 31l-11 -31h-30l24 -18l-8 -31l25 21l26 -21zM201 1294h-31l25 -18l-9 -29l25 19l25 -19l-9 29l25 18h-31l-10 31z
M760 1276l26 18h-32l-9 31l-10 -31h-30l24 -18l-10 -29l26 19l25 -19zM559 745v191h193v164h-193v192h-164v-192h-190v-164h190v-191h164zM137 1188l27 18h-33l-10 29l-8 -29h-33l26 -18l-10 -31l25 19l26 -19zM291 1206h-33l27 -18l-11 -31l25 19l27 -19l-11 31l25 18h-31
l-10 29zM645 1206h-31l27 -18l-10 -31l24 19l27 -19l-10 31l24 18h-30l-11 29zM850 1188l24 18h-30l-10 29l-11 -29h-30l24 -18l-8 -31l25 19l26 -19zM137 1008l27 20h-33l-10 29l-8 -29h-33l26 -20l-10 -29l25 18l26 -18zM850 1008l24 20h-30l-10 29l-11 -29h-30l24 -20
l-8 -29l25 18l26 -18zM137 829l27 19h-33l-10 31l-8 -31h-33l26 -19l-10 -28l25 18l26 -18zM315 829l25 19h-31l-10 31l-8 -31h-33l27 -19l-11 -28l25 18l27 -18zM672 829l24 19h-30l-11 31l-10 -31h-31l27 -19l-10 -28l24 18l27 -18zM850 829l24 19h-30l-10 31l-11 -31h-30
l24 -19l-8 -28l25 18l26 -18zM236 711l-9 30l25 19h-31l-10 28l-10 -28h-31l25 -19l-9 -30l25 18zM770 711l-10 30l26 19h-32l-9 28l-10 -28h-30l24 -19l-10 -30l26 18zM147 621l-10 30l27 19h-33l-10 30l-8 -30h-33l26 -19l-10 -30l25 18zM326 621l-11 30l25 19h-31l-10 30
l-8 -30h-33l27 -19l-11 -30l25 18zM504 621l-10 30l24 19h-31l-10 30l-8 -30h-33l27 -19l-10 -30l24 18zM682 621l-10 30l24 19h-30l-11 30l-10 -30h-31l27 -19l-10 -30l24 18zM860 621l-10 30l24 19h-30l-10 30l-11 -30h-30l24 -19l-8 -30l25 18zM41 387v98h2001v-98h-2001
zM41 195v96h2003v-96h-2003zM41 0v96h2003v-96h-2003z" />
    <glyph glyph-name="Jacute" horiz-adv-x="1040" 
d="M676 1556l194 216h187l-209 -216h-172zM850 522q0 -289 -138 -421t-405 -132q-159 0 -264 23v158q153 -23 266 -23q90 0 156 20t116.5 65.5t75.5 124.5t25 193v924h168v-932z" />
    <glyph glyph-name="i.loclTRK" horiz-adv-x="608" 
d="M211 1210v232h184v-232h-184zM229 0v1024h152v-1024h-152z" />
    <glyph glyph-name="jacute" horiz-adv-x="641" 
d="M254 1188l190 307h164l-202 -307h-152zM57 -420q-101 0 -163 12v134q93 -11 176 -11q95 0 142.5 59.5t47.5 202.5v1047h152v-1075q0 -80 -18 -144t-57.5 -116t-110.5 -80.5t-169 -28.5z" />
    <glyph glyph-name="zero.zero" horiz-adv-x="1773" 
d="M887 1473q230 0 403.5 -96.5t266 -269t92.5 -396.5q0 -221 -92 -393t-266 -269.5t-404 -97.5t-404 97.5t-266 269.5t-92 393q0 224 92.5 396.5t266 269t403.5 96.5zM887 1339q-279 0 -440.5 -170t-161.5 -458q0 -211 92 -367l958 817q-164 178 -448 178zM887 84
q280 0 441 170.5t161 456.5q0 201 -82 350l-952 -813q161 -164 432 -164z" />
    <glyph glyph-name="zero.tf" 
d="M821 -49q-335 0 -528 207.5t-193 554.5q0 349 194 554.5t525 205.5q335 0 527 -206.5t192 -553.5q0 -351 -193 -556.5t-524 -205.5zM821 72q270 0 415.5 172.5t145.5 468.5q0 297 -147.5 468t-415.5 171q-270 0 -415.5 -171.5t-145.5 -467.5q0 -297 147.5 -469
t415.5 -172z" />
    <glyph glyph-name="one.tf" 
d="M967 145h536v-145h-1288v145h600v1010q-61 -83 -193.5 -138.5t-318.5 -55.5h-67v143h45q206 0 349 87t201 232h136v-1278z" />
    <glyph glyph-name="two.tf" 
d="M143 0v115q351 180 566 302.5t342 221.5q124 97 174.5 186t50.5 197q0 145 -117 236.5t-340 91.5q-206 0 -339 -91t-148 -264q-3 -26 0 -55l-154 23q-2 21 2 65q14 139 105 241t230 153t308 51q153 0 272 -35.5t192 -97.5t110 -141.5t37 -172.5q0 -115 -51 -216.5
t-166 -203.5q-257 -227 -820 -477h1104v-129h-1358z" />
    <glyph glyph-name="three.tf" 
d="M834 -49q-299 0 -481 121t-206 313l150 16q31 -148 166.5 -237.5t374.5 -89.5t369 78.5t130 232.5q0 82 -36 140.5t-102.5 90.5t-148 46t-186.5 14h-149v112h139q192 0 311 74.5t119 214.5q0 125 -117.5 199t-353.5 74q-123 0 -217 -29.5t-151 -82t-87 -119.5t-34 -148
l-152 26q0 67 24 132.5t76.5 127.5t127 109t183.5 75.5t238 28.5q301 0 461 -107t160 -286q0 -73 -32 -135t-84 -102t-111.5 -64.5t-120.5 -30.5q78 -7 147.5 -31.5t127.5 -67t92 -110t34 -151.5q0 -198 -169 -316t-492 -118z" />
    <glyph glyph-name="four.tf" 
d="M1090 0v381h-1010v92l971 950h190v-923h324v-119h-324v-381h-151zM279 500h811v669q0 99 6 146h-6q-23 -39 -93 -109l-608 -610q-42 -42 -110 -96z" />
    <glyph glyph-name="five.tf" 
d="M821 -49q-269 0 -443.5 104.5t-217.5 284.5l153 12q33 -128 167.5 -203t353.5 -75q229 0 362 105.5t133 293.5q0 78 -27.5 144t-82.5 118t-148 81.5t-215 29.5q-180 0 -306.5 -63.5t-187.5 -164.5l-149 13l80 792h1096v-125h-967l-57 -544q72 89 206.5 150t317.5 61
q268 0 432 -133.5t164 -358.5q0 -230 -179 -376t-485 -146z" />
    <glyph glyph-name="six.tf" 
d="M887 963q290 0 455 -127t165 -369q0 -223 -175.5 -369.5t-461.5 -146.5q-348 0 -540.5 200t-192.5 564q0 358 184.5 558t522.5 200q258 0 431.5 -106.5t211.5 -293.5l-162 -37q-86 303 -481 303q-269 0 -411 -161.5t-142 -462.5v-2q0 -49 2 -72q58 145 212 233.5
t382 88.5zM870 84q221 0 349.5 106t128.5 277q0 181 -123.5 270.5t-352.5 89.5q-222 0 -365.5 -102t-180.5 -279q114 -362 544 -362z" />
    <glyph glyph-name="seven.tf" 
d="M573 0v31q0 351 185.5 673t515.5 580h-1116v139h1331v-125q-723 -519 -723 -1255v-43h-193z" />
    <glyph glyph-name="eight.tf" 
d="M1130 758q90 -21 158.5 -50t125 -72.5t86.5 -108t30 -146.5q0 -202 -183.5 -316t-512.5 -114q-346 0 -532.5 108.5t-186.5 307.5q0 143 101.5 238t297.5 132q-169 42 -260.5 124.5t-91.5 228.5q0 177 178 280t487 103q297 0 474.5 -105.5t177.5 -280.5q0 -129 -90 -213.5
t-259 -115.5zM324 1092q0 -112 92 -173.5t272 -89.5l244 -36q214 56 300.5 121.5t86.5 172.5q0 126 -128.5 196.5t-365.5 70.5q-239 0 -370 -68.5t-131 -193.5zM834 84q255 0 395.5 78t140.5 217q0 68 -30 118.5t-89.5 83.5t-134 53.5t-178.5 35.5l-213 30
q-232 -43 -339 -121.5t-107 -205.5q0 -138 143.5 -213.5t411.5 -75.5z" />
    <glyph glyph-name="nine.tf" 
d="M797 1473q341 0 528.5 -192t187.5 -546q0 -372 -178 -578t-510 -206q-266 0 -445.5 104t-217.5 285l160 37q43 -157 168.5 -225t334.5 -68q262 0 398.5 168t136.5 481v4q0 49 -2 72q-65 -129 -222 -214t-382 -85q-288 0 -451.5 120.5t-163.5 350.5q0 224 180.5 358
t477.5 134zM778 647q221 0 366.5 92.5t182.5 249.5q-106 350 -530 350q-231 0 -364.5 -94t-133.5 -264q0 -168 125 -251t354 -83z" />
    <glyph glyph-name="zero.tf.zero" 
d="M819 1473q335 0 527 -206.5t192 -553.5q0 -351 -193 -556.5t-524 -205.5q-335 0 -528 207.5t-193 554.5q0 349 194 554.5t525 205.5zM819 1352q-270 0 -415.5 -171.5t-145.5 -467.5q0 -203 72 -353l923 797q-147 195 -434 195zM821 72q270 0 415.5 172.5t145.5 468.5
q0 198 -65 340l-922 -797q148 -184 426 -184z" />
    <glyph glyph-name="dollar.tf" 
d="M1556 371q0 -415 -653 -418v-160h-108v162q-301 18 -482.5 135t-226.5 334l178 25q68 -319 531 -357v576l-154 20q-248 35 -362.5 130.5t-114.5 266.5q0 181 159.5 278.5t471.5 104.5v162h108v-164q270 -7 416.5 -98.5t191.5 -275.5l-172 -37q-37 140 -138.5 205.5
t-297.5 74.5v-532l199 -31q240 -35 347 -129t107 -272zM709 831l86 -12v518q-236 -3 -346.5 -63.5t-110.5 -186.5q0 -112 82 -168.5t289 -87.5zM918 88q245 0 355.5 67.5t110.5 215.5q0 119 -74 177t-249 83l-158 22v-565h15z" />
    <glyph glyph-name="cent.tf" 
d="M899 78q167 12 277.5 85t156.5 187l148 -39q-63 -153 -208 -247t-374 -107v-139h-115v137q-150 7 -270.5 53.5t-197 122t-116.5 173t-40 208.5q0 229 165 385.5t459 171.5v148h115v-148q235 -9 382.5 -103.5t201.5 -256.5l-158 -29q-39 116 -148 186t-278 82v-870z
M317 514q0 -178 125.5 -299.5t341.5 -136.5v870q-222 -13 -344.5 -133.5t-122.5 -300.5z" />
    <glyph glyph-name="sterling.tf" 
d="M1409 334l141 -27q-25 -167 -145.5 -259.5t-310.5 -92.5q-80 0 -252 35t-299 35q-201 0 -418 -39l-35 112q166 43 253 139t87 240q0 101 -33 213h-262v109h230q-31 110 -31 202q0 222 148.5 344.5t416.5 122.5q224 0 365.5 -91t187.5 -263l-156 -37q-32 132 -135 202.5
t-262 70.5q-397 0 -397 -342q0 -98 30 -209h494v-109h-461q29 -96 29 -180q0 -270 -256 -377q133 19 258 19q102 0 255.5 -28t242.5 -28q134 0 216 61.5t99 176.5z" />
    <glyph glyph-name="florin.tf" 
d="M1251 1335q-158 0 -234.5 -67.5t-105.5 -233.5l-28 -166h524v-118h-545l-180 -1057h-156l185 1057h-416v118h436l27 148q43 250 157.5 352t348.5 102q100 0 186 -28v-137q-105 30 -199 30z" />
    <glyph glyph-name="yen.tf" 
d="M901 573v-6h543v-100h-543v-158h543v-100h-543v-209h-158v209h-542v100h542v158h-542v100h542v6l-694 850h189l491 -612q52 -69 92 -149h4q42 86 93 149l489 612h188z" />
    <glyph glyph-name="Euro.tf" 
d="M942 84q151 0 273.5 70.5t199.5 207.5l123 -57q-86 -168 -242.5 -258t-359.5 -90q-282 0 -461 156t-227 428h-154v98h142q-5 78 -5 96q0 13 5 86h-142v101h156q52 256 238.5 405.5t469.5 149.5q196 0 345 -82.5t239 -243.5l-139 -68q-142 267 -457 267
q-223 0 -359.5 -111.5t-176.5 -316.5h659v-101h-672q-4 -54 -4 -84q0 -36 4 -98h672v-98h-657q40 -217 176 -337t354 -120z" />
    <glyph glyph-name="percent.tf" 
d="M227 -29l1076 1524h141l-1075 -1524h-142zM422 776q-156 0 -249 95t-93 257q0 157 93.5 252t248.5 95q151 0 245.5 -96.5t94.5 -256.5q0 -157 -94.5 -251.5t-245.5 -94.5zM422 891q95 0 151 61.5t56 169.5q0 111 -56 174.5t-151 63.5q-97 0 -155 -62.5t-58 -169.5
q0 -112 57.5 -174.5t155.5 -62.5zM1233 -20q-156 0 -249 95t-93 257q0 157 93.5 251.5t248.5 94.5q151 0 245.5 -96t94.5 -256q0 -157 -94.5 -251.5t-245.5 -94.5zM1233 94q95 0 151 62t56 170q0 111 -56 174t-151 63q-97 0 -155 -62t-58 -169q0 -113 57.5 -175.5
t155.5 -62.5z" />
    <glyph glyph-name="perthousand.tf" 
d="M686 1155q0 -135 -84.5 -216t-224.5 -81t-224.5 81t-84.5 216q0 136 84.5 217.5t224.5 81.5t224.5 -81.5t84.5 -217.5zM186 1155q0 -91 51.5 -144t139.5 -53t139 53t51 144q0 92 -51 145.5t-139 53.5t-139.5 -53.5t-51.5 -145.5zM1374 1210v-120l-1218 -619v119z
M1268 557q140 0 224.5 -81.5t84.5 -217.5q0 -135 -84.5 -216t-224.5 -81q-164 0 -248 111q-84 -111 -250 -111q-140 0 -224.5 81t-84.5 216q0 136 84.5 217.5t224.5 81.5q166 0 250 -111q84 111 248 111zM770 61q88 0 139.5 53t51.5 144q0 92 -51.5 145.5t-139.5 53.5
t-139 -53.5t-51 -145.5q0 -91 51 -144t139 -53zM1268 61q89 0 139.5 53t50.5 144q0 93 -50.5 146t-139.5 53q-88 0 -139.5 -53.5t-51.5 -145.5q0 -91 51.5 -144t139.5 -53z" />
    <glyph glyph-name="uni0243.case" horiz-adv-x="1900" 
d="M1751 408q0 -183 -125.5 -292.5t-361.5 -115.5v-170h-111v170h-412v-170h-110v170h-381v1454h381v184h110v-184h412v184h111v-184q217 -9 332.5 -106t115.5 -263q0 -129 -70 -215.5t-196 -115.5q148 -28 226.5 -116t78.5 -230zM1217 1317h-807v-504h815q160 0 240.5 67.5
t80.5 186.5q0 121 -83 185.5t-246 64.5zM1235 137q177 0 263.5 72t86.5 203q0 130 -91.5 201t-266.5 71h-817v-547h825z" />
    <glyph glyph-name="uni0243.tf" 
d="M1509 389q0 -176 -111 -275t-327 -112v-221h-115v219h-317v-219h-115v219h-340v1423h340v185h115v-185h317v185h115v-187q195 -17 297 -109t102 -251q0 -129 -74 -215t-208 -115q154 -20 237.5 -110t83.5 -232zM991 1292h-651v-501h639q326 0 326 270q0 231 -314 231z
M993 131q183 0 266.5 63t83.5 201q0 132 -90.5 200.5t-261.5 68.5h-651v-533h653z" />
    <glyph glyph-name="uni0243.tf.tf.case" 
d="M1509 399q0 -179 -111 -280.5t-327 -116.5v-184h-115v182h-317v-182h-115v182h-340v1452h340v186h115v-186h317v186h115v-190q195 -15 297 -108.5t102 -256.5q0 -131 -74 -218.5t-208 -116.5q155 -22 238 -113t83 -236zM991 1321h-651v-514h639q326 0 326 276
q0 238 -314 238zM993 131q182 0 266 66t84 206q0 135 -90.5 205t-261.5 70h-651v-547h653z" />
    <glyph glyph-name="g.ss01" horiz-adv-x="1763" 
d="M821 -438q-292 0 -473 88.5t-227 265.5h172q42 -116 175.5 -169.5t358.5 -53.5q555 0 555 399v148q-73 -122 -237 -195.5t-375 -73.5q-194 0 -349 69.5t-242 195.5t-87 286q0 245 184.5 393t487.5 148q215 0 380 -73.5t240 -201.5l23 236h127v-934q0 -262 -184.5 -395
t-528.5 -133zM811 104q258 0 416.5 112.5t158.5 291.5v24q0 174 -164 286t-421 112q-253 0 -401 -109.5t-148 -298.5q0 -194 152 -306t407 -112z" />
    <glyph glyph-name="gbreve.ss01" horiz-adv-x="1763" 
d="M610 1495q7 -106 75 -162.5t185 -56.5t185 56.5t75 162.5h130q-12 -153 -115.5 -235t-274.5 -82t-274 82t-115 235h129zM821 -438q-292 0 -473 88.5t-227 265.5h172q42 -116 175.5 -169.5t358.5 -53.5q555 0 555 399v148q-73 -122 -237 -195.5t-375 -73.5
q-194 0 -349 69.5t-242 195.5t-87 286q0 245 184.5 393t487.5 148q215 0 380 -73.5t240 -201.5l23 236h127v-934q0 -262 -184.5 -395t-528.5 -133zM811 104q258 0 416.5 112.5t158.5 291.5v24q0 174 -164 286t-421 112q-253 0 -401 -109.5t-148 -298.5q0 -194 152 -306
t407 -112z" />
    <glyph glyph-name="gcircumflex.ss01" horiz-adv-x="1763" 
d="M1305 1188h-164l-271 237l-270 -237h-164l342 307h183zM821 -438q-292 0 -473 88.5t-227 265.5h172q42 -116 175.5 -169.5t358.5 -53.5q555 0 555 399v148q-73 -122 -237 -195.5t-375 -73.5q-194 0 -349 69.5t-242 195.5t-87 286q0 245 184.5 393t487.5 148
q215 0 380 -73.5t240 -201.5l23 236h127v-934q0 -262 -184.5 -395t-528.5 -133zM811 104q258 0 416.5 112.5t158.5 291.5v24q0 174 -164 286t-421 112q-253 0 -401 -109.5t-148 -298.5q0 -194 152 -306t407 -112z" />
    <glyph glyph-name="gcommaaccent.ss01" horiz-adv-x="1763" 
d="M915 1550l37 -53q-61 -28 -79.5 -60.5t-18.5 -80.5h107v-168h-189v139q0 88 30 138.5t113 84.5zM821 -438q-292 0 -473 88.5t-227 265.5h172q42 -116 175.5 -169.5t358.5 -53.5q555 0 555 399v148q-73 -122 -237 -195.5t-375 -73.5q-194 0 -349 69.5t-242 195.5t-87 286
q0 245 184.5 393t487.5 148q215 0 380 -73.5t240 -201.5l23 236h127v-934q0 -262 -184.5 -395t-528.5 -133zM811 104q258 0 416.5 112.5t158.5 291.5v24q0 174 -164 286t-421 112q-253 0 -401 -109.5t-148 -298.5q0 -194 152 -306t407 -112z" />
    <glyph glyph-name="gdotaccent.ss01" horiz-adv-x="1763" 
d="M776 1210v232h185v-232h-185zM821 -438q-292 0 -473 88.5t-227 265.5h172q42 -116 175.5 -169.5t358.5 -53.5q555 0 555 399v148q-73 -122 -237 -195.5t-375 -73.5q-194 0 -349 69.5t-242 195.5t-87 286q0 245 184.5 393t487.5 148q215 0 380 -73.5t240 -201.5l23 236
h127v-934q0 -262 -184.5 -395t-528.5 -133zM811 104q258 0 416.5 112.5t158.5 291.5v24q0 174 -164 286t-421 112q-253 0 -401 -109.5t-148 -298.5q0 -194 152 -306t407 -112z" />
    <glyph glyph-name="g.sups.ss01" horiz-adv-x="1345" 
d="M631 315q-453 0 -512 260h160q49 -165 358 -165q191 0 284 70.5t93 219.5v123q-51 -92 -168.5 -145t-272.5 -53q-216 0 -347.5 108.5t-131.5 288.5q0 177 133 283t353 106q324 0 440 -203l10 174h131v-675q0 -392 -530 -392zM621 719q174 0 285.5 83.5t111.5 211.5v8
q0 130 -109.5 211.5t-285.5 81.5q-172 0 -273.5 -79.5t-101.5 -215.5q0 -137 102.5 -219t270.5 -82z" />
    <glyph glyph-name="a.sups" horiz-adv-x="1273" 
d="M500 606q-175 0 -277 58.5t-102 164.5q0 51 20 90.5t53 64.5t83.5 42t103.5 25t121 12l456 29v14q0 213 -313 213q-303 0 -340 -180h-155q20 128 153.5 200t341.5 72q233 0 346 -81t113 -243v-192q0 -172 16 -260h-149q-8 86 -8 166q-52 -91 -172.5 -143t-290.5 -52z
M547 696q178 0 296 73t118 183v66l-414 -27q-155 -10 -215 -45.5t-60 -105.5q0 -69 73.5 -106.5t201.5 -37.5z" />
    <glyph glyph-name="b.sups" horiz-adv-x="1357" 
d="M768 606q-312 0 -430 195l-12 -166h-131v1083h147v-508q54 96 165.5 148.5t272.5 52.5q222 0 353 -110t131 -287q0 -183 -135 -295.5t-361 -112.5zM725 709q179 0 283 82.5t104 222.5q0 135 -100.5 215t-278.5 80q-176 0 -286.5 -83.5t-110.5 -207.5v-14
q0 -128 106.5 -211.5t282.5 -83.5z" />
    <glyph glyph-name="c.sups" horiz-adv-x="1222" 
d="M618 606q-247 0 -390.5 109t-143.5 297q0 186 144 292.5t393 106.5q207 0 337 -73t164 -208l-157 -20q-25 96 -115 147.5t-236 51.5q-178 0 -277 -79t-99 -218q0 -140 100.5 -220.5t277.5 -80.5q144 0 234.5 50t118.5 144l151 -20q-34 -132 -166.5 -205.5t-335.5 -73.5z
" />
    <glyph glyph-name="d.sups" horiz-adv-x="1357" 
d="M584 606q-225 0 -357.5 112t-132.5 294q0 179 132.5 289t359.5 110q303 0 430 -192v499h145v-1083h-141v174q-60 -94 -169.5 -148.5t-266.5 -54.5zM629 709q172 0 281.5 83.5t109.5 208.5v15q0 125 -110.5 209t-286.5 84q-178 0 -277.5 -79.5t-99.5 -217.5
q0 -139 102.5 -221t280.5 -82z" />
    <glyph glyph-name="e.sups" horiz-adv-x="1222" 
d="M1124 1012v-31h-893q9 -126 110.5 -198t274.5 -72q136 0 232.5 45t136.5 127l123 -49q-61 -110 -187 -169t-309 -59q-248 0 -388 108t-140 298q0 186 141 292.5t377 106.5q246 0 384 -105.5t138 -293.5zM231 1069h736q0 115 -100.5 183.5t-264.5 68.5q-160 0 -261 -69
t-110 -183z" />
    <glyph glyph-name="f.sups" horiz-adv-x="849" 
d="M797 1382v-100h-351v-647h-141v647h-239v100h239v72q0 142 82 211.5t252 69.5q78 0 158 -17v-104q-60 14 -148 14q-106 0 -154.5 -41.5t-48.5 -134.5v-70h351z" />
    <glyph glyph-name="g.sups" horiz-adv-x="1255" 
d="M1118 1395q-113 0 -155 -58q112 -67 112 -184q0 -122 -122.5 -191t-334.5 -69q-157 0 -264 37q-43 -9 -66.5 -30.5t-23.5 -49.5q0 -80 129 -80l490 -2q150 0 220.5 -49.5t70.5 -149.5q0 -129 -133.5 -191.5t-430.5 -62.5q-275 0 -395.5 49.5t-120.5 151.5q0 107 152 148
q-117 38 -117 135q0 117 168 155q-137 70 -137 199q0 122 122 190t336 68q173 0 283 -43q21 66 81 99.5t144 33.5q24 0 52 -4v-104q-14 2 -60 2zM618 977q136 0 216.5 45.5t80.5 130.5q0 86 -79.5 131t-217.5 45q-140 0 -219.5 -45t-79.5 -131q0 -85 80.5 -130.5
t218.5 -45.5zM852 645l-494 4q-24 0 -36 2q-101 -34 -101 -110q0 -72 93.5 -105t312.5 -33q216 0 308.5 34t92.5 104q0 55 -41.5 79.5t-134.5 24.5z" />
    <glyph glyph-name="h.sups" horiz-adv-x="1357" 
d="M195 635v1083h147v-526q50 104 160.5 162.5t265.5 58.5q210 0 323 -111t113 -317v-350h-147v332q0 165 -86.5 250.5t-253.5 85.5q-172 0 -273.5 -88.5t-101.5 -239.5v-340h-147z" />
    <glyph glyph-name="i.sups" horiz-adv-x="520" 
d="M180 1499v201h160v-201h-160zM188 635v747h144v-747h-144z" />
    <glyph glyph-name="j.sups" horiz-adv-x="538" 
d="M195 1499v201h159v-201h-159zM76 328q-79 0 -121 12v111q49 -9 104 -9q144 0 144 170v770h147v-790q0 -128 -68.5 -196t-205.5 -68z" />
    <glyph glyph-name="k.sups" horiz-adv-x="1200" 
d="M987 635l-346 418l-299 -203v-215h-147v1083h147v-747l588 411h203l-373 -262l399 -485h-172z" />
    <glyph glyph-name="l.sups" horiz-adv-x="536" 
d="M342 1718v-1083h-147v1083h147z" />
    <glyph glyph-name="m.sups" horiz-adv-x="1947" 
d="M186 1382h142v-190q40 104 133 162.5t225 58.5q138 0 228.5 -59.5t121.5 -165.5q48 106 146 165.5t231 59.5q188 0 284.5 -102t96.5 -299v-377h-145v358q0 305 -283 305q-137 0 -220 -80.5t-83 -213.5v-369h-145v369q0 294 -281 294q-139 0 -222 -85.5t-83 -229.5v-348
h-146v747z" />
    <glyph glyph-name="n.sups" horiz-adv-x="1347" 
d="M186 635v747h142v-196q54 108 164 167.5t268 59.5q212 0 323 -106.5t111 -307.5v-364h-147v340q0 325 -334 325q-177 0 -279 -87.5t-102 -241.5v-336h-146z" />
    <glyph glyph-name="o.sups" horiz-adv-x="1241" 
d="M621 606q-243 0 -390 110.5t-147 293.5q0 181 147 291t390 110t389.5 -109.5t146.5 -291.5q0 -183 -146.5 -293.5t-389.5 -110.5zM621 709q174 0 280.5 82t106.5 219q0 136 -106.5 217.5t-280.5 81.5t-279.5 -81.5t-105.5 -217.5q0 -137 105.5 -219t279.5 -82z" />
    <glyph glyph-name="p.sups" horiz-adv-x="1347" 
d="M186 344v1038h144v-174q55 94 166.5 148.5t275.5 54.5q220 0 350.5 -108.5t130.5 -290.5q0 -183 -134 -294.5t-353 -111.5q-158 0 -268 52t-166 139v-453h-146zM721 709q175 0 278 82t103 221q0 138 -101 217.5t-276 79.5q-176 0 -286.5 -82t-110.5 -209v-12
q0 -130 108.5 -213.5t284.5 -83.5z" />
    <glyph glyph-name="q.sups" horiz-adv-x="1347" 
d="M1016 344v457q-53 -90 -164.5 -143.5t-271.5 -53.5q-219 0 -352.5 113t-133.5 297q0 182 132 291.5t352 109.5q165 0 276 -55.5t168 -153.5l12 176h127v-1038h-145zM627 709q180 0 286.5 84t106.5 213v12q0 127 -110 211t-292 84q-168 0 -270 -78.5t-102 -220.5
q0 -143 104 -224t277 -81z" />
    <glyph glyph-name="r.sups" horiz-adv-x="829" 
d="M315 1116q34 134 126.5 209.5t230.5 75.5q61 0 102 -8v-127q-41 8 -115 8q-142 0 -221 -76q-106 -106 -106 -307v-256h-146v747h129v-266z" />
    <glyph glyph-name="s.sups" horiz-adv-x="1159" 
d="M618 606q-435 0 -540 228l100 59q59 -93 169 -139.5t290 -46.5q283 0 283 133q0 49 -34.5 77t-121.5 35l-375 27q-262 18 -262 205q0 109 109 168t319 59q369 0 496 -197l-93 -67q-59 85 -155 124.5t-264 39.5q-132 0 -201.5 -32t-69.5 -87q0 -89 160 -100l365 -25
q147 -10 208.5 -63.5t61.5 -151.5q0 -120 -111 -183t-334 -63z" />
    <glyph glyph-name="t.sups" horiz-adv-x="882" 
d="M49 1282v100h238v191l143 55v-246h363v-100h-363v-364q0 -102 53 -146.5t154 -44.5q75 0 156 18v-100q-79 -27 -189 -27q-317 0 -317 275v389h-238z" />
    <glyph glyph-name="u.sups" horiz-adv-x="1343" 
d="M1014 842q-47 -113 -160 -174.5t-274 -61.5q-207 0 -316.5 97.5t-109.5 287.5v391h145v-358q0 -72 19 -127.5t49.5 -89.5t74 -55t87.5 -29t96 -8q95 0 170.5 27.5t122 74.5t70.5 105.5t24 124.5v335h145v-747h-143v207z" />
    <glyph glyph-name="v.sups" horiz-adv-x="1163" 
d="M500 635l-469 747h164l337 -548q6 -11 23.5 -38.5t24.5 -43.5h6q19 42 45 82l340 548h162l-471 -747h-162z" />
    <glyph glyph-name="w.sups" horiz-adv-x="1744" 
d="M403 635l-350 747h150l250 -546q3 -8 14.5 -38t17.5 -48h4q13 49 35 86l275 546h151l273 -546q20 -41 32 -86h5q31 80 34 86l248 546h150l-351 -747h-159l-275 547q-24 50 -33 82h-4q-8 -28 -30 -82l-277 -547h-160z" />
    <glyph glyph-name="x.sups" horiz-adv-x="1157" 
d="M55 635l422 383l-403 364h184l252 -223q25 -23 70 -76h2q31 39 69 74l248 225h180l-401 -362l422 -385h-187l-270 244q-48 41 -70 69h-2q-28 -35 -69 -71l-271 -242h-176z" />
    <glyph glyph-name="y.sups" horiz-adv-x="1140" 
d="M201 326q-63 0 -115 8v115q58 -7 94 -7q212 0 312 158l16 27l-477 755h168l315 -524q43 -68 64 -119h4q36 75 63 115l307 528h158l-469 -790q-57 -94 -114 -150t-137 -86t-189 -30z" />
    <glyph glyph-name="z.sups" horiz-adv-x="1155" 
d="M113 735l729 551h-703v96h897v-98l-729 -553h750v-96h-944v100z" />
    <glyph glyph-name="g_g.liga.ss01" horiz-adv-x="3526" 
d="M821 -438q-292 0 -473 88.5t-227 265.5h172q42 -116 175.5 -169.5t358.5 -53.5q555 0 555 399v148q-73 -122 -237 -195.5t-375 -73.5q-194 0 -349 69.5t-242 195.5t-87 286q0 245 184.5 393t487.5 148q215 0 380 -73.5t240 -201.5l23 236h127v-934q0 -262 -184.5 -395
t-528.5 -133zM2585 -438q-292 0 -473.5 88.5t-227.5 265.5h172q80 -223 535 -223q555 0 555 399v148q-73 -122 -237.5 -195.5t-375.5 -73.5q-194 0 -349 69.5t-242 195.5t-87 286q0 245 184.5 393t487.5 148q215 0 380.5 -73.5t240.5 -201.5l22 236h127v-934
q0 -262 -184 -395t-528 -133zM811 104q258 0 416.5 112.5t158.5 291.5v24q0 174 -164 286t-421 112q-253 0 -401 -109.5t-148 -298.5q0 -194 152 -306t407 -112zM2574 104q258 0 417 112.5t159 291.5v24q0 174 -164.5 286t-421.5 112q-253 0 -401 -109.5t-148 -298.5
q0 -194 152 -306t407 -112z" />
    <glyph glyph-name="zero.case" horiz-adv-x="1773" 
d="M887 -51q-230 0 -403.5 99.5t-266 276t-92.5 404.5t92.5 403.5t266 274t403.5 98.5t403.5 -98.5t266 -274.5t92.5 -405q0 -170 -54 -313.5t-151.5 -246t-241 -160.5t-315.5 -58zM887 84q280 0 441 175t161 468q0 294 -161 469.5t-441 175.5q-279 0 -440.5 -174.5
t-161.5 -468.5t161.5 -469.5t440.5 -175.5z" />
    <glyph glyph-name="one.case" horiz-adv-x="964" 
d="M522 0v1182q-47 -70 -153 -118t-252 -48h-62v143h37q167 0 284.5 80.5t164.5 212.5h133v-1452h-152z" />
    <glyph glyph-name="two.case" horiz-adv-x="1636" 
d="M88 0v147q357 134 587 240.5t378 212.5q136 99 193 192.5t57 213.5q0 72 -28.5 135.5t-86 116t-157.5 83.5t-232 31q-232 0 -370 -104.5t-138 -290.5q0 -58 10 -92l-166 18q-12 41 -12 96q0 219 186.5 362.5t491.5 143.5q138 0 251.5 -27.5t190 -74.5t128.5 -111.5
t75.5 -136t23.5 -149.5q0 -292 -342 -508q-345 -227 -751 -353h1143v-145h-1432z" />
    <glyph glyph-name="three.case" horiz-adv-x="1687" 
d="M844 -51q-320 0 -507 129t-220 344l155 20q37 -169 178 -263.5t398 -94.5q262 0 402.5 82t140.5 229q0 82 -36.5 139.5t-105.5 89t-154.5 45t-197.5 13.5h-184v133h176q135 0 233 26.5t157.5 89.5t59.5 159q0 135 -127 208.5t-383 73.5q-250 0 -385.5 -105t-154.5 -272
l-150 31q10 101 56.5 186t130 151.5t215 104t297.5 37.5q331 0 496 -113t165 -302q0 -62 -20.5 -114t-55 -89t-82.5 -64t-100.5 -42t-110.5 -21q90 -7 164 -31t133 -67t92 -111t33 -156q0 -72 -24 -136t-78.5 -121.5t-135.5 -99t-201 -65.5t-269 -24z" />
    <glyph glyph-name="four.case" horiz-adv-x="1601" 
d="M1577 387h-332v-387h-151v387h-1061v111l1016 954h196v-938h332v-127zM1094 1133q0 139 6 200h-6q-17 -30 -40.5 -55.5t-92.5 -89.5l-562 -541q-85 -80 -157 -133h852v619z" />
    <glyph glyph-name="five.case" horiz-adv-x="1619" 
d="M823 -51q-283 0 -467.5 113t-238.5 317l164 31q40 -154 181.5 -240t360.5 -86q251 0 392 106t141 297q0 186 -132 285.5t-366 99.5q-203 0 -332.5 -70t-203.5 -214l-158 12l96 854h1176v-139h-1051l-68 -557q70 116 224.5 182t365.5 66q289 0 449 -132.5t160 -384.5
q0 -251 -187.5 -395.5t-505.5 -144.5z" />
    <glyph glyph-name="six.case" horiz-adv-x="1693" 
d="M915 983q314 0 485 -131.5t171 -374.5q0 -233 -188 -380.5t-486 -147.5q-368 0 -570 204t-202 578q0 369 195.5 571.5t549.5 202.5q277 0 459.5 -113t220.5 -311l-159 -37q-94 328 -521 328q-288 0 -441 -164.5t-153 -476.5v-2q0 -41 3 -82q65 157 233 246.5t403 89.5z
M897 84q235 0 374.5 106.5t139.5 286.5q0 183 -130 277t-382 94q-237 0 -391.5 -103.5t-192.5 -287.5q58 -184 205.5 -278.5t376.5 -94.5z" />
    <glyph glyph-name="seven.case" horiz-adv-x="1443" 
d="M455 0v33q0 360 195.5 688.5t543.5 593.5h-1151v139h1366v-125q-171 -119 -306.5 -253.5t-239.5 -294t-160 -346.5t-56 -390v-45h-192z" />
    <glyph glyph-name="eight.case" horiz-adv-x="1691" 
d="M1155 774q221 -51 321.5 -143t100.5 -242q0 -207 -191.5 -323.5t-529.5 -116.5q-356 0 -548.5 111t-192.5 315q0 149 107 245.5t310 133.5q-191 47 -279.5 134t-88.5 226q0 183 183.5 287t502.5 104q310 0 493 -106t183 -287q0 -133 -96 -220t-275 -118zM324 1118
q0 -110 93 -174.5t294 -95.5l247 -39q224 57 315 125t91 178q0 132 -134.5 203t-379.5 71q-251 0 -388.5 -69.5t-137.5 -198.5zM856 84q265 0 413 79.5t148 223.5q0 125 -107 196t-349 103l-216 31q-243 -43 -354.5 -124t-111.5 -214q0 -142 149.5 -218.5t427.5 -76.5z" />
    <glyph glyph-name="nine.case" horiz-adv-x="1693" 
d="M815 1505q359 0 557.5 -196t198.5 -555q0 -382 -193 -593.5t-553 -211.5q-273 0 -457 115.5t-223 316.5l160 39q46 -181 174.5 -258.5t345.5 -77.5q290 0 441 173t151 495v4q0 50 -2 75q-68 -133 -235 -220t-408 -87q-304 0 -476.5 122.5t-172.5 357.5q0 228 189 364.5
t503 136.5zM797 659q236 0 391 95t194 254q-55 177 -196.5 270.5t-368.5 93.5q-251 0 -392.5 -96t-141.5 -272q0 -173 133.5 -259t380.5 -86z" />
    <glyph glyph-name="one.case.ss02" horiz-adv-x="1433" 
d="M858 145h537v-145h-1289v145h601v1041q-61 -83 -193.5 -139t-316.5 -56h-70v144h47q205 0 348.5 87.5t200.5 231.5h135v-1309z" />
    <glyph glyph-name="zero.case.zero" horiz-adv-x="1773" 
d="M887 1505q230 0 403.5 -98.5t266 -274.5t92.5 -405q0 -170 -54 -313.5t-151.5 -246t-241 -160.5t-315.5 -58q-230 0 -403.5 99.5t-266 276t-92.5 404.5t92.5 403.5t266 274t403.5 98.5zM887 1372q-279 0 -440.5 -174.5t-161.5 -468.5q0 -220 94 -377l954 838
q-159 182 -446 182zM887 84q280 0 441 175t161 468q0 210 -84 360l-952 -835q165 -168 434 -168z" />
    <glyph glyph-name="zero.osf" horiz-adv-x="1765" 
d="M883 -49q-233 0 -413 74t-279 209.5t-99 312.5q0 178 98.5 314t278.5 210t414 74t413.5 -74t278 -210t98.5 -314q0 -268 -217.5 -432t-572.5 -164zM883 84q289 0 459.5 125.5t170.5 337.5q0 214 -170.5 339.5t-459.5 125.5t-460 -125.5t-171 -339.5q0 -212 171.5 -337.5
t459.5 -125.5z" />
    <glyph glyph-name="one.osf" horiz-adv-x="1579" 
d="M928 137h573v-137h-1319v137h596v717q-44 -73 -179 -128t-304 -64h-84v143h63q123 0 229.5 33t186 99.5t113.5 158.5h125v-959z" />
    <glyph glyph-name="two.osf" horiz-adv-x="1683" 
d="M133 143q663 183 899 289q135 61 194.5 130t59.5 161q0 128 -125 208.5t-323 80.5q-232 0 -358 -82.5t-126 -235.5q0 -30 4 -57l-159 22q-4 46 -4 62q0 190 179 307t470 117q269 0 436.5 -115t167.5 -301q0 -194 -225 -326q-259 -149 -756 -266h1075v-137h-1409v143z" />
    <glyph glyph-name="three.osf" horiz-adv-x="1679" 
d="M825 -356q-300 0 -492.5 116t-215.5 312l155 16q34 -151 178 -231t379 -80q264 0 408.5 80.5t144.5 228.5q0 129 -116.5 191.5t-360.5 62.5h-184v131h176q207 0 320.5 67.5t113.5 190.5q0 138 -130 210.5t-380 72.5q-247 0 -388.5 -96.5t-149.5 -268.5l-152 25
q0 210 194.5 341.5t503.5 131.5q312 0 487 -109.5t175 -304.5q0 -121 -90 -207.5t-232 -103.5q172 -19 273.5 -109t101.5 -225q0 -205 -193.5 -323.5t-525.5 -118.5z" />
    <glyph glyph-name="four.osf" horiz-adv-x="1601" 
d="M1094 -307v364h-1061v111l1016 930h196v-916h332v-125h-332v-364h-151zM240 182h854v637q0 103 6 160h-6q-43 -62 -127 -139l-580 -533q-9 -8 -147 -125z" />
    <glyph glyph-name="five.osf" horiz-adv-x="1619" 
d="M823 -356q-283 0 -467.5 111t-238.5 313l164 30q40 -152 182.5 -236.5t359.5 -84.5q254 0 393.5 104t139.5 293q0 178 -129.5 275.5t-366.5 97.5q-202 0 -332.5 -67t-205.5 -210l-158 13l98 813h1174v-140h-1049l-70 -520q71 116 227 181t365 65q292 0 449.5 -132
t157.5 -376t-186.5 -387t-506.5 -143z" />
    <glyph glyph-name="six.osf" horiz-adv-x="1693" 
d="M915 963q313 0 484.5 -130t171.5 -366q0 -151 -85 -268.5t-239 -182.5t-350 -65q-367 0 -569.5 199.5t-202.5 564.5q0 360 195.5 559t549.5 199q277 0 459.5 -111.5t220.5 -304.5l-159 -37q-94 319 -521 319q-288 0 -441 -160t-153 -464v-2q0 -37 3 -78q63 154 231.5 241
t404.5 87zM897 84q235 0 374.5 104t139.5 279q0 178 -130 269t-382 91q-237 0 -391.5 -100.5t-192.5 -280.5q59 -179 206 -270.5t376 -91.5z" />
    <glyph glyph-name="seven.osf" horiz-adv-x="1443" 
d="M457 -307v33q0 338 190 653.5t547 576.5h-1151v140h1366v-125q-762 -511 -762 -1233v-45h-190z" />
    <glyph glyph-name="eight.osf" horiz-adv-x="1691" 
d="M1161 758q216 -51 316 -141.5t100 -235.5q0 -202 -191 -316t-530 -114q-356 0 -548.5 108t-192.5 308q0 147 106.5 241t308.5 129q-190 46 -278 131t-88 222q0 177 184 280t502 103q309 0 492.5 -104.5t183.5 -281.5q0 -131 -94.5 -215.5t-270.5 -113.5zM324 1092
q0 -107 92.5 -169.5t294.5 -93.5l245 -36q226 56 317 121.5t91 172.5q0 127 -134.5 197t-379.5 70q-251 0 -388.5 -68t-137.5 -194zM856 84q264 0 412.5 78t148.5 217q0 123 -106.5 191t-349.5 100l-216 30q-244 -43 -355 -121t-111 -206q0 -139 149.5 -214t427.5 -75z" />
    <glyph glyph-name="nine.osf" horiz-adv-x="1693" 
d="M815 1143q360 0 558 -193.5t198 -546.5q0 -365 -198 -562t-562 -197q-265 0 -431.5 91.5t-219.5 266.5l153 35q82 -260 500 -260q295 0 449.5 159.5t154.5 466.5v5q0 50 -2 73q-70 -130 -240 -209t-387 -79q-318 0 -491.5 125t-173.5 354q0 214 188.5 342.5t503.5 128.5z
M813 328q227 0 379 88t190 241q-110 355 -565 355q-253 0 -393.5 -89.5t-140.5 -250.5q0 -169 134.5 -256.5t395.5 -87.5z" />
    <glyph glyph-name="zero.osf.zero" horiz-adv-x="1765" 
d="M883 1145q234 0 413.5 -74t278 -210t98.5 -314q0 -268 -217.5 -432t-572.5 -164q-233 0 -413 74t-279 209.5t-99 312.5q0 178 98.5 314t278.5 210t414 74zM883 1012q-289 0 -460 -125.5t-171 -339.5q0 -174 121 -295l938 655q-168 105 -428 105zM883 84
q289 0 459.5 125.5t170.5 337.5q0 174 -116 293l-938 -654q168 -102 424 -102z" />
    <glyph glyph-name="one.ss02" horiz-adv-x="1433" 
d="M854 145h537v-145h-1289v145h600v1010q-61 -83 -193.5 -138.5t-318.5 -55.5h-67v143h45q206 0 349.5 87t201.5 232h135v-1278z" />
    <glyph glyph-name="zero.tf.case" 
d="M821 -51q-335 0 -528 212.5t-193 567.5q0 358 194 567t525 209q335 0 527 -210.5t192 -565.5q0 -358 -193 -569t-524 -211zM821 72q270 0 415.5 176.5t145.5 480.5t-147.5 479.5t-415.5 175.5q-270 0 -415.5 -175.5t-145.5 -479.5q0 -305 147.5 -481t415.5 -176z" />
    <glyph glyph-name="one.tf.case" 
d="M967 145h536v-145h-1288v145h600v1037q-61 -84 -193.5 -140.5t-318.5 -56.5h-67v141h45q205 0 348.5 89.5t201.5 236.5h136v-1307z" />
    <glyph glyph-name="two.tf.case" 
d="M143 0v115q346 180 562.5 307t347.5 231q123 98 173 189.5t50 201.5q0 150 -117.5 245t-339.5 95q-204 0 -337 -94.5t-150 -271.5q-3 -26 0 -55l-154 22q-2 25 2 66q14 142 105 246.5t230 156t308 51.5q153 0 272 -36t192 -99t110 -144t37 -175q0 -119 -51 -222.5
t-166 -207.5q-124 -113 -337 -241.5t-483 -250.5h1104v-129h-1358z" />
    <glyph glyph-name="three.tf.case" 
d="M834 -49q-299 0 -481 123.5t-206 318.5l150 19q31 -154 166.5 -246t374.5 -92t369 81t130 238q0 85 -36 144.5t-102.5 92.5t-148 47.5t-186.5 14.5h-149v115h139q192 0 311 76t119 219q0 129 -116.5 204.5t-354.5 75.5q-123 0 -217 -30t-151 -84t-87 -123t-34 -152
l-152 27q0 69 24 136.5t76.5 130.5t127 111.5t183.5 77.5t238 29q301 0 461 -109.5t160 -293.5q0 -74 -32 -137t-84 -104.5t-111.5 -66.5t-120.5 -32q79 -7 148 -32t127 -68.5t92 -112.5t34 -156q0 -202 -169 -322t-492 -120z" />
    <glyph glyph-name="four.tf.case" 
d="M1090 0v389h-1010v94l971 969h190v-942h324v-121h-324v-389h-151zM279 510h811v684q0 103 6 152h-6q-26 -46 -93 -113l-608 -627q-42 -42 -110 -96z" />
    <glyph glyph-name="five.tf.case" 
d="M821 -51q-269 0 -443.5 107t-217.5 292l153 12q33 -132 167.5 -209t353.5 -77q229 0 362 108t133 301q0 80 -27.5 147.5t-82.5 121t-148 84t-215 30.5q-180 0 -306 -66t-188 -169l-149 12l80 809h1096v-125h-967l-57 -559q71 92 205 154.5t319 62.5q268 0 432 -136
t164 -366q0 -235 -179 -384.5t-485 -149.5z" />
    <glyph glyph-name="six.tf.case" 
d="M887 983q290 0 455 -130t165 -376q0 -111 -45.5 -208.5t-127.5 -168t-202 -111t-262 -40.5q-348 0 -540.5 204t-192.5 578q0 366 184.5 570t522.5 204q259 0 432 -107.5t211 -299.5l-162 -37q-86 311 -481 311q-269 0 -411 -166t-142 -475v-2q0 -51 2 -76
q58 150 211.5 240t382.5 90zM870 84q221 0 349.5 108.5t128.5 284.5q0 186 -123.5 278.5t-352.5 92.5q-222 0 -365.5 -104.5t-180.5 -286.5q56 -183 193 -278t351 -95z" />
    <glyph glyph-name="seven.tf.case" 
d="M573 0v31q0 361 185.5 690t515.5 592h-1116v139h1331v-125q-130 -94 -237.5 -198t-199 -227.5t-154 -256t-97.5 -286t-35 -316.5v-43h-193z" />
    <glyph glyph-name="eight.tf.case" 
d="M1128 774q90 -20 158.5 -49.5t125.5 -74t87.5 -110.5t30.5 -151q0 -206 -183.5 -323t-512.5 -117q-346 0 -532.5 111.5t-186.5 314.5q0 147 102 244.5t297 134.5q-169 43 -260.5 127t-91.5 233q0 182 178 286.5t487 104.5q298 0 475 -106.5t177 -286.5q0 -132 -90.5 -219
t-260.5 -119zM324 1116q0 -114 92.5 -177t271.5 -91l246 -37q212 55 298.5 123t86.5 178q0 130 -128 202t-366 72q-239 0 -370 -70.5t-131 -199.5zM834 84q255 0 395.5 80t140.5 223q0 69 -30 121t-89.5 86.5t-134 56t-178.5 37.5l-211 29q-232 -43 -340 -124t-108 -212
q0 -142 144 -219.5t411 -77.5z" />
    <glyph glyph-name="nine.tf.case" 
d="M797 1505q341 0 528.5 -195t187.5 -556q0 -382 -178 -593.5t-510 -211.5q-266 0 -445.5 106.5t-217.5 292.5l160 39q43 -162 168.5 -232.5t334.5 -70.5q262 0 398.5 173t136.5 495v4q0 48 -2 71q-65 -131 -222 -217t-382 -86q-288 0 -451.5 122.5t-163.5 357.5
q0 228 180.5 364.5t477.5 136.5zM778 659q221 0 367 96t182 257q-106 360 -530 360q-231 0 -364.5 -96.5t-133.5 -271.5q0 -173 125 -259t354 -86z" />
    <glyph glyph-name="zero.tf.case.zero" 
d="M819 1505q335 0 527 -210.5t192 -565.5q0 -358 -193 -569t-524 -211q-335 0 -528 212.5t-193 567.5q0 358 194 567t525 209zM819 1384q-270 0 -415.5 -175.5t-145.5 -479.5q0 -204 70 -360l923 821q-149 194 -432 194zM821 72q270 0 415.5 176.5t145.5 480.5
q0 206 -67 352l-922 -819q151 -190 428 -190z" />
    <glyph glyph-name="zero.tosf" 
d="M823 -49q-219 0 -385 77.5t-254 212t-88 306.5v4q0 173 88 307t254 210.5t385 76.5q330 0 527.5 -165.5t197.5 -428.5v-4q0 -172 -87.5 -306.5t-253 -212t-384.5 -77.5zM823 84q261 0 413.5 128t152.5 335v4q0 208 -152.5 334.5t-413.5 126.5q-262 0 -414.5 -126.5
t-152.5 -334.5v-4q0 -207 152.5 -335t414.5 -128z" />
    <glyph glyph-name="one.tosf" 
d="M944 123h502v-123h-1208v123h557v729q-44 -71 -179 -125.5t-303 -64.5h-86v143h66q186 0 331 77.5t195 213.5h125v-973z" />
    <glyph glyph-name="two.tosf" 
d="M123 143q358 100 566.5 166.5t328.5 122.5q132 62 189 130.5t57 160.5q0 119 -116 204t-327 85q-229 0 -353 -84t-124 -240q0 -29 4 -47l-160 25q-4 16 -4 49q0 90 42.5 168t122 136.5t203 92t275.5 33.5q148 0 265 -35.5t187.5 -95t107 -132.5t36.5 -153
q0 -200 -215 -326q-260 -152 -749 -266h1061v-137h-1397v143z" />
    <glyph glyph-name="three.tosf" 
d="M834 -356q-299 0 -481 121t-206 313l150 16q31 -148 166.5 -237.5t374.5 -89.5q238 0 368.5 79t130.5 232q0 63 -24.5 111.5t-65.5 79t-102.5 49.5t-129.5 26.5t-151 7.5h-151v115h141q126 0 221 31t152 96.5t57 159.5q0 124 -117 196t-354 72q-240 0 -360.5 -104
t-128.5 -271l-152 27q0 66 24 131.5t76.5 127t127 108.5t183.5 75.5t238 28.5q300 0 460.5 -107t160.5 -284q0 -73 -32 -134t-84 -101t-111.5 -64.5t-120.5 -32.5q79 -6 148 -29.5t127 -63.5t92 -105t34 -146q0 -196 -169.5 -315t-491.5 -119z" />
    <glyph glyph-name="four.tosf" 
d="M1090 -313v362h-1010v94l971 953h190v-926h326v-121h-326v-362h-151zM279 170h811v664q0 106 6 155h-6q-6 -11 -13 -21t-11.5 -16.5t-15.5 -19t-15 -17t-20.5 -21.5t-21.5 -22l-600 -602q-60 -60 -114 -100z" />
    <glyph glyph-name="five.tosf" 
d="M821 -356q-269 0 -443.5 104t-217.5 283l153 12q33 -127 168 -201.5t353 -74.5q228 0 361.5 105.5t133.5 289.5v4q0 78 -27.5 143.5t-82.5 117t-147.5 81t-213.5 29.5q-182 0 -308.5 -63.5t-187.5 -166.5l-149 15l80 774h1098v-125h-969l-57 -527q72 87 206.5 148
t317.5 61q268 0 432 -131.5t164 -355.5v-4q0 -227 -179.5 -372.5t-484.5 -145.5z" />
    <glyph glyph-name="six.tosf" 
d="M887 963q290 0 455 -127t165 -369q0 -223 -175.5 -369.5t-461.5 -146.5q-348 0 -540.5 200t-192.5 564q0 358 184.5 558t522.5 200q258 0 431.5 -106.5t211.5 -293.5l-162 -37q-86 303 -481 303q-269 0 -411 -161.5t-142 -462.5v-2q0 -49 2 -72q58 145 212 233.5
t382 88.5zM870 84q221 0 349.5 106t128.5 277q0 181 -123.5 270.5t-352.5 89.5q-222 0 -365.5 -102t-180.5 -279q114 -362 544 -362z" />
    <glyph glyph-name="seven.tosf" 
d="M575 -307v31q0 347 185 662.5t514 569.5h-1116v140h1331v-125q-723 -512 -723 -1235v-43h-191z" />
    <glyph glyph-name="eight.tosf" 
d="M1130 758q90 -21 158.5 -50t125 -72.5t86.5 -108t30 -146.5q0 -202 -183.5 -316t-512.5 -114q-346 0 -532.5 108.5t-186.5 307.5q0 143 101.5 238t297.5 132q-169 42 -260.5 124.5t-91.5 228.5q0 177 178 280t487 103q297 0 474.5 -105.5t177.5 -280.5q0 -129 -90 -213.5
t-259 -115.5zM324 1092q0 -112 92 -173.5t272 -89.5l244 -36q214 56 300.5 121.5t86.5 172.5q0 126 -128.5 196.5t-365.5 70.5q-239 0 -370 -68.5t-131 -193.5zM834 84q255 0 395.5 78t140.5 217q0 68 -30 118.5t-89.5 83.5t-134 53.5t-178.5 35.5l-213 30
q-232 -43 -339 -121.5t-107 -205.5q0 -138 143.5 -213.5t411.5 -75.5z" />
    <glyph glyph-name="nine.tosf" 
d="M797 1145q341 0 528.5 -191.5t187.5 -545.5q0 -362 -178 -563t-510 -201q-266 0 -445.5 103.5t-217.5 283.5l160 37q43 -155 168.5 -223t334.5 -68q261 0 398 165t137 466v4q0 48 -2 73q-65 -130 -222 -215.5t-382 -85.5q-287 0 -451 120t-164 349q0 224 180.5 358
t477.5 134zM778 319q221 0 366.5 93.5t182.5 251.5q-109 348 -530 348q-231 0 -364.5 -94.5t-133.5 -264.5q0 -167 125.5 -250.5t353.5 -83.5z" />
    <glyph glyph-name="zero.tosf.zero" 
d="M823 1145q330 0 527.5 -165.5t197.5 -428.5v-4q0 -172 -87.5 -306.5t-253 -212t-384.5 -77.5t-385 77.5t-254 212t-88 306.5v4q0 173 88 307t254 210.5t385 76.5zM256 551v-4q0 -160 92 -275l875 623q-152 117 -400 117q-262 0 -414.5 -126.5t-152.5 -334.5zM1389 547v4
q0 152 -89 268l-874 -620q149 -115 397 -115q261 0 413.5 128t152.5 335z" />
    <glyph glyph-name="zero.subs" horiz-adv-x="1349" 
d="M676 -322q-256 0 -410.5 150t-154.5 405q0 253 155.5 404t409.5 151q255 0 409 -151.5t154 -405.5t-154 -403.5t-409 -149.5zM676 -211q187 0 298 117t111 325t-111 326.5t-298 118.5q-186 0 -299 -118t-113 -325q0 -209 112 -326.5t300 -117.5z" />
    <glyph glyph-name="one.subs" horiz-adv-x="782" 
d="M403 -287v828q-40 -56 -117 -89.5t-171 -33.5h-47v125h26q121 0 210 56.5t120 152.5h125v-1039h-146z" />
    <glyph glyph-name="two.subs" horiz-adv-x="1253" 
d="M96 -287v109q340 145 460 207q276 142 355 278q37 64 37 133q0 101 -86 168.5t-250 67.5q-150 0 -248 -64.5t-98 -189.5q0 -15 4 -55l-151 14q-4 18 -4 59q0 107 65.5 187t177 120.5t252.5 40.5q232 0 364 -92t132 -247q0 -60 -21 -116t-55.5 -102.5t-91 -93.5
t-113.5 -84t-138.5 -78.5t-150.5 -73t-163 -71.5h766v-117h-1043z" />
    <glyph glyph-name="three.subs" horiz-adv-x="1284" 
d="M637 -322q-239 0 -380 93.5t-153 251.5l154 12q11 -115 109.5 -182.5t271.5 -67.5q171 0 272 58t101 163q0 89 -82 142t-248 53h-131v94h123q135 0 220 45t85 137q0 98 -91.5 150.5t-256.5 52.5q-171 0 -265.5 -70t-99.5 -190l-149 16q6 158 141 255t375 97
q237 0 369.5 -79.5t132.5 -223.5q0 -56 -24 -99.5t-66 -69.5t-90 -40.5t-103 -19.5q144 -11 229.5 -78.5t85.5 -181.5q0 -144 -140.5 -231t-389.5 -87z" />
    <glyph glyph-name="four.subs" horiz-adv-x="1275" 
d="M1233 -23h-262v-264h-146v264h-772v99l750 676h168v-668h262v-107zM825 643l-610 -559h610v559z" />
    <glyph glyph-name="five.subs" horiz-adv-x="1232" 
d="M614 -322q-207 0 -341.5 81.5t-163.5 222.5l147 16q25 -100 120.5 -156.5t241.5 -56.5q168 0 264.5 72.5t96.5 197.5q0 126 -91 193t-255 67q-131 0 -225.5 -49t-133.5 -135l-137 12l66 609h866v-111h-750l-43 -389q53 80 158.5 123t249.5 43q210 0 329.5 -95t119.5 -266
q0 -173 -141.5 -276t-377.5 -103z" />
    <glyph glyph-name="six.subs" horiz-adv-x="1286" 
d="M700 412q226 0 354 -96.5t128 -266.5q0 -169 -140.5 -270t-373.5 -101q-272 0 -414.5 138.5t-142.5 406.5q0 271 145 418t414 147q202 0 330.5 -76t160.5 -216l-151 -21q-63 205 -346 205q-201 0 -306.5 -115t-105.5 -336q0 -33 2 -49q47 110 164 171t282 61zM668 -215
q167 0 263.5 71t96.5 193q0 124 -92.5 191t-261.5 67q-159 0 -263.5 -66t-136.5 -190q40 -130 140 -198t254 -68z" />
    <glyph glyph-name="seven.subs" horiz-adv-x="1112" 
d="M375 -287v25q0 260 136.5 490.5t383.5 406.5h-846v117h1006v-111q-240 -169 -378 -392t-138 -499v-37h-164z" />
    <glyph glyph-name="eight.subs" horiz-adv-x="1290" 
d="M868 274q165 -34 240.5 -102.5t75.5 -183.5q0 -147 -141.5 -228.5t-395.5 -81.5q-256 0 -398.5 78.5t-142.5 220.5q0 106 81.5 174t236.5 91q-147 32 -216 96.5t-69 167.5q0 130 136 206t368 76q233 0 369.5 -75t136.5 -203q0 -193 -281 -236zM291 504q0 -77 65.5 -122
t206.5 -65l166 -20q149 32 208.5 77.5t59.5 123.5q0 91 -94 141.5t-260 50.5q-163 0 -257.5 -50t-94.5 -136zM647 -219q180 0 281.5 55.5t101.5 155.5q0 85 -71.5 133.5t-229.5 71.5l-164 22q-158 -28 -231.5 -83t-73.5 -144q0 -100 102 -155.5t285 -55.5z" />
    <glyph glyph-name="nine.subs" horiz-adv-x="1286" 
d="M621 788q270 0 413.5 -134t143.5 -390q0 -286 -140.5 -436t-414.5 -150q-202 0 -331.5 80t-164.5 226l152 22q58 -217 346 -217q205 0 307 117t102 344v22q-55 -84 -171 -135t-281 -51q-222 0 -349 90t-127 256q0 163 141 259.5t374 96.5zM616 193q152 0 259.5 55.5
t144.5 150.5q-62 285 -393 285q-171 0 -270 -66t-99 -186q0 -116 96 -177.5t262 -61.5z" />
    <glyph glyph-name="zero.dnom" horiz-adv-x="1132" 
d="M567 -29q-217 0 -348 112t-131 314q0 198 132.5 310t346.5 112q215 0 347.5 -113t132.5 -313q0 -199 -131.5 -310.5t-348.5 -111.5zM567 70q149 0 241.5 83t92.5 240q0 160 -92.5 244t-241.5 84q-148 0 -242 -83.5t-94 -240.5q0 -160 92.5 -243.5t243.5 -83.5z" />
    <glyph glyph-name="one.dnom" horiz-adv-x="659" 
d="M328 0v618q-36 -51 -99 -75.5t-131 -24.5h-43v117h25q98 0 173 41.5t99 116.5h119v-793h-143z" />
    <glyph glyph-name="two.dnom" horiz-adv-x="1034" 
d="M84 0v88q316 141 414 194q201 109 248 207q16 35 16 72q0 71 -68.5 115.5t-189.5 44.5q-52 0 -96.5 -8t-84.5 -26t-63.5 -52t-23.5 -82q0 -21 2 -35l-144 10q-2 12 -2 39q0 86 59 144.5t148.5 83t202.5 24.5q119 0 207.5 -23.5t145 -79.5t56.5 -141q0 -44 -20 -87
t-51 -79t-82 -73.5t-98.5 -66t-115.5 -62t-118 -55.5t-121 -52h629v-100h-850z" />
    <glyph glyph-name="three.dnom" horiz-adv-x="1058" 
d="M522 -29q-199 0 -316.5 75t-119.5 200l143 8q1 -86 80 -135t213 -49q129 0 212 37.5t83 115.5q0 66 -64.5 99.5t-224.5 33.5h-94v99h92q271 0 271 125q0 69 -77 105t-200 36q-137 0 -211.5 -46t-75.5 -136l-143 6q2 127 116.5 200.5t315.5 73.5q189 0 304.5 -57
t115.5 -170q0 -46 -21 -80t-57 -54t-77 -31t-89 -15q128 -8 197.5 -56t69.5 -131q0 -123 -123 -188.5t-320 -65.5z" />
    <glyph glyph-name="four.dnom" horiz-adv-x="1097" 
d="M1057 193h-232v-193h-141v193h-635v90l627 510h149v-508h232v-92zM684 690l-502 -405h502v405z" />
    <glyph glyph-name="five.dnom" horiz-adv-x="1005" 
d="M496 -29q-168 0 -279.5 63t-130.5 167l137 10q17 -68 91 -106.5t188 -38.5q130 0 205 51.5t75 138.5q0 88 -71.5 136t-204.5 48q-97 0 -176.5 -35.5t-98.5 -85.5l-122 11l49 463h714v-93h-606l-30 -290q42 56 124.5 86t192.5 30q176 0 275.5 -72t99.5 -196
q0 -128 -118.5 -207.5t-313.5 -79.5z" />
    <glyph glyph-name="six.dnom" horiz-adv-x="1056" 
d="M580 528q186 0 290.5 -73.5t104.5 -202.5q0 -131 -116.5 -206t-317.5 -75q-455 0 -455 408q0 215 120.5 327.5t346.5 112.5q167 0 269.5 -54t133.5 -157l-143 -10q-45 131 -264 131q-162 0 -246 -81t-84 -265v-4q42 74 136 111.5t225 37.5zM541 66q132 0 210 49t78 137
q0 83 -75.5 130.5t-204.5 47.5q-255 0 -316 -164q52 -200 308 -200z" />
    <glyph glyph-name="seven.dnom" horiz-adv-x="921" 
d="M37 688v105h835v-105q-182 -117 -291.5 -299.5t-109.5 -388.5h-147v4q-4 199 106.5 377.5t310.5 306.5h-704z" />
    <glyph glyph-name="eight.dnom" horiz-adv-x="1062" 
d="M717 430q141 -25 200.5 -80t59.5 -145q0 -111 -118 -172.5t-331 -61.5q-204 0 -323 62t-119 166q0 159 252 200q-225 46 -225 201q0 101 111.5 160t303.5 59q197 0 311.5 -56.5t114.5 -154.5q0 -75 -56 -117t-181 -61zM256 596q0 -57 52 -90t165 -45l123 -15
q121 19 167 51t46 95q0 66 -76 104.5t-205 38.5q-122 0 -197 -38.5t-75 -100.5zM528 57q140 0 220.5 42.5t80.5 115.5q0 61 -51.5 97t-173.5 53l-141 16q-117 -20 -173.5 -59.5t-56.5 -100.5q0 -74 80 -119t215 -45z" />
    <glyph glyph-name="nine.dnom" horiz-adv-x="1056" 
d="M512 819q459 0 459 -387q0 -461 -463 -461q-166 0 -269.5 60t-132.5 174l142 8q22 -63 89.5 -103t176.5 -40q162 0 241.5 79.5t80.5 247.5q-98 -112 -357 -112q-183 0 -289 70.5t-106 195.5q0 127 116.5 197.5t311.5 70.5zM516 371q110 0 193 33t122 90
q-19 124 -94 181.5t-215 57.5q-135 0 -215 -48.5t-80 -133.5t79 -132.5t210 -47.5z" />
    <glyph glyph-name="zero.numr" horiz-adv-x="1132" 
d="M567 635q-217 0 -348 112t-131 314q0 198 132.5 310t346.5 112q215 0 347.5 -113t132.5 -313q0 -199 -131.5 -310.5t-348.5 -111.5zM567 733q149 0 241.5 83.5t92.5 240.5q0 160 -92.5 243.5t-241.5 83.5q-148 0 -242 -83.5t-94 -239.5q0 -160 92.5 -244t243.5 -84z" />
    <glyph glyph-name="one.numr" horiz-adv-x="659" 
d="M328 664v618q-36 -51 -99 -75.5t-131 -24.5h-43v116h25q98 0 173 41.5t99 116.5h119v-792h-143z" />
    <glyph glyph-name="two.numr" horiz-adv-x="1034" 
d="M84 664v88q316 141 414 194q201 109 248 207q16 35 16 72q0 71 -68 115t-190 44q-52 0 -96 -8t-84.5 -25.5t-64 -51.5t-23.5 -82q0 -21 2 -35l-144 10q-2 12 -2 39q0 86 59 144.5t148.5 83t202.5 24.5q119 0 207.5 -23.5t145 -79.5t56.5 -141q0 -44 -20 -87t-51 -79
t-82 -73.5t-98.5 -66t-115.5 -62t-118 -55.5t-121 -52h629v-100h-850z" />
    <glyph glyph-name="three.numr" horiz-adv-x="1058" 
d="M522 635q-199 0 -316.5 74.5t-119.5 199.5l143 9q1 -86 80 -135.5t213 -49.5q129 0 212 38t83 116q0 66 -64.5 99.5t-224.5 33.5h-94v98h92q271 0 271 125q0 69 -77 105t-200 36q-137 0 -211.5 -46t-75.5 -136l-143 6q2 127 116.5 201t315.5 74q189 0 304.5 -57.5
t115.5 -170.5q0 -46 -21 -80t-57 -54t-77 -31t-89 -15q128 -8 197.5 -55.5t69.5 -130.5q0 -123 -123 -188.5t-320 -65.5z" />
    <glyph glyph-name="four.numr" horiz-adv-x="1097" 
d="M1057 856h-232v-192h-141v192h-635v90l627 510h149v-508h232v-92zM684 1354l-502 -406h502v406z" />
    <glyph glyph-name="five.numr" horiz-adv-x="1005" 
d="M496 635q-169 0 -280 62.5t-130 166.5l137 10q17 -68 91 -106.5t188 -38.5q130 0 205 52t75 139q0 88 -71.5 136t-204.5 48q-97 0 -176.5 -35.5t-98.5 -85.5l-122 10l49 463h714v-92h-606l-30 -291q42 57 125 87t192 30q176 0 275.5 -72t99.5 -196q0 -128 -118.5 -207.5
t-313.5 -79.5z" />
    <glyph glyph-name="six.numr" horiz-adv-x="1056" 
d="M580 1192q186 0 290.5 -74t104.5 -203q0 -131 -116.5 -205.5t-317.5 -74.5q-455 0 -455 407q0 215 120.5 328t346.5 113q167 0 269.5 -54t133.5 -157l-143 -10q-45 131 -264 131q-162 0 -246 -81t-84 -265v-5q42 74 136 112t225 38zM541 729q132 0 210 49t78 137
q0 83 -75.5 131t-204.5 48q-255 0 -316 -164q52 -201 308 -201z" />
    <glyph glyph-name="seven.numr" horiz-adv-x="921" 
d="M37 1352v104h835v-104q-182 -117 -291.5 -299.5t-109.5 -388.5h-147v4q-4 199 106.5 377.5t310.5 306.5h-704z" />
    <glyph glyph-name="eight.numr" horiz-adv-x="1062" 
d="M717 1094q141 -25 200.5 -80.5t59.5 -145.5q0 -110 -118 -171.5t-331 -61.5q-204 0 -323 61.5t-119 165.5q0 160 252 201q-225 46 -225 201q0 101 111.5 160t303.5 59q197 0 311.5 -56.5t114.5 -154.5q0 -75 -56 -117t-181 -61zM256 1260q0 -57 52 -90.5t165 -45.5
l123 -14q121 19 167 50.5t46 94.5q0 66 -76 105t-205 39q-122 0 -197 -38.5t-75 -100.5zM528 721q140 0 220.5 42.5t80.5 115.5q0 61 -51.5 96.5t-173.5 52.5l-141 16q-117 -20 -173.5 -59t-56.5 -100q0 -74 80 -119t215 -45z" />
    <glyph glyph-name="nine.numr" horiz-adv-x="1056" 
d="M512 1483q459 0 459 -387q0 -461 -463 -461q-166 0 -269.5 59.5t-132.5 173.5l142 9q22 -63 89.5 -103.5t176.5 -40.5q162 0 241.5 80t80.5 248q-99 -113 -357 -113q-183 0 -289 70.5t-106 195.5q0 127 116.5 198t311.5 71zM516 1034q110 0 193 33t122 90
q-19 124 -94 182t-215 58q-135 0 -215 -49t-80 -134t79 -132.5t210 -47.5z" />
    <glyph glyph-name="zero.sups" horiz-adv-x="1349" 
d="M676 600q-256 0 -410.5 150t-154.5 405q0 253 155.5 404t409.5 151q255 0 409 -151.5t154 -405.5t-154 -403.5t-409 -149.5zM676 711q187 0 298 117t111 325t-111 326t-298 118q-186 0 -299 -117.5t-113 -324.5q0 -209 112 -326.5t300 -117.5z" />
    <glyph glyph-name="one.sups" horiz-adv-x="782" 
d="M403 635v827q-40 -56 -117 -89.5t-171 -33.5h-47v125h26q121 0 210 56.5t120 152.5h125v-1038h-146z" />
    <glyph glyph-name="two.sups" horiz-adv-x="1253" 
d="M96 635v108q341 146 464 209q275 143 353 281q35 62 35 129q0 101 -86 168t-250 67q-150 0 -248 -64.5t-98 -189.5q0 -15 4 -55l-151 15q-4 18 -4 59q0 107 65.5 187t177 120.5t252.5 40.5q232 0 364 -92.5t132 -247.5q0 -60 -21 -116t-55.5 -102.5t-91 -93.5
t-113.5 -83.5t-138.5 -78.5t-150 -73t-163.5 -71h766v-117h-1043z" />
    <glyph glyph-name="three.sups" horiz-adv-x="1284" 
d="M637 600q-240 0 -380.5 93t-152.5 251l154 12q11 -115 109.5 -182t271.5 -67q171 0 272 58t101 163q0 89 -82 141.5t-248 52.5h-131v95h123q135 0 220 45t85 137q0 98 -91.5 150.5t-256.5 52.5q-171 0 -265.5 -70.5t-99.5 -190.5l-149 17q6 158 141 255t375 97
q237 0 369.5 -79.5t132.5 -223.5q0 -56 -24 -99.5t-66 -69.5t-90 -40.5t-103 -19.5q144 -11 229.5 -78.5t85.5 -181.5q0 -144 -140.5 -231t-389.5 -87z" />
    <glyph glyph-name="four.sups" horiz-adv-x="1275" 
d="M1233 899h-262v-264h-146v264h-772v98l750 676h168v-667h262v-107zM825 1565l-610 -559h610v559z" />
    <glyph glyph-name="five.sups" horiz-adv-x="1232" 
d="M614 600q-207 0 -341.5 81t-163.5 222l147 17q25 -100 120.5 -156.5t241.5 -56.5q168 0 264.5 72.5t96.5 197.5q0 126 -91 193t-255 67q-131 0 -225.5 -49t-133.5 -135l-137 12l66 608h866v-110h-750l-43 -389q53 80 158 122.5t250 42.5q210 0 329.5 -94.5t119.5 -265.5
q0 -173 -141.5 -276t-377.5 -103z" />
    <glyph glyph-name="six.sups" horiz-adv-x="1286" 
d="M700 1333q226 0 354 -96t128 -266q0 -169 -140.5 -270t-373.5 -101q-272 0 -414.5 138.5t-142.5 406.5q0 271 145 418t414 147q202 0 330.5 -76.5t160.5 -216.5l-151 -20q-63 205 -346 205q-201 0 -306.5 -115t-105.5 -336q0 -33 2 -49q47 110 163.5 170.5t282.5 60.5z
M668 707q167 0 263.5 71t96.5 193q0 124 -92.5 191t-261.5 67q-159 0 -263.5 -66t-136.5 -190q40 -130 140 -198t254 -68z" />
    <glyph glyph-name="seven.sups" horiz-adv-x="1112" 
d="M375 635v24q0 260 136.5 490.5t383.5 406.5h-846v117h1006v-110q-240 -169 -378 -392t-138 -499v-37h-164z" />
    <glyph glyph-name="eight.sups" horiz-adv-x="1290" 
d="M868 1196q165 -34 240.5 -103t75.5 -184q0 -147 -141.5 -228t-395.5 -81q-256 0 -398.5 78.5t-142.5 220.5q0 106 81.5 173.5t236.5 90.5q-147 32 -216 96.5t-69 167.5q0 130 136 206.5t368 76.5q233 0 369.5 -75t136.5 -203q0 -193 -281 -236zM291 1425q0 -76 65.5 -121
t206.5 -65l166 -20q149 32 208.5 77.5t59.5 122.5q0 91 -94 142t-260 51q-163 0 -257.5 -50.5t-94.5 -136.5zM647 702q180 0 281.5 55.5t101.5 155.5q0 85 -71.5 133.5t-229.5 71.5l-164 23q-158 -28 -231.5 -83t-73.5 -145q0 -100 102 -155.5t285 -55.5z" />
    <glyph glyph-name="nine.sups" horiz-adv-x="1286" 
d="M621 1710q270 0 413.5 -134t143.5 -390q0 -286 -140.5 -436t-414.5 -150q-203 0 -332 79.5t-164 225.5l152 23q58 -217 346 -217q205 0 307 117t102 343v23q-55 -84 -171 -135t-281 -51q-222 0 -349 90t-127 256q0 163 141 259.5t374 96.5zM616 1114q152 0 259.5 56
t144.5 151q-62 285 -393 285q-171 0 -270 -66t-99 -186q0 -116 96 -178t262 -62z" />
    <glyph glyph-name="backslash.case" horiz-adv-x="1306" 
d="M1047 -180l-953 1796h166l952 -1796h-165z" />
    <glyph glyph-name="periodcentered.case" horiz-adv-x="638" 
d="M438 879v-226h-237v226h237z" />
    </font>
</defs>
</svg>
