<svg width="185" height="25" viewBox="0 0 185 25" fill="none" xmlns="http://www.w3.org/2000/svg">
<path d="M5.72 19L0.494 0.539999H5.226L8.19 12.526C8.32 13.098 8.398 13.644 8.424 14.164H8.528C8.554 13.644 8.684 13.098 8.84 12.526L12.246 0.539999H17.004L20.41 12.526C20.566 13.098 20.696 13.644 20.722 14.164H20.826C20.852 13.644 20.956 13.098 21.06 12.526L24.024 0.539999H28.782L23.53 19H18.252L14.924 6.702C14.794 6.208 14.716 5.714 14.69 5.22H14.56C14.534 5.714 14.456 6.208 14.326 6.702L10.998 19H5.72ZM44.0806 12.448V13.488H32.6926C32.8226 15.282 34.3046 16.348 36.6706 16.348C38.3606 16.348 39.7126 15.698 40.4926 14.45L43.8206 15.958C42.4686 18.142 39.8946 19.39 36.5666 19.39C31.4966 19.39 28.4286 16.868 28.4286 12.604C28.4286 8.236 31.5226 5.61 36.3066 5.61C41.2466 5.61 44.0806 8.158 44.0806 12.448ZM39.7126 11.07V11.018C39.7126 9.224 38.3346 8.158 36.2546 8.158C34.1226 8.158 32.7966 9.25 32.6666 11.07H39.7126ZM59.2798 19.39C56.0038 19.39 53.9498 17.882 53.9498 15.438C53.9498 14.242 54.4438 13.254 55.3538 12.604C56.2638 11.98 57.5638 11.59 59.8778 11.356L64.7138 10.914V10.524C64.7138 9.068 63.7258 8.366 61.9578 8.366C60.1638 8.366 59.0978 9.068 58.9158 10.368H54.3658C54.7038 7.404 57.5898 5.61 61.9838 5.61C66.9238 5.61 69.1858 7.404 69.1858 11.174V15.204C69.1858 16.868 69.2898 18.09 69.4978 19H65.1038C64.9998 18.376 64.9218 17.57 64.9218 16.79C64.0638 18.428 62.0358 19.39 59.2798 19.39ZM60.9698 16.686C63.2578 16.686 64.8178 15.568 64.8178 13.852V13.02L61.2298 13.384C59.2538 13.618 58.4998 14.138 58.4998 15.152C58.4998 16.114 59.4358 16.686 60.9698 16.686ZM76.7945 9.588C77.5225 7.118 79.2645 5.662 81.8125 5.662C82.2025 5.662 82.4105 5.688 82.6705 5.74V9.796C82.2285 9.718 81.8385 9.692 81.3445 9.692C79.9665 9.692 79.0045 10.056 78.3545 10.68C77.4965 11.486 77.1845 12.682 77.1845 14.112V19H72.7385V6H76.7945V9.588ZM99.229 12.448V13.488H87.841C87.971 15.282 89.453 16.348 91.819 16.348C93.509 16.348 94.861 15.698 95.641 14.45L98.969 15.958C97.617 18.142 95.043 19.39 91.715 19.39C86.645 19.39 83.577 16.868 83.577 12.604C83.577 8.236 86.671 5.61 91.455 5.61C96.395 5.61 99.229 8.158 99.229 12.448ZM94.861 11.07V11.018C94.861 9.224 93.483 8.158 91.403 8.158C89.271 8.158 87.945 9.25 87.815 11.07H94.861ZM119.394 19.52C113.024 19.52 108.89 15.724 108.89 9.77C108.89 3.816 113.024 0.0199995 119.394 0.0199995C125.764 0.0199995 129.898 3.816 129.898 9.77C129.898 15.724 125.764 19.52 119.394 19.52ZM119.394 15.932C122.852 15.932 125.036 13.566 125.036 9.77C125.036 5.974 122.852 3.608 119.394 3.608C115.936 3.608 113.752 5.974 113.752 9.77C113.752 13.54 115.936 15.932 119.394 15.932ZM132.483 24.07V6H136.799V8.184C137.865 6.494 139.815 5.61 142.103 5.61C146.003 5.61 148.577 8.314 148.577 12.448C148.577 16.634 145.873 19.39 141.921 19.39C139.737 19.39 138.021 18.558 136.929 17.18V24.07H132.483ZM140.413 16.4C142.623 16.4 143.975 14.892 143.975 12.448C143.975 10.004 142.675 8.6 140.439 8.6C138.255 8.6 136.825 9.926 136.825 12.24V12.786C136.825 14.97 138.255 16.4 140.413 16.4ZM166.083 12.448V13.488H154.695C154.825 15.282 156.307 16.348 158.673 16.348C160.363 16.348 161.715 15.698 162.495 14.45L165.823 15.958C164.471 18.142 161.897 19.39 158.569 19.39C153.499 19.39 150.431 16.868 150.431 12.604C150.431 8.236 153.525 5.61 158.309 5.61C163.249 5.61 166.083 8.158 166.083 12.448ZM161.715 11.07V11.018C161.715 9.224 160.337 8.158 158.257 8.158C156.125 8.158 154.799 9.25 154.669 11.07H161.715ZM168.842 19V6H173.158V8.73C174.198 6.65 176.044 5.61 178.592 5.61C182.232 5.61 184.13 7.69 184.13 11.72V19H179.684V12.396C179.684 10.056 178.722 8.912 176.694 8.912C174.536 8.912 173.288 10.264 173.288 12.604V19H168.842Z" fill="white"/>
</svg>
