<svg width="475" height="21" viewBox="0 0 475 21" fill="none" xmlns="http://www.w3.org/2000/svg">
<path d="M2.51 14.196H12.322V16H0.354V0.379999H12.168V2.184H2.51V7.09H11.794V8.894H2.51V14.196ZM16.0324 16V5H17.9024V7.398C18.8044 5.572 20.4104 4.648 22.6984 4.648C25.8444 4.648 27.5164 6.408 27.5164 9.752V16H25.5804V10.038C25.5804 7.574 24.4144 6.342 22.0824 6.342C19.5744 6.342 17.9684 7.97 17.9684 10.588V16H16.0324ZM29.2036 6.584V5H31.8436V2.118L33.8016 1.304V5H37.7176V6.584H33.8016V12.26C33.8016 13.778 34.5056 14.416 35.9796 14.416C36.6396 14.416 37.1896 14.328 37.7396 14.196V15.934C37.2116 16.11 36.4416 16.22 35.6056 16.22C32.5036 16.22 31.8436 14.46 31.8436 12.37V6.584H29.2036ZM49.3963 0.0279998L46.1843 3.24H44.2703L46.9543 0.0279998H49.3963ZM51.2223 9.972V11.072H41.0583C41.1243 13.272 42.7303 14.658 45.3923 14.658C47.3503 14.658 48.7363 13.91 49.4623 12.48L51.0903 13.228C50.0343 15.274 48.0983 16.33 45.3043 16.33C41.4543 16.33 39.0783 14.262 39.0783 10.632C39.0783 6.826 41.4983 4.67 45.2163 4.67C48.9563 4.67 51.2223 6.562 51.2223 9.972ZM49.2203 9.554V9.4C49.1983 7.288 47.5263 6.144 45.1943 6.144C42.7523 6.144 41.1683 7.464 41.0583 9.554H49.2203ZM56.229 7.794C56.801 6.012 58.253 4.692 60.211 4.692C60.519 4.692 60.783 4.714 61.047 4.758V6.65C60.827 6.628 60.629 6.606 60.365 6.606C58.979 6.606 58.121 7.002 57.505 7.662C56.515 8.674 56.361 10.104 56.361 11.534V16H54.425V5H56.229V7.794ZM66.6871 16.33C63.9811 16.33 62.2211 15.076 62.2211 13.074C62.2211 12.018 62.7051 11.116 63.5851 10.566C64.3991 10.082 65.4551 9.752 67.6771 9.554L71.7691 9.246V9.048C71.7691 7.134 70.6031 6.232 68.3591 6.232C66.2251 6.232 64.9051 7.046 64.7071 8.542H62.5951C62.8371 6.232 65.0371 4.67 68.3591 4.67C71.9671 4.67 73.7271 6.144 73.7271 9.268V12.172C73.7271 14.042 73.8151 15.01 74.0571 16H72.0331C71.9231 15.384 71.8791 14.636 71.8571 13.866C71.0211 15.45 69.2831 16.33 66.6871 16.33ZM67.2151 14.79C69.9211 14.79 71.7911 13.382 71.7911 11.182V10.632L67.3251 11.05C65.0591 11.292 64.2891 11.864 64.2891 13.03C64.2891 14.152 65.3451 14.79 67.2151 14.79ZM75.395 6.584V5H78.035V2.118L79.993 1.304V5H83.909V6.584H79.993V12.26C79.993 13.778 80.697 14.416 82.171 14.416C82.831 14.416 83.381 14.328 83.931 14.196V15.934C83.403 16.11 82.633 16.22 81.797 16.22C78.695 16.22 78.035 14.46 78.035 12.37V6.584H75.395ZM97.4137 9.972V11.072H87.2497C87.3157 13.272 88.9217 14.658 91.5837 14.658C93.5417 14.658 94.9277 13.91 95.6537 12.48L97.2817 13.228C96.2257 15.274 94.2897 16.33 91.4957 16.33C87.6457 16.33 85.2697 14.262 85.2697 10.632C85.2697 6.826 87.6897 4.67 91.4077 4.67C95.1477 4.67 97.4137 6.562 97.4137 9.972ZM95.4117 9.554V9.4C95.3897 7.288 93.7177 6.144 91.3857 6.144C88.9437 6.144 87.3597 7.464 87.2497 9.554H95.4117ZM112.301 16.33C108.979 16.33 106.647 13.954 106.647 10.5C106.647 7.068 109.023 4.67 112.477 4.67C114.501 4.67 115.997 5.374 117.009 6.848V0.0499995H118.945V16H117.075V13.866C116.151 15.472 114.545 16.33 112.301 16.33ZM112.829 14.636C115.337 14.636 117.053 13.096 117.053 10.786V10.28C117.053 7.904 115.315 6.342 112.741 6.342C110.233 6.342 108.693 7.904 108.693 10.5C108.693 13.074 110.277 14.636 112.829 14.636ZM134.259 9.972V11.072H124.095C124.161 13.272 125.767 14.658 128.429 14.658C130.387 14.658 131.773 13.91 132.499 12.48L134.127 13.228C133.071 15.274 131.135 16.33 128.341 16.33C124.491 16.33 122.115 14.262 122.115 10.632C122.115 6.826 124.535 4.67 128.253 4.67C131.993 4.67 134.259 6.562 134.259 9.972ZM132.257 9.554V9.4C132.235 7.288 130.563 6.144 128.231 6.144C125.789 6.144 124.205 7.464 124.095 9.554H132.257ZM142.899 6.584V5H145.539V2.118L147.497 1.304V5H151.413V6.584H147.497V12.26C147.497 13.778 148.201 14.416 149.675 14.416C150.335 14.416 150.885 14.328 151.435 14.196V15.934C150.907 16.11 150.137 16.22 149.301 16.22C146.199 16.22 145.539 14.46 145.539 12.37V6.584H142.899ZM159.066 16.33C155.304 16.33 152.774 14.064 152.774 10.5C152.774 6.936 155.304 4.67 159.066 4.67C162.828 4.67 165.336 6.936 165.336 10.5C165.336 14.064 162.828 16.33 159.066 16.33ZM159.066 14.658C161.662 14.658 163.29 13.162 163.29 10.5C163.29 7.838 161.662 6.342 159.066 6.342C156.47 6.342 154.842 7.838 154.842 10.5C154.842 13.162 156.47 14.658 159.066 14.658ZM173.145 16.33C169.823 16.33 167.491 13.954 167.491 10.5C167.491 7.068 169.867 4.67 173.321 4.67C175.345 4.67 176.841 5.374 177.853 6.848V0.0499995H179.789V16H177.919V13.866C176.995 15.472 175.389 16.33 173.145 16.33ZM173.673 14.636C176.181 14.636 177.897 13.096 177.897 10.786V10.28C177.897 7.904 176.159 6.342 173.585 6.342C171.077 6.342 169.537 7.904 169.537 10.5C169.537 13.074 171.121 14.636 173.673 14.636ZM189.251 16.33C185.489 16.33 182.959 14.064 182.959 10.5C182.959 6.936 185.489 4.67 189.251 4.67C193.013 4.67 195.521 6.936 195.521 10.5C195.521 14.064 193.013 16.33 189.251 16.33ZM189.251 14.658C191.847 14.658 193.475 13.162 193.475 10.5C193.475 7.838 191.847 6.342 189.251 6.342C186.655 6.342 185.027 7.838 185.027 10.5C185.027 13.162 186.655 14.658 189.251 14.658ZM207.871 0.0499995V16H205.935V0.0499995H207.871ZM217.331 16.33C213.569 16.33 211.039 14.064 211.039 10.5C211.039 6.936 213.569 4.67 217.331 4.67C221.093 4.67 223.601 6.936 223.601 10.5C223.601 14.064 221.093 16.33 217.331 16.33ZM217.331 14.658C219.927 14.658 221.555 13.162 221.555 10.5C221.555 7.838 219.927 6.342 217.331 6.342C214.735 6.342 213.107 7.838 213.107 10.5C213.107 13.162 214.735 14.658 217.331 14.658ZM243.079 20.29V13.998C242.331 15.34 240.615 16.374 238.415 16.374C235.005 16.374 232.717 13.954 232.717 10.5C232.717 6.914 235.093 4.626 238.481 4.626C240.681 4.626 242.287 5.484 243.145 6.98L243.497 5H245.015V20.29H243.079ZM238.943 14.68C241.627 14.68 243.123 13.03 243.123 10.786V10.214C243.123 8.014 241.561 6.32 238.855 6.32C236.523 6.32 234.763 7.728 234.763 10.478V10.5C234.763 13.118 236.391 14.68 238.943 14.68ZM253.666 16.33C250.344 16.33 248.87 14.592 248.87 11.424V5H250.828V11.226C250.828 13.822 252.368 14.68 254.04 14.68C256.878 14.68 258.198 12.634 258.198 10.478V5H260.156V16H258.264V13.536C257.56 15.274 255.8 16.33 253.666 16.33ZM275.326 9.972V11.072H265.162C265.228 13.272 266.834 14.658 269.496 14.658C271.454 14.658 272.84 13.91 273.566 12.48L275.194 13.228C274.138 15.274 272.202 16.33 269.408 16.33C265.558 16.33 263.182 14.262 263.182 10.632C263.182 6.826 265.602 4.67 269.32 4.67C273.06 4.67 275.326 6.562 275.326 9.972ZM273.324 9.554V9.4C273.302 7.288 271.63 6.144 269.298 6.144C266.856 6.144 265.272 7.464 265.162 9.554H273.324ZM283.965 6.584V5H286.605V2.118L288.563 1.304V5H292.479V6.584H288.563V12.26C288.563 13.778 289.267 14.416 290.741 14.416C291.401 14.416 291.951 14.328 292.501 14.196V15.934C291.973 16.11 291.203 16.22 290.367 16.22C287.265 16.22 286.605 14.46 286.605 12.37V6.584H283.965ZM305.984 9.972V11.072H295.82C295.886 13.272 297.492 14.658 300.154 14.658C302.112 14.658 303.498 13.91 304.224 12.48L305.852 13.228C304.796 15.274 302.86 16.33 300.066 16.33C296.216 16.33 293.84 14.262 293.84 10.632C293.84 6.826 296.26 4.67 299.978 4.67C303.718 4.67 305.984 6.562 305.984 9.972ZM303.982 9.554V9.4C303.96 7.288 302.288 6.144 299.956 6.144C297.514 6.144 295.93 7.464 295.82 9.554H303.982ZM309.187 16V5H311.057V7.398C311.959 5.572 313.565 4.648 315.853 4.648C318.999 4.648 320.671 6.408 320.671 9.752V16H318.735V10.038C318.735 7.574 317.569 6.342 315.237 6.342C312.729 6.342 311.123 7.97 311.123 10.588V16H309.187ZM335.547 9.972V11.072H325.383C325.449 13.272 327.055 14.658 329.717 14.658C331.675 14.658 333.061 13.91 333.787 12.48L335.415 13.228C334.359 15.274 332.423 16.33 329.629 16.33C325.779 16.33 323.403 14.262 323.403 10.632C323.403 6.826 325.823 4.67 329.541 4.67C333.281 4.67 335.547 6.562 335.547 9.972ZM333.545 9.554V9.4C333.523 7.288 331.851 6.144 329.519 6.144C327.077 6.144 325.493 7.464 325.383 9.554H333.545ZM338.749 5H340.619V7.2C341.323 5.506 342.687 4.648 344.623 4.648C346.603 4.648 348.011 5.55 348.605 7.244C349.441 5.55 350.915 4.648 352.851 4.648C355.601 4.648 357.119 6.342 357.119 9.444V16H355.183V9.598C355.183 7.464 354.193 6.342 352.301 6.342C350.211 6.342 348.913 7.706 348.913 9.95V16H346.955V9.598C346.955 7.486 345.965 6.342 344.095 6.342C342.027 6.342 340.685 7.816 340.685 10.104V16H338.749V5ZM366.132 16.33C362.37 16.33 359.84 14.064 359.84 10.5C359.84 6.936 362.37 4.67 366.132 4.67C369.894 4.67 372.402 6.936 372.402 10.5C372.402 14.064 369.894 16.33 366.132 16.33ZM366.132 14.658C368.728 14.658 370.356 13.162 370.356 10.5C370.356 7.838 368.728 6.342 366.132 6.342C363.536 6.342 361.908 7.838 361.908 10.5C361.908 13.162 363.536 14.658 366.132 14.658ZM380.372 16.33C377.116 16.33 375.114 15.054 374.3 12.766L376.126 12.172C376.72 13.822 378.194 14.746 380.526 14.746C382.506 14.746 383.562 14.152 383.562 12.986C383.562 11.952 383.012 11.49 381.56 11.38L378.326 11.138C375.95 10.918 374.784 9.774 374.784 7.992C374.784 5.924 376.676 4.67 379.8 4.67C382.836 4.67 384.86 5.902 385.454 7.838L383.628 8.454C383.056 7.046 381.846 6.21 379.69 6.21C377.798 6.21 376.676 6.826 376.676 7.926C376.676 8.828 377.38 9.356 378.788 9.488L382.066 9.73C384.508 9.95 385.476 11.05 385.476 12.832C385.476 14.966 383.826 16.33 380.372 16.33ZM395.941 20.29V5H397.811V7.156C398.713 5.572 400.495 4.67 402.629 4.67C405.995 4.67 408.239 6.98 408.239 10.522C408.239 13.998 405.863 16.33 402.519 16.33C400.407 16.33 398.603 15.362 397.877 14.13V20.29H395.941ZM401.991 14.636C404.587 14.636 406.193 13.096 406.193 10.522C406.193 7.926 404.653 6.364 402.123 6.364C399.593 6.364 397.833 7.904 397.833 10.258V10.764C397.833 13.118 399.483 14.636 401.991 14.636ZM414.734 16.33C412.028 16.33 410.268 15.076 410.268 13.074C410.268 12.018 410.752 11.116 411.632 10.566C412.446 10.082 413.502 9.752 415.724 9.554L419.816 9.246V9.048C419.816 7.134 418.65 6.232 416.406 6.232C414.272 6.232 412.952 7.046 412.754 8.542H410.642C410.884 6.232 413.084 4.67 416.406 4.67C420.014 4.67 421.774 6.144 421.774 9.268V12.172C421.774 14.042 421.862 15.01 422.104 16H420.08C419.97 15.384 419.926 14.636 419.904 13.866C419.068 15.45 417.33 16.33 414.734 16.33ZM415.262 14.79C417.968 14.79 419.838 13.382 419.838 11.182V10.632L415.372 11.05C413.106 11.292 412.336 11.864 412.336 13.03C412.336 14.152 413.392 14.79 415.262 14.79ZM427.479 7.794C428.051 6.012 429.503 4.692 431.461 4.692C431.769 4.692 432.033 4.714 432.297 4.758V6.65C432.077 6.628 431.879 6.606 431.615 6.606C430.229 6.606 429.371 7.002 428.755 7.662C427.765 8.674 427.611 10.104 427.611 11.534V16H425.675V5H427.479V7.794ZM437.937 16.33C435.231 16.33 433.471 15.076 433.471 13.074C433.471 12.018 433.955 11.116 434.835 10.566C435.649 10.082 436.705 9.752 438.927 9.554L443.019 9.246V9.048C443.019 7.134 441.853 6.232 439.609 6.232C437.475 6.232 436.155 7.046 435.957 8.542H433.845C434.087 6.232 436.287 4.67 439.609 4.67C443.217 4.67 444.977 6.144 444.977 9.268V12.172C444.977 14.042 445.065 15.01 445.307 16H443.283C443.173 15.384 443.129 14.636 443.107 13.866C442.271 15.45 440.533 16.33 437.937 16.33ZM438.465 14.79C441.171 14.79 443.041 13.382 443.041 11.182V10.632L438.575 11.05C436.309 11.292 435.539 11.864 435.539 13.03C435.539 14.152 436.595 14.79 438.465 14.79ZM454.358 6.584V5H456.998V2.118L458.956 1.304V5H462.872V6.584H458.956V12.26C458.956 13.778 459.66 14.416 461.134 14.416C461.794 14.416 462.344 14.328 462.894 14.196V15.934C462.366 16.11 461.596 16.22 460.76 16.22C457.658 16.22 456.998 14.46 456.998 12.37V6.584H454.358ZM465.696 2.976V0.534H467.962V2.976H465.696ZM465.872 16V5H467.808V16H465.872ZM474.523 13.404V16H471.729V13.404H474.523Z" fill="white"/>
</svg>
