<svg width="21" height="21" viewBox="0 0 21 21" fill="none" xmlns="http://www.w3.org/2000/svg">
<path d="M19.6293 7.50006C20.1593 8.03006 20.2693 8.8301 19.8693 9.2901L10.6393 20.0201C10.0793 20.6701 9.0993 20.6901 8.4593 20.0501L0.579299 12.1701C-0.0607014 11.5301 -0.0407331 10.5501 0.609267 9.99005L11.3393 0.760071C11.7993 0.360071 12.5993 0.470062 13.1293 1.00006L19.6293 7.50006Z" fill="#AFCDDB"/>
<path d="M15.9993 3.86011L4.05927 15.6401L1.2793 12.8601L13.6993 1.57007L15.9993 3.86011Z" fill="#333333"/>
<path d="M15.5592 6.25L7.15918 14.8199L9.40918 17.0699L17.5192 8.20996L15.5592 6.25Z" fill="white"/>
<path d="M10.7595 14.05C10.2895 13.61 10.5695 12.8 10.7395 12.35C11.0095 11.66 11.2894 12.9799 11.2994 13.1899C11.3494 13.8599 11.2795 14.55 11.1195 15.2C11.0295 15.57 10.8994 15.92 10.7294 16.26C10.6194 16.47 10.4794 16.65 10.2994 16.8C9.84945 17.07 9.55946 16.8 9.43946 16C9.48946 15.74 9.60949 15.53 9.77949 15.35C10.3695 14.61 11.3095 14.24 11.9895 13.67C12.0595 13.61 11.9495 13.5101 11.8795 13.5601C11.0595 14.2401 9.37948 14.8 9.26948 16.15C9.19948 17.04 10.0995 17.23 10.5895 16.74C11.2195 16.1 11.3795 14.92 11.4395 14.04C11.4695 13.53 11.5994 12.1099 10.8494 11.9399C10.8194 11.9399 10.7895 11.94 10.7695 11.97C10.4695 12.49 10.0494 13.59 10.6594 14.16C10.7294 14.23 10.8295 14.1201 10.7595 14.0601V14.05Z" fill="#4F5B60"/>
<path d="M11.7788 13.5501C12.4488 13.9201 12.6188 12.4401 12.5288 12.0401C12.5188 11.9801 12.4487 11.9801 12.4087 12.0001C12.0587 12.2801 11.9887 13.03 12.2887 13.46C12.3187 13.51 12.3887 13.51 12.4087 13.46C12.6087 13.06 12.7588 12.6401 12.8988 12.2201C12.9588 12.0401 13.1088 12.08 13.2388 11.96C13.4888 11.71 13.7287 11.45 13.9787 11.2C14.2887 10.88 14.3888 10.4601 14.6788 10.1401C15.0388 9.73009 15.3888 9.54006 15.5688 8.98006C15.6088 8.85006 15.6088 8.56012 15.3888 8.54012C14.9688 8.51012 14.5887 9.41003 15.1587 9.32003C15.8487 9.21003 16.4687 8.41006 16.9187 7.98006C16.9687 7.93006 16.8688 7.83008 16.8188 7.88008C16.5988 8.09008 16.3688 8.31009 16.1288 8.51009C15.9388 8.67009 15.7387 8.83005 15.5387 8.97005C15.4387 9.04005 14.6388 9.39013 15.1488 8.80013C15.2388 8.87013 15.3287 8.94009 15.4187 9.01009C15.3887 9.09009 15.3588 9.16006 15.3188 9.23006C15.2488 9.36006 15.1688 9.48006 15.0788 9.60006C14.9088 9.83006 14.6488 9.96012 14.4588 10.1701C14.2188 10.4401 14.1288 10.8201 13.8688 11.1001C13.7588 11.2201 13.1387 12.0101 12.9187 11.9201C12.8887 11.9101 12.8487 11.92 12.8487 11.95C12.7787 12.15 12.7088 12.36 12.6388 12.57C12.6088 12.65 12.3188 13.2301 12.3288 13.2501C12.1988 12.9401 12.2487 12.5501 12.3487 12.2801C12.4287 12.4501 12.4488 12.6201 12.3888 12.7801C12.3388 13.1501 12.1488 13.3601 11.8288 13.4301C11.7488 13.3801 11.6788 13.5101 11.7688 13.5501H11.7788Z" fill="#4F5B60"/>
</svg>
