<svg width="20" height="20" viewBox="0 0 20 20" fill="none" xmlns="http://www.w3.org/2000/svg">
<path d="M9.73938 19.03C14.9198 19.03 19.1194 14.8305 19.1194 9.65002C19.1194 4.46959 14.9198 0.27002 9.73938 0.27002C4.55895 0.27002 0.359375 4.46959 0.359375 9.65002C0.359375 14.8305 4.55895 19.03 9.73938 19.03Z" fill="#FFDD67"/>
<path d="M6.69867 11.08C7.56023 11.08 8.25867 10.3816 8.25867 9.52002C8.25867 8.65846 7.56023 7.96002 6.69867 7.96002C5.83711 7.96002 5.13867 8.65846 5.13867 9.52002C5.13867 10.3816 5.83711 11.08 6.69867 11.08Z" fill="#664E27"/>
<path d="M15.7499 8.26004C14.7399 7.41004 13.3998 7.05006 12.0998 7.28006C11.9198 7.32006 11.7598 6.65001 11.9798 6.61001C13.4798 6.34001 15.0299 6.75002 16.1999 7.74002C16.3699 7.89002 15.8999 8.38004 15.7599 8.26004H15.7499Z" fill="#917524"/>
<path d="M7.40004 5.53001C6.10004 5.30001 4.76001 5.64999 3.75001 6.50999C3.61001 6.62999 3.14001 6.12997 3.31001 5.98997C4.48001 5.00997 6.02004 4.58996 7.53004 4.85996C7.75004 4.89996 7.58999 5.57001 7.40999 5.53001H7.40004Z" fill="#917524"/>
<path d="M15.4186 10.35C14.8786 9.24998 14.0586 8.71002 13.2386 8.71002C12.4186 8.71002 11.5986 9.25998 11.0586 10.35C11.0086 10.46 11.2886 10.66 11.4286 10.55C11.9586 10.14 12.5886 9.97998 13.2386 9.97998C13.8886 9.97998 14.5286 10.14 15.0486 10.55C15.1886 10.66 15.4686 10.46 15.4186 10.35Z" fill="#664E27"/>
<path d="M13.5402 12.8401C11.3702 13.9801 8.43022 13.74 7.56022 13.74C7.33022 13.74 7.19022 13.8401 7.25022 14.0301C7.87022 16.2001 12.5602 16.2 13.8502 13.18C13.9902 12.84 13.7402 12.7301 13.5402 12.8401Z" fill="#664E27"/>
</svg>
